<?xml version="1.0" encoding="UTF-8" standalone="no"?>
<!DOCTYPE svg  PUBLIC '-//W3C//DTD SVG 1.1//EN'  'http://www.w3.org/Graphics/SVG/1.1/DTD/svg11.dtd'>
<svg xmlns="http://www.w3.org/2000/svg">
<defs>
<font id="SegoeUI-Light" horiz-adv-x="0">
<font-face underline-position="-119" font-weight="300" descent="-410" panose-1="2 11 5 2 4 2 4 2 2 3" units-per-em="2048" unicode-range="U+000D-FE23" bbox="-890 -550 2677 2138" x-height="1024" underline-thickness="119" font-family="SegoeUI" ascent="1638" cap-height="1434"/>
<missing-glyph d="M314 148h694v1102h-694v-1102zM166 0v1398h990v-1398h-990z" horiz-adv-x="1322"/>
<glyph glyph-name=".notdef" d="M314 148h694v1102h-694v-1102zM166 0v1398h990v-1398h-990z" horiz-adv-x="1322"/>
<glyph glyph-name=".null"/>
<glyph glyph-name="uni000D" unicode=""/>
<glyph glyph-name="space" horiz-adv-x="561" unicode=" "/>
<glyph glyph-name="exclam" horiz-adv-x="582" unicode="!" d="M291 -18q-34 0 -57 23.5t-23 57.5q0 35 23 57.5t57 22.5t58 -22.5t24 -57.5q0 -34 -24 -57.5t-58 -23.5zM332 403h-86l-10 1031h106z"/>
<glyph glyph-name="quotedbl" horiz-adv-x="686" unicode='&quot;' d="M258 985h-76l-10 449h96zM506 985h-76l-10 449h96z"/>
<glyph glyph-name="numbersign" horiz-adv-x="1237" unicode="#" d="M508 946l-76 -346h268l76 346h-268zM1128 946h-272l-76 -346h285l-18 -78h-283l-86 -399h-80l86 399h-268l-86 -399h-80l86 399h-283l19 78h280l76 346h-293l19 78h290l88 410h80l-88 -410h269l88 410h80l-89 -410h275z"/>
<glyph glyph-name="dollar" horiz-adv-x="1055" unicode="$" d="M567 635v-549q114 20 172 87.5t58 164.5q0 92 -48.5 156t-181.5 141zM489 1346q-107 -17 -169 -88t-62 -175q0 -88 46 -152.5t185 -144.5v560zM567 4v-213h-78v209q-188 0 -327 80v102q152 -98 327 -98v598q-197 113 -262 194.5t-65 194.5q0 136 88 237t239 124v182h78 v-180q152 0 260 -43v-103q-103 60 -260 60v-607q184 -101 255 -185.5t71 -199.5q0 -140 -85.5 -235t-240.5 -117z"/>
<glyph glyph-name="percent" horiz-adv-x="1606" unicode="%" d="M1206 627q-114 0 -181 -78t-67 -213q0 -129 64.5 -205t177.5 -76q115 0 179.5 77.5t64.5 209.5q0 141 -64 213t-174 72zM1198 -25q-153 0 -242.5 101t-89.5 262q0 177 96 274t246 97t238 -98t88 -271q0 -156 -91.5 -260.5t-244.5 -104.5zM416 -33h-99l863 1465h96z M422 1380q-115 0 -181.5 -76.5t-66.5 -213.5q0 -129 64.5 -205t177.5 -76q114 0 178.5 78t64.5 209q0 141 -64 212.5t-173 71.5zM414 729q-154 0 -243 101t-89 262q0 175 94.5 272.5t247.5 97.5q150 0 238 -97t88 -271q0 -156 -91.5 -260.5t-244.5 -104.5z"/>
<glyph glyph-name="ampersand" horiz-adv-x="1427" unicode="&amp;" d="M1006 250q-332 321 -469 469q-299 -130 -299 -352q0 -135 95.5 -221.5t262.5 -86.5q229 0 410 191zM563 823q174 77 242.5 154t68.5 180q0 99 -63 158t-156 59q-113 0 -180 -72.5t-67 -177.5q0 -128 155 -301zM1260 0l-193 188q-201 -213 -479 -213q-211 0 -329 108.5 t-118 276.5q0 276 332 424q-162 187 -162 342q0 139 98.5 235.5t254.5 96.5q143 0 225 -81.5t82 -207.5q0 -137 -83 -233.5t-261 -177.5q150 -159 440 -434q125 186 133 434h96q-7 -267 -166 -498q171 -168 273 -262z"/>
<glyph glyph-name="quotesingle" horiz-adv-x="438" unicode="&apos;" d="M258 985h-76l-10 449h96z"/>
<glyph glyph-name="parenleft" horiz-adv-x="578" unicode="(" d="M453 -326q-303 354 -303 871q0 540 307 889h98q-313 -360 -313 -887q0 -497 309 -873h-98z"/>
<glyph glyph-name="parenright" horiz-adv-x="578" unicode=")" d="M125 -326h-98q309 376 309 873q0 527 -313 887h98q307 -351 307 -889q0 -519 -303 -871z"/>
<glyph glyph-name="asterisk" horiz-adv-x="831" unicode="*" d="M469 1051l199 -267l-76 -51l-174 277l-178 -277l-74 51l199 267l-295 75l26 86l289 -102l-16 324h94l-14 -324l286 102l27 -86z"/>
<glyph glyph-name="plus" horiz-adv-x="1331" unicode="+" d="M709 555v-412h-84v412h-412v84h412v412h84v-412h411v-84h-411z"/>
<glyph glyph-name="comma" horiz-adv-x="455" unicode="," d="M125 -248h-78l150 475h102z"/>
<glyph glyph-name="hyphen" horiz-adv-x="815" unicode="-" d="M145 555v90h547v-90h-547z"/>
<glyph glyph-name="period" horiz-adv-x="455" unicode="." d="M227 -18q-34 0 -57 23.5t-23 57.5q0 35 23 57.5t57 22.5t58 -22.5t24 -57.5q0 -34 -24 -57.5t-58 -23.5z"/>
<glyph glyph-name="slash" horiz-adv-x="750" unicode="/" d="M63 -238h-92l693 1672h96z"/>
<glyph glyph-name="zero" horiz-adv-x="1055" unicode="0" d="M539 1374q-165 0 -257 -169t-92 -507q0 -308 88 -473.5t250 -165.5q159 0 247.5 168.5t88.5 481.5q0 665 -325 665zM516 -25q-198 0 -310 182t-112 529q0 383 117.5 577.5t335.5 194.5q414 0 414 -735q0 -366 -117 -557t-328 -191z"/>
<glyph glyph-name="one" horiz-adv-x="1055" unicode="1" d="M170 0v84h328v1280l-351 -125v92l443 154v-1401h323v-84h-743z"/>
<glyph glyph-name="two" horiz-adv-x="1055" unicode="2" d="M82 0v98l391 416q209 223 274.5 329t65.5 236q0 140 -78 217.5t-221 77.5q-190 0 -358 -149v108q164 125 370 125q184 0 283.5 -99t99.5 -265q0 -148 -71 -268t-303 -367l-351 -371v-4h717v-84h-819z"/>
<glyph glyph-name="three" horiz-adv-x="1055" unicode="3" d="M115 51v105q164 -97 309 -97q173 0 271 88.5t98 231.5q0 159 -112.5 241t-320.5 82h-110v84h98q192 0 292.5 81.5t100.5 230.5q0 129 -73 202.5t-213 73.5q-135 0 -283 -94v98q162 80 297 80q170 0 269.5 -92t99.5 -244q0 -291 -279 -370v-4q150 -15 240 -111.5 t90 -243.5q0 -188 -130 -303t-337 -115q-160 0 -307 76z"/>
<glyph glyph-name="four" horiz-adv-x="1055" unicode="4" d="M690 1169q0 81 4 129h-4q-27 -50 -51 -86l-502 -723h553v680zM782 406v-406h-92v406h-661v77l661 951h92v-945h191v-83h-191z"/>
<glyph glyph-name="five" horiz-adv-x="1055" unicode="5" d="M156 29v106q138 -76 274 -76q177 0 276 97t99 258q0 350 -399 350q-90 0 -211 -12v682h645v-84h-553v-510q108 8 153 8q227 0 344 -111.5t117 -310.5q0 -201 -124 -326t-355 -125q-155 0 -266 54z"/>
<glyph glyph-name="six" horiz-adv-x="1055" unicode="6" d="M559 813q-143 0 -236.5 -107t-93.5 -237q0 -168 89 -289t233 -121q138 0 230.5 106.5t92.5 270.5q0 169 -84 273t-231 104zM889 1423v-98q-103 49 -211 49q-212 0 -336.5 -200.5t-124.5 -524.5h4q105 248 359 248q176 0 283.5 -126.5t107.5 -315.5q0 -211 -120.5 -345.5 t-307.5 -134.5q-197 0 -308.5 167.5t-111.5 486.5q0 379 146.5 604t410.5 225q119 0 209 -35z"/>
<glyph glyph-name="seven" horiz-adv-x="1055" unicode="7" d="M379 0h-100l557 1350h-746v84h864v-25z"/>
<glyph glyph-name="eight" horiz-adv-x="1055" unicode="8" d="M518 700q-167 -68 -240 -150t-73 -208q0 -123 88 -203t237 -80q152 0 238 80.5t86 200.5q0 133 -82.5 217.5t-253.5 142.5zM526 797q281 111 281 325q0 119 -75.5 185.5t-196.5 66.5q-118 0 -199.5 -72t-81.5 -178q0 -214 272 -327zM430 745v5q-272 131 -272 360 q0 149 109.5 248.5t281.5 99.5q157 0 255.5 -91t98.5 -234q0 -244 -289 -379v-4q336 -122 336 -398q0 -167 -117 -272t-333 -105q-176 0 -283.5 101.5t-107.5 261.5q0 271 321 407z"/>
<glyph glyph-name="nine" horiz-adv-x="1055" unicode="9" d="M522 1374q-141 0 -232 -105t-91 -265q0 -174 89 -274.5t232 -100.5q132 0 227 96.5t95 230.5q0 185 -89.5 301.5t-230.5 116.5zM178 12v101q115 -54 211 -54q227 0 346 181.5t119 535.5h-4q-99 -231 -352 -231q-176 0 -286 123.5t-110 316.5q0 212 122.5 342.5 t310.5 130.5q192 0 303.5 -162.5t111.5 -486.5q0 -402 -144.5 -618t-418.5 -216q-106 0 -209 37z"/>
<glyph glyph-name="colon" horiz-adv-x="455" unicode=":" d="M227 -18q-34 0 -57 23.5t-23 57.5q0 35 23 57.5t57 22.5t58 -22.5t24 -57.5q0 -34 -24 -57.5t-58 -23.5zM227 881q-34 0 -57 24t-23 58t23 56.5t57 22.5t58 -22.5t24 -56.5t-24 -58t-58 -24z"/>
<glyph glyph-name="semicolon" horiz-adv-x="455" unicode=";" d="M125 -248h-78l150 475h102zM236 881q-35 0 -57.5 24t-22.5 58t22.5 56.5t57.5 22.5q34 0 57.5 -22.5t23.5 -56.5t-23.5 -58t-57.5 -24z"/>
<glyph glyph-name="less" horiz-adv-x="1331" unicode="&lt;" d="M250 580v18l833 467v-94l-677 -379v-4l677 -334v-96z"/>
<glyph glyph-name="equal" horiz-adv-x="1331" unicode="=" d="M213 362v84h907v-84h-907zM213 750v84h907v-84h-907z"/>
<glyph glyph-name="greater" horiz-adv-x="1331" unicode="&gt;" d="M250 158v96l678 334v4l-678 379v94l833 -467v-18z"/>
<glyph glyph-name="question" horiz-adv-x="881" unicode="?" d="M412 -18q-34 0 -56.5 23.5t-22.5 57.5q0 35 22.5 57.5t56.5 22.5q35 0 58.5 -22.5t23.5 -57.5q0 -34 -23.5 -57.5t-58.5 -23.5zM377 398q-10 25 -17.5 65.5t-7.5 80.5q0 47 12.5 85.5t35 72.5t54 66t69.5 65q32 29 63 60.5t55 67.5t38.5 78.5t14.5 93.5q0 55 -18.5 98.5 t-51.5 74t-79.5 46.5t-102.5 16q-94 0 -173.5 -33t-149.5 -90v107q71 54 149.5 80t174.5 26q74 0 137.5 -21t110 -61.5t73 -99t26.5 -133.5q0 -57 -16 -104t-41.5 -87t-58.5 -75t-67 -68q-53 -50 -86.5 -84.5t-52.5 -62.5t-26.5 -54.5t-7.5 -62.5q0 -46 8 -83.5t16 -63.5 h-81z"/>
<glyph glyph-name="at" horiz-adv-x="1933" unicode="@" d="M963 1004q-144 0 -229 -120t-85 -319q0 -135 57.5 -214t159.5 -79q136 0 216.5 139t80.5 355q0 117 -53.5 177.5t-146.5 60.5zM1153 426h-4q-90 -238 -293 -238q-140 0 -221.5 100.5t-81.5 268.5q0 227 114 378.5t300 151.5q78 0 137 -40t78 -93h4q4 61 10 119h88 l-51 -584q0 -217 153 -217q124 0 204.5 125t80.5 322q0 299 -181 477t-507 178q-318 0 -518.5 -218t-200.5 -540q0 -327 191 -523.5t520 -196.5q249 0 426 88v-93q-196 -79 -436 -79q-361 0 -579 223t-218 581q0 359 235.5 600.5t589.5 241.5q351 0 562.5 -206t211.5 -523 q0 -237 -107.5 -389t-268.5 -152q-222 0 -238 238z"/>
<glyph glyph-name="A" horiz-adv-x="1288" unicode="A" d="M678 1200q-11 30 -18 59q-7 25 -15 50h-4q-17 -66 -33 -107l-241 -665h553zM1118 0l-164 446h-622l-164 -446h-109l541 1434h94l535 -1434h-111z"/>
<glyph glyph-name="B" horiz-adv-x="1114" unicode="B" d="M283 698v-608h266q169 0 258.5 81t89.5 230q0 297 -403 297h-211zM283 1343v-555h200q156 0 250 80t94 217q0 258 -305 258h-239zM184 0v1434h377q169 0 269 -91t100 -241q0 -125 -66.5 -216.5t-185.5 -129.5v-4q149 -14 235 -106.5t86 -235.5q0 -181 -117 -295.5 t-313 -114.5h-385z"/>
<glyph glyph-name="C" horiz-adv-x="1272" unicode="C" d="M1137 47q-174 -72 -363 -72q-294 0 -479.5 197.5t-185.5 515.5q0 349 201 559.5t511 210.5q165 0 316 -53v-105q-151 68 -318 68q-270 0 -439 -183t-169 -487q0 -293 161.5 -462.5t409.5 -169.5q198 0 355 77v-96z"/>
<glyph glyph-name="D" horiz-adv-x="1380" unicode="D" d="M283 1343v-1253h225q319 0 490 165.5t171 477.5q0 610 -641 610h-245zM184 0v1434h359q357 0 543 -178t186 -519q0 -328 -199.5 -532.5t-550.5 -204.5h-338z"/>
<glyph glyph-name="E" horiz-adv-x="1024" unicode="E" d="M184 0v1434h670v-91h-571v-575h530v-90h-530v-588h604v-90h-703z"/>
<glyph glyph-name="F" horiz-adv-x="952" unicode="F" d="M283 1343v-585h530v-90h-530v-668h-99v1434h670v-91h-571z"/>
<glyph glyph-name="G" horiz-adv-x="1368" unicode="G" d="M1221 100q-222 -125 -457 -125q-293 0 -474 199t-181 522q0 326 195 544t521 218q189 0 367 -76v-108q-195 94 -381 94q-271 0 -435.5 -185t-164.5 -472q0 -302 154.5 -473.5t416.5 -171.5q194 0 340 84v473h-338v90h437v-613z"/>
<glyph glyph-name="H" horiz-adv-x="1386" unicode="H" d="M1104 0v688h-821v-688h-99v1434h99v-656h821v656h98v-1434h-98z"/>
<glyph glyph-name="I" horiz-adv-x="463" unicode="I" d="M421 1434v-90h-140v-1254h140v-90h-379v90h140v1254h-140v90h379z"/>
<glyph glyph-name="J" horiz-adv-x="664" unicode="J" d="M487 494q0 -519 -360 -519q-56 0 -109 15v96q59 -20 111 -20q138 0 199 104.5t61 325.5v938h98v-940z"/>
<glyph glyph-name="K" horiz-adv-x="1079" unicode="K" d="M922 0l-611 686q-17 19 -24 33h-4v-719h-99v1434h99v-676h4q12 21 26 35l580 641h129l-629 -695l668 -739h-139z"/>
<glyph glyph-name="L" horiz-adv-x="938" unicode="L" d="M184 0v1434h99v-1344h575v-90h-674z"/>
<glyph glyph-name="M" horiz-adv-x="1706" unicode="M" d="M1427 0v1018q0 37 11 211h-4q-31 -81 -52 -125l-510 -1104h-32l-512 1098q-25 53 -47 135h-5q7 -96 7 -191v-1042h-99v1434h92l535 -1155q5 -10 11 -27t13 -34q10 -26 21 -58h6l11 32q1 4 34 95l527 1147h88v-1434h-95z"/>
<glyph glyph-name="N" horiz-adv-x="1452" unicode="N" d="M1198 0l-854 1159q-26 35 -46 70l-13 20h-4q2 -26 2 -63v-1186h-99v1434h76l848 -1149q28 -38 61 -92h5q-5 70 -5 120v1121h99v-1434h-70z"/>
<glyph glyph-name="O" horiz-adv-x="1559" unicode="O" d="M784 1368q-250 0 -411.5 -181t-161.5 -474q0 -296 153 -471.5t408 -175.5q266 0 421 173.5t155 483.5q0 304 -151.5 474.5t-412.5 170.5zM774 -25q-304 0 -484.5 202t-180.5 525q0 343 185.5 549.5t506.5 206.5q290 0 469.5 -198.5t179.5 -520.5q0 -356 -184 -560 t-492 -204z"/>
<glyph glyph-name="P" horiz-adv-x="1114" unicode="P" d="M283 1343v-677h204q194 0 295 92.5t101 261.5q0 323 -371 323h-229zM283 575v-575h-99v1434h346q221 0 338 -102.5t117 -299.5q0 -200 -130.5 -328.5t-365.5 -128.5h-206z"/>
<glyph glyph-name="Q" horiz-adv-x="1544" unicode="Q" d="M778 1368q-255 0 -415 -180q-80 -91 -119.5 -208t-39.5 -265q0 -290 155 -471q157 -178 407 -178q267 0 421 170t154 476q0 314 -150 485t-413 171zM756 -24q-140 0 -261 50.5t-212 150.5q-181 199 -181 523q0 347 184 552q185 206 508 206q289 0 469 -200t180 -523 q0 -139 -34 -266.5t-104.5 -229t-179 -169.5t-258.5 -88q63 -67 118 -118.5t110 -87t114.5 -53.5t130.5 -18q16 0 35 1.5t38.5 5t37.5 8t33 10.5v-94q-27 -10 -70.5 -17t-83.5 -7q-96 0 -172 28.5t-143 78t-129 115.5t-130 142z"/>
<glyph glyph-name="R" horiz-adv-x="1137" unicode="R" d="M283 1343v-614h247q164 0 260.5 86t96.5 236q0 137 -87 214.5t-249 77.5h-268zM918 0l-191 420q-59 130 -118 174.5t-148 44.5h-178v-639h-99v1434h398q190 0 298.5 -102.5t108.5 -270.5q0 -155 -89 -259t-249 -134v-4q85 -34 166 -207l213 -457h-112z"/>
<glyph glyph-name="S" horiz-adv-x="1018" unicode="S" d="M139 51v113q154 -98 312 -98q168 0 255 69.5t87 194.5q0 110 -58.5 175.5t-253.5 178.5q-218 127 -276 212.5t-58 197.5q0 152 118 258t315 106q128 0 256 -43v-104q-126 57 -269 57q-146 0 -231.5 -74t-85.5 -188q0 -110 58.5 -175t252.5 -177q201 -114 267.5 -202.5 t66.5 -203.5q0 -165 -114.5 -269t-323.5 -104q-74 0 -170.5 23t-147.5 53z"/>
<glyph glyph-name="T" horiz-adv-x="1047" unicode="T" d="M573 1343v-1343h-98v1343h-414v91h926v-91h-414z"/>
<glyph glyph-name="U" horiz-adv-x="1327" unicode="U" d="M1161 573q0 -598 -510 -598q-485 0 -485 576v883h98v-869q0 -499 406 -499q393 0 393 485v883h98v-861z"/>
<glyph glyph-name="V" horiz-adv-x="1237" unicode="V" d="M639 0h-74l-524 1434h111l415 -1155q26 -72 37 -136h4q10 51 41 138l441 1153h106z"/>
<glyph glyph-name="W" horiz-adv-x="1833" unicode="W" d="M1362 0h-82l-319 1079q-24 83 -27 135h-4q-3 -44 -31 -133l-340 -1081h-82l-426 1434h111l327 -1149q22 -78 31 -127h4q6 37 35 127l354 1149h50l325 -1149q23 -80 31 -127h4q5 28 16 64l336 1212h107z"/>
<glyph glyph-name="X" horiz-adv-x="1153" unicode="X" d="M961 0l-330 547q-31 51 -53 100h-5q-27 -55 -57 -100l-336 -547h-119l453 723l-426 711h119l321 -539q25 -42 52 -96h4l53 96l319 539h115l-430 -709l440 -725h-120z"/>
<glyph glyph-name="Y" horiz-adv-x="1106" unicode="Y" d="M598 545v-545h-98v543l-439 891h111l334 -691q18 -36 45 -106h4q14 37 49 104l350 693h107z"/>
<glyph glyph-name="Z" horiz-adv-x="1167" unicode="Z" d="M215 90h858v-90h-1007v31l868 1312h-799v91h952v-27z"/>
<glyph glyph-name="bracketleft" horiz-adv-x="578" unicode="[" d="M209 -326v1760h317v-84h-225v-1592h225v-84h-317z"/>
<glyph glyph-name="backslash" horiz-adv-x="750" unicode="\" d="M668 -238l-697 1672h97l692 -1672h-92z"/>
<glyph glyph-name="bracketright" horiz-adv-x="578" unicode="]" d="M51 -326v84h225v1592h-225v84h318v-1760h-318z"/>
<glyph glyph-name="asciicircum" horiz-adv-x="1331" unicode="^" d="M975 702l-307 613h-4l-308 -613h-96l385 756h41l385 -756h-96z"/>
<glyph glyph-name="underscore" horiz-adv-x="850" unicode="_" d="M0 -268v90h850v-90h-850z"/>
<glyph glyph-name="grave" horiz-adv-x="508" unicode="`" d="M324 1188l-248 328h104l234 -328h-90z"/>
<glyph glyph-name="a" horiz-adv-x="1012" unicode="a" d="M494 510q-161 -23 -226 -74.5t-65 -167.5q0 -91 60.5 -150t168.5 -59q148 0 246 109.5t98 282.5v100zM776 0v205h-4q-49 -105 -142.5 -167.5t-207.5 -62.5q-146 0 -231 82t-85 207q0 268 355 324l315 47q0 330 -248 330q-169 0 -329 -136v111q57 45 154.5 77t183.5 32 q158 0 244.5 -98t86.5 -285v-666h-92z"/>
<glyph glyph-name="b" horiz-adv-x="1147" unicode="b" d="M256 563v-129q0 -154 97 -264.5t255 -110.5q157 0 255 134.5t98 353.5q0 192 -90 305t-240 113q-179 0 -277 -120t-98 -282zM260 182h-4v-182h-92v1516h92v-703h4q55 113 157.5 174.5t225.5 61.5q195 0 304.5 -134.5t109.5 -365.5q0 -257 -127 -415.5t-330 -158.5 q-230 0 -340 207z"/>
<glyph glyph-name="c" horiz-adv-x="909" unicode="c" d="M827 45q-114 -70 -272 -70q-209 0 -337 143.5t-128 375.5q0 244 144 399.5t370 155.5q117 0 227 -48v-104q-110 68 -241 68q-180 0 -292 -129.5t-112 -335.5q0 -199 102.5 -320t270.5 -121q154 0 268 82v-96z"/>
<glyph glyph-name="d" horiz-adv-x="1147" unicode="d" d="M891 623q0 143 -90.5 242.5t-243.5 99.5q-161 0 -266 -123.5t-105 -339.5q0 -212 94.5 -327.5t243.5 -115.5q175 0 271 108.5t96 264.5v191zM891 0v186h-4q-50 -97 -148 -154t-221 -57q-189 0 -308.5 138t-119.5 381q0 248 130.5 401.5t338.5 153.5q230 0 328 -189h4v656 h92v-1516h-92z"/>
<glyph glyph-name="e" horiz-adv-x="1034" unicode="e" d="M848 592q-6 177 -85 275t-218 98q-144 0 -238.5 -96.5t-116.5 -276.5h658zM186 508q0 -211 97.5 -330t267.5 -119q172 0 336 127v-98q-159 -113 -355 -113q-198 0 -320 142t-122 401q0 224 127.5 377.5t331.5 153.5q191 0 293 -134t102 -366v-41h-758z"/>
<glyph glyph-name="f" horiz-adv-x="565" unicode="f" d="M612 1419q-37 29 -112 29q-189 0 -189 -254v-170h271v-84h-271v-940h-92v940h-184v84h184v178q0 162 81.5 246t203.5 84q65 0 108 -19v-94z"/>
<glyph glyph-name="g" horiz-adv-x="1147" unicode="g" d="M891 631q0 136 -91.5 235t-238.5 99q-169 0 -272 -127t-103 -336q0 -210 94.5 -326.5t249.5 -116.5q165 0 263 107t98 262v203zM983 76q0 -289 -126 -423t-392 -134q-148 0 -305 78v96q162 -90 307 -90q424 0 424 448v133h-4q-121 -209 -369 -209q-189 0 -308.5 137 t-119.5 382t129 400t340 155q226 0 328 -187h4v162h92v-948z"/>
<glyph glyph-name="h" horiz-adv-x="1096" unicode="h" d="M860 0v614q0 182 -66 266.5t-206 84.5q-132 0 -232 -103t-100 -295v-567h-92v1516h92v-676h4q121 209 352 209q166 0 253 -107t87 -307v-635h-92z"/>
<glyph glyph-name="i" horiz-adv-x="420" unicode="i" d="M164 0v1024h92v-1024h-92zM209 1282q-30 0 -53 22t-23 56q0 33 23.5 53.5t52.5 20.5q31 0 54.5 -20t23.5 -54q0 -32 -23 -55t-55 -23z"/>
<glyph glyph-name="j" horiz-adv-x="420" unicode="j" d="M256 29q0 -510 -362 -510q-72 0 -146 35v96q80 -47 156 -47q260 0 260 409v1012h92v-995zM209 1282q-30 0 -53 22t-23 56q0 33 23.5 53.5t52.5 20.5q31 0 54.5 -20t23.5 -54q0 -32 -23 -55t-55 -23z"/>
<glyph glyph-name="k" horiz-adv-x="909" unicode="k" d="M750 0l-490 506h-4v-506h-92v1516h92v-977h4l465 485h119l-486 -496l525 -528h-133z"/>
<glyph glyph-name="l" horiz-adv-x="420" unicode="l" d="M164 0v1516h92v-1516h-92z"/>
<glyph glyph-name="m" horiz-adv-x="1683" unicode="m" d="M1448 0v616q0 193 -60.5 271t-191.5 78q-121 0 -209 -104t-88 -261v-600h-92v623q0 342 -260 342q-125 0 -208 -104.5t-83 -270.5v-590h-92v1024h92v-170h4q107 195 313 195q112 0 191.5 -64.5t107.5 -169.5q48 111 137.5 172.5t194.5 61.5q336 0 336 -416v-633h-92z"/>
<glyph glyph-name="n" horiz-adv-x="1096" unicode="n" d="M860 0v596q0 369 -266 369q-148 0 -243 -108.5t-95 -268.5v-588h-92v1024h92v-186h4q112 211 350 211q166 0 254 -110.5t88 -315.5v-623h-92z"/>
<glyph glyph-name="o" horiz-adv-x="1149" unicode="o" d="M582 965q-181 0 -288.5 -122t-107.5 -339q0 -201 105 -323t287 -122q185 0 285 120t100 333q0 219 -99.5 336t-281.5 117zM575 -25q-224 0 -354.5 147.5t-130.5 383.5q0 255 136.5 399t359.5 144q219 0 346 -143t127 -396q0 -239 -129.5 -387t-354.5 -148z"/>
<glyph glyph-name="p" horiz-adv-x="1147" unicode="p" d="M256 563v-129q0 -154 97 -264.5t255 -110.5q157 0 255 134.5t98 353.5q0 192 -90 305t-240 113q-179 0 -277 -120t-98 -282zM260 182h-4v-653h-92v1495h92v-211h4q55 113 157.5 174.5t225.5 61.5q195 0 304.5 -134.5t109.5 -365.5q0 -257 -125.5 -415.5t-331.5 -158.5 q-230 0 -340 207z"/>
<glyph glyph-name="q" horiz-adv-x="1147" unicode="q" d="M891 614q0 153 -89 252t-247 99q-159 0 -264 -122.5t-105 -342.5q0 -206 93.5 -323.5t242.5 -117.5q179 0 274 110t95 269v176zM891 -471v659h-4q-114 -213 -371 -213q-192 0 -309 141t-117 380q0 255 133 404t338 149q229 0 326 -191h4v166h92v-1495h-92z"/>
<glyph glyph-name="r" horiz-adv-x="676" unicode="r" d="M647 928q-46 33 -108 33q-121 0 -203 -125t-82 -355v-481h-90v1024h90v-227h4q35 117 111 182t176 65q57 0 102 -18v-98z"/>
<glyph glyph-name="s" horiz-adv-x="795" unicode="s" d="M111 45v111q52 -45 126 -71t128 -26q241 0 241 197q0 68 -53 116t-172 99q-147 64 -206.5 132.5t-59.5 166.5q0 125 95.5 202t235.5 77q132 0 226 -54v-104q-114 74 -236 74q-101 0 -163 -52.5t-62 -136.5q0 -73 39 -118.5t172 -104.5q160 -72 220 -133.5t60 -163.5 q0 -122 -91.5 -201.5t-252.5 -79.5q-148 0 -247 70z"/>
<glyph glyph-name="t" horiz-adv-x="608" unicode="t" d="M569 14q-72 -34 -135 -34q-227 0 -227 272v688h-184v84h184v266q22 8 46 16q24 7 46 15v-297h270v-84h-270v-676q0 -106 33.5 -153.5t113.5 -47.5q57 0 123 37v-86z"/>
<glyph glyph-name="u" horiz-adv-x="1096" unicode="u" d="M840 0v186h-4q-107 -211 -330 -211q-363 0 -363 457v592h93v-569q0 -208 68.5 -302t215.5 -94q143 0 231.5 105t88.5 280v580h92v-1024h-92z"/>
<glyph glyph-name="v" horiz-adv-x="928" unicode="v" d="M500 0h-84l-396 1024h103l305 -815q22 -59 31 -107h4q13 63 29 103l315 819h100z"/>
<glyph glyph-name="w" horiz-adv-x="1386" unicode="w" d="M1032 0h-86l-223 772q-9 32 -16 86h-5q-2 -23 -20 -84l-250 -774h-86l-309 1024h102l238 -817q9 -32 14 -86h8q2 29 19 86l260 817h63l232 -817q8 -29 14 -86h8q0 29 17 86l243 817h95z"/>
<glyph glyph-name="x" horiz-adv-x="862" unicode="x" d="M481 502l334 -502h-117l-270 432h-4l-36 -57q-7 -12 -17 -27l-226 -348h-112l342 500l-336 524h108l228 -367q44 -71 53 -88h4l51 84l238 371h108z"/>
<glyph glyph-name="y" horiz-adv-x="928" unicode="y" d="M414 -209q-56 -138 -124 -205t-175 -67q-45 0 -80 14v92q36 -14 84 -14q123 0 194 170l95 227l-388 1016h103l309 -834q10 -27 14 -41q4 -19 9 -34h4l24 69l330 840h100z"/>
<glyph glyph-name="z" horiz-adv-x="950" unicode="z" d="M207 84h661v-84h-811v35l680 905h-631v84h787v-25z"/>
<glyph glyph-name="braceleft" horiz-adv-x="578" unicode="{" d="M506 -326q-127 5 -191.5 72t-64.5 219v297q0 237 -156 260v64q156 22 156 243v314q0 152 64.5 219t191.5 72v-84q-88 -5 -124 -57t-36 -179v-293q0 -222 -145 -266v-4q145 -46 145 -281v-276q0 -127 36 -179t124 -57v-84z"/>
<glyph glyph-name="bar" horiz-adv-x="463" unicode="|" d="M184 -481v2048h95v-2048h-95z"/>
<glyph glyph-name="braceright" horiz-adv-x="578" unicode="}" d="M483 522q-155 -23 -155 -260v-297q0 -153 -64.5 -219.5t-191.5 -71.5v84q82 5 120.5 53t38.5 183v276q0 235 146 281v4q-146 45 -146 266v293q0 135 -38.5 183t-120.5 53v84q127 -5 191.5 -71.5t64.5 -219.5v-314q0 -221 155 -243v-64z"/>
<glyph glyph-name="asciitilde" horiz-adv-x="1331" unicode="~" d="M1087 711q-7 -114 -68.5 -178t-164.5 -64q-95 0 -201 84q-105 84 -176 84q-141 0 -153 -158h-78q6 113 68 177.5t165 64.5q95 0 195 -80q70 -55 105 -72.5t79 -17.5q133 0 152 160h77z"/>
<glyph glyph-name="uni00A0" horiz-adv-x="561" unicode=" "/>
<glyph glyph-name="exclamdown" horiz-adv-x="582" unicode="¡" d="M242 -408l10 1031h86l10 -1031h-106zM293 881q-34 0 -58 22.5t-24 57.5q0 34 24 57.5t58 23.5t57 -23.5t23 -57.5q0 -35 -23 -57.5t-57 -22.5z"/>
<glyph glyph-name="cent" horiz-adv-x="1055" unicode="¢" d="M590 1122q-153 -29 -240.5 -153.5t-87.5 -304.5q0 -183 87 -300.5t241 -138.5v897zM903 209q-91 -56 -221 -68v-198h-92v198q-194 17 -309 157.5t-115 358.5q0 215 114.5 365.5t309.5 183.5v199h92v-193q118 0 225 -47v-104q-104 63 -225 67v-903q130 10 221 80v-96z"/>
<glyph glyph-name="sterling" horiz-adv-x="1055" unicode="£" d="M80 0v86q248 103 248 365v211h-228v90h228v290q0 188 99 302t263 114q96 0 182 -35v-94q-90 45 -186 45q-125 0 -195.5 -88t-70.5 -256v-278h307v-90h-307v-177q0 -295 -213 -401h741v-84h-868z"/>
<glyph glyph-name="currency" horiz-adv-x="1139" unicode="¤" d="M571 1024q-128 0 -214.5 -88t-86.5 -209t89.5 -211t209.5 -90q122 0 210.5 89t88.5 212q0 126 -90 211.5t-207 85.5zM946 293l-135 135q-105 -86 -242 -86q-140 0 -241 86l-135 -135l-60 61l137 131q-84 116 -84 240q0 140 84 240l-137 133l60 61l135 -135q113 84 241 84 q137 0 240 -84l137 135l60 -61l-138 -133q84 -101 84 -240q0 -132 -84 -240l138 -131z"/>
<glyph glyph-name="yen" horiz-adv-x="1055" unicode="¥" d="M602 745h344v-83h-373v-246h373v-84h-373v-332h-92v332h-372v84h372v246h-372v83h342l-377 689h102l307 -572q37 -68 47 -96h5q20 66 43 100l311 568h96z"/>
<glyph glyph-name="brokenbar" horiz-adv-x="463" unicode="¦" d="M184 -481v852h95v-852h-95zM184 715v852h95v-852h-95z"/>
<glyph glyph-name="section" horiz-adv-x="918" unicode="§" d="M406 946q-144 -65 -144 -203q0 -98 59 -155.5t224 -130.5q69 51 100 100t31 129q0 77 -48 130t-222 130zM618 403q95 -71 95 -200q0 -114 -89 -191.5t-231 -77.5q-107 0 -217 50v98q118 -64 219 -64q109 0 165 50.5t56 132.5q0 54 -30.5 102t-140.5 101 q-177 84 -228 160.5t-51 172.5q0 172 162 256q-123 83 -123 219q0 125 82 202t227 77q110 0 195 -37v-96q-86 49 -197 49q-211 0 -211 -188q0 -80 55.5 -132t212.5 -122q203 -94 203 -279q0 -162 -154 -283z"/>
<glyph glyph-name="dieresis" horiz-adv-x="817" unicode="¨" d="M242 1188q-28 0 -50 19.5t-22 52.5q0 31 22 50t48 19q29 0 52 -19.5t23 -49.5q0 -31 -21 -51.5t-52 -20.5zM575 1188q-27 0 -49 19.5t-22 52.5q0 31 21.5 50t47.5 19q29 0 52.5 -19.5t23.5 -49.5q0 -31 -21.5 -51.5t-52.5 -20.5z"/>
<glyph glyph-name="copyright" horiz-adv-x="1804" unicode="©" d="M1182 270q-123 -71 -250 -71q-209 0 -352.5 141t-143.5 350q0 246 145.5 390.5t366.5 144.5q127 0 230 -54v-86q-106 58 -246 58q-170 0 -287 -117.5t-117 -314.5q0 -192 121.5 -310t292.5 -118q130 0 240 67v-80zM901 1382q-272 0 -468.5 -196t-196.5 -471 q0 -273 195 -468.5t470 -195.5q277 0 472.5 196t195.5 468q0 275 -196.5 471t-471.5 196zM903 -25q-311 0 -529 216.5t-218 523.5q0 310 219.5 526.5t525.5 216.5q308 0 528 -217t220 -524q0 -308 -218.5 -525t-527.5 -217z"/>
<glyph glyph-name="ordfeminine" horiz-adv-x="745" unicode="ª" d="M369 1069q-114 -16 -157.5 -50.5t-43.5 -111.5q0 -57 39 -92t110 -35q96 0 168 83t72 188v45zM557 717v143h-4q-37 -75 -106.5 -117.5t-147.5 -42.5q-105 0 -164 59t-59 144q0 200 256 236l225 32q0 203 -166 203q-134 0 -254 -92v96q129 76 262 76q248 0 248 -274v-463 h-90z"/>
<glyph glyph-name="guillemotleft" horiz-adv-x="952" unicode="«" d="M399 201l-276 336l276 344h113l-281 -344l281 -336h-113zM717 201l-277 336l277 344h114l-282 -344l280 -336h-112z"/>
<glyph glyph-name="logicalnot" horiz-adv-x="1331" unicode="¬" d="M1034 147v408h-821v84h907v-492h-86z"/>
<glyph glyph-name="uni00AD" horiz-adv-x="815" unicode="­" d="M145 555v90h547v-90h-547z"/>
<glyph glyph-name="registered" horiz-adv-x="1804" unicode="®" d="M721 1137v-396h194q98 0 156.5 54.5t58.5 142.5q0 199 -239 199h-170zM1155 242l-115 247q-50 107 -97 144t-105 37h-117v-428h-92v966h264q159 0 245.5 -69.5t86.5 -184.5q0 -222 -252 -268v-4q84 -17 160 -174l127 -266h-105zM901 1382q-272 0 -468.5 -196t-196.5 -471 q0 -273 195 -468.5t470 -195.5q277 0 472.5 196t195.5 468q0 275 -196.5 471t-471.5 196zM903 -25q-311 0 -529 216.5t-218 523.5q0 310 219.5 526.5t525.5 216.5q308 0 528 -217t220 -524q0 -308 -218.5 -525t-527.5 -217z"/>
<glyph glyph-name="uni00AF" horiz-adv-x="850" unicode="¯" d="M0 1641v90h850v-90h-850z"/>
<glyph glyph-name="degree" horiz-adv-x="791" unicode="°" d="M397 1358q-71 0 -121.5 -51.5t-50.5 -122.5q0 -73 49.5 -125.5t118.5 -52.5q70 0 120 52.5t50 125.5q0 74 -48 124t-118 50zM397 930q-104 0 -179 75t-75 179q0 102 73.5 176t176.5 74q105 0 179.5 -73.5t74.5 -176.5q0 -105 -73.5 -179.5t-176.5 -74.5z"/>
<glyph glyph-name="plusminus" horiz-adv-x="1331" unicode="±" d="M213 0v84h907v-84h-907zM709 633v-412h-84v412h-412v84h412v411h84v-411h411v-84h-411z"/>
<glyph glyph-name="uni00B2" horiz-adv-x="674" unicode="²" d="M596 884h-518v100l239 234q61 59 97.5 102t56 77t25.5 62.5t6 59.5q0 153 -158 153q-109 0 -221 -98v102q56 38 112 58t115 20q57 0 102 -16t76.5 -45.5t48.5 -70.5t17 -91q0 -39 -9.5 -77t-34 -81t-67 -94t-108.5 -115l-193 -186v-4h414v-90z"/>
<glyph glyph-name="uni00B3" horiz-adv-x="674" unicode="³" d="M561 1111q0 -54 -19 -100t-55 -79.5t-88 -53t-118 -19.5q-107 0 -193 47v96q100 -63 195 -63q91 0 141.5 47t50.5 125q0 168 -235 168h-70v80h61q215 0 215 172q0 137 -153 137q-71 0 -172 -53v90q49 23 96.5 34t93.5 11q52 0 93.5 -15t70.5 -42.5t44.5 -65.5t15.5 -84 q0 -162 -148 -215v-4q85 -19 129.5 -77t44.5 -136z"/>
<glyph glyph-name="acute" horiz-adv-x="508" unicode="´" d="M227 1188h-90l234 328h104z"/>
<glyph glyph-name="uni00B5" horiz-adv-x="1116" unicode="µ" d="M860 0v186h-4q-105 -211 -330 -211q-176 0 -262 123h-8v-489h-92v1415h92v-569q0 -210 69.5 -303t215.5 -93q144 0 231.5 105.5t87.5 279.5v580h92v-1024h-92z"/>
<glyph glyph-name="paragraph" horiz-adv-x="971" unicode="¶" d="M733 1348v-1348h-86v1348h-198v-1348h-87v903q-105 0 -177 76t-72 188q0 121 75.5 194t180.5 73h495v-86h-131z"/>
<glyph glyph-name="periodcentered" horiz-adv-x="455" unicode="·" d="M227 625q-34 0 -57 24t-23 58t23 56.5t57 22.5t58 -22.5t24 -56.5t-24 -58t-58 -24z"/>
<glyph glyph-name="cedilla" horiz-adv-x="412" unicode="¸" d="M57 -430v74q50 -6 86 -6q160 0 160 92q0 86 -145 86q-32 0 -64 -4v188h72v-117q225 0 225 -147q0 -170 -254 -170q-36 0 -80 4z"/>
<glyph glyph-name="uni00B9" horiz-adv-x="674" unicode="¹" d="M600 884h-471v82h195v682l-209 -70v88l295 94v-794h190v-82z"/>
<glyph glyph-name="ordmasculine" horiz-adv-x="811" unicode="º" d="M424 1374q-117 0 -187.5 -81t-70.5 -222q0 -133 70 -213t186 -80q119 0 184.5 79.5t65.5 219.5q0 139 -65 218t-183 79zM420 696q-158 0 -253 106t-95 271q0 179 98.5 280t255.5 101q158 0 250 -101t92 -278q0 -163 -94 -271t-254 -108z"/>
<glyph glyph-name="guillemotright" horiz-adv-x="952" unicode="»" d="M238 201h-117l285 344l-285 336h115l276 -336zM553 201h-113l283 344l-283 336h113l278 -336z"/>
<glyph glyph-name="onequarter" horiz-adv-x="1513" unicode="¼" d="M1274 741q-33 -61 -45 -77l-246 -367h293v369l2 75h-4zM1358 219v-219h-82v219h-393v64l385 567h90v-553h110v-78h-110zM430 0h-98l862 1434h96zM600 584h-471v82h195v682l-209 -70v88l295 94v-794h190v-82z"/>
<glyph glyph-name="onehalf" horiz-adv-x="1622" unicode="½" d="M1542 0h-518v100l240 234q60 59 96.5 102t56 77t25.5 62.5t6 59.5q0 153 -158 153q-111 0 -221 -98v103q112 77 227 77q57 0 102 -16t76.5 -45.5t48.5 -70.5t17 -91q0 -38 -9.5 -76t-34 -81t-67 -94t-108.5 -115l-193 -187v-4h414v-90zM430 0h-98l862 1434h96zM600 584 h-471v82h195v682l-209 -70v88l295 94v-794h190v-82z"/>
<glyph glyph-name="threequarters" horiz-adv-x="1513" unicode="¾" d="M1274 741q-33 -61 -45 -77l-246 -367h293v369l2 75h-4zM1358 219v-219h-82v219h-393v64l385 567h90v-553h110v-78h-110zM430 0h-98l862 1434h96zM561 811q0 -54 -19 -100t-55 -79.5t-88 -53t-118 -19.5q-107 0 -193 47v96q100 -63 195 -63q91 0 141.5 47t50.5 125 q0 168 -235 168h-70v80h61q215 0 215 172q0 137 -153 137q-71 0 -172 -53v90q49 23 96.5 34t93.5 11q52 0 93.5 -15t70.5 -42.5t44.5 -65.5t15.5 -84q0 -162 -148 -215v-4q85 -19 129.5 -77t44.5 -136z"/>
<glyph glyph-name="questiondown" horiz-adv-x="881" unicode="¿" d="M522 1042q34 0 56.5 -23.5t22.5 -57.5q0 -35 -22.5 -57.5t-56.5 -22.5q-35 0 -58.5 22.5t-23.5 57.5q0 34 23.5 57.5t58.5 23.5zM557 626q10 -25 17.5 -65.5t7.5 -80.5q0 -47 -12.5 -85.5t-35 -72.5t-54 -66t-69.5 -65q-32 -29 -63 -60.5t-55 -67.5t-38.5 -78.5 t-14.5 -93.5q0 -55 18.5 -98.5t51.5 -74t79.5 -46.5t102.5 -16q94 0 173.5 33t149.5 90v-107q-71 -54 -149.5 -80t-174.5 -26q-74 0 -137.5 21t-110 61.5t-73 99t-26.5 133.5q0 57 16 104t41.5 87t58.5 75t67 68q52 50 86 84.5t53 62.5t26.5 54.5t7.5 62.5q0 46 -8 83.5 t-16 63.5h81z"/>
<glyph glyph-name="Agrave" horiz-adv-x="1288" unicode="À" d="M678 1200q-11 30 -18 59q-7 25 -15 50h-4q-17 -66 -33 -107l-241 -665h553zM1118 0l-164 446h-622l-164 -446h-109l541 1434h94l535 -1434h-111zM719 1536l-248 328h104l234 -328h-90z"/>
<glyph glyph-name="Aacute" horiz-adv-x="1288" unicode="Á" d="M678 1200q-11 30 -18 59q-7 25 -15 50h-4q-17 -66 -33 -107l-241 -665h553zM1118 0l-164 446h-622l-164 -446h-109l541 1434h94l535 -1434h-111zM564 1530h-90l234 328h104z"/>
<glyph glyph-name="Acircumflex" horiz-adv-x="1288" unicode="Â" d="M678 1200q-11 30 -18 59q-7 25 -15 50h-4q-17 -66 -33 -107l-241 -665h553zM1118 0l-164 446h-622l-164 -446h-109l541 1434h94l535 -1434h-111zM799 1535l-157 239l-160 -239h-82l221 336h45l219 -336h-86z"/>
<glyph glyph-name="Atilde" horiz-adv-x="1288" unicode="Ã" d="M678 1200q-11 30 -18 59q-7 25 -15 50h-4q-17 -66 -33 -107l-241 -665h553zM1118 0l-164 446h-622l-164 -446h-109l541 1434h94l535 -1434h-111zM965 1768q0 -103 -48.5 -163t-130.5 -60q-66 0 -151 76q-64 55 -119 55q-102 0 -102 -143h-72q0 100 48 160.5t128 60.5 q72 0 160 -72q67 -59 117 -59q40 0 68 37t28 108h74z"/>
<glyph glyph-name="Adieresis" horiz-adv-x="1288" unicode="Ä" d="M678 1200q-11 30 -18 59q-7 25 -15 50h-4q-17 -66 -33 -107l-241 -665h553zM1118 0l-164 446h-622l-164 -446h-109l541 1434h94l535 -1434h-111zM479 1530q-28 0 -50 19.5t-22 52.5q0 31 22 50t48 19q29 0 52 -19.5t23 -49.5q0 -31 -21 -51.5t-52 -20.5zM812 1530 q-27 0 -49 19.5t-22 52.5q0 31 21.5 50t47.5 19q29 0 52.5 -19.5t23.5 -49.5q0 -31 -21.5 -51.5t-52.5 -20.5z"/>
<glyph glyph-name="Aring" horiz-adv-x="1288" unicode="Å" d="M678 1200q-11 30 -18 59q-7 25 -15 50h-4q-17 -66 -33 -107l-241 -665h553zM645 1667q-57 0 -92 -32t-35 -85q0 -52 36.5 -84t90.5 -32q57 0 93 32t36 84q0 57 -37.5 87t-91.5 30zM1118 0l-164 446h-622l-164 -446h-109l519 1374q-134 42 -134 176q0 81 59 133t142 52 q86 0 143.5 -50.5t57.5 -134.5q0 -129 -131 -174l514 -1376h-111z"/>
<glyph glyph-name="AE" horiz-adv-x="1706" unicode="Æ" d="M846 1337h-78l-383 -800h461v800zM846 0v446h-502l-219 -446h-109l697 1434h803v-97h-572v-571h531v-90h-531v-586h604v-90h-702z"/>
<glyph glyph-name="Ccedilla" horiz-adv-x="1272" unicode="Ç" d="M1137 47q-184 -72 -359 -72q-31 0 -61 2v-94q225 0 225 -147q0 -170 -254 -170q-36 0 -80 4v74q50 -6 86 -6q160 0 160 92q0 86 -145 86q-32 0 -64 -4v174q-252 46 -394 237t-142 465q0 349 201 559.5t511 210.5q165 0 316 -53v-105q-151 68 -318 68q-270 0 -439 -183 t-169 -487q0 -293 161.5 -462.5t409.5 -169.5q198 0 355 77v-96z"/>
<glyph glyph-name="Egrave" horiz-adv-x="1024" unicode="È" d="M184 0v1434h670v-91h-571v-575h530v-90h-530v-588h604v-90h-703zM556 1536l-248 328h104l234 -328h-90z"/>
<glyph glyph-name="Eacute" horiz-adv-x="1024" unicode="É" d="M184 0v1434h670v-91h-571v-575h530v-90h-530v-588h604v-90h-703zM506 1533h-90l234 328h104z"/>
<glyph glyph-name="Ecircumflex" horiz-adv-x="1024" unicode="Ê" d="M184 0v1434h670v-91h-571v-575h530v-90h-530v-588h604v-90h-703zM699 1537l-157 239l-160 -239h-82l221 336h45l219 -336h-86z"/>
<glyph glyph-name="Edieresis" horiz-adv-x="1024" unicode="Ë" d="M184 0v1434h670v-91h-571v-575h530v-90h-530v-588h604v-90h-703zM381 1536q-28 0 -50 19.5t-22 52.5q0 31 22 50t48 19q29 0 52 -19.5t23 -49.5q0 -31 -21 -51.5t-52 -20.5zM714 1536q-27 0 -49 19.5t-22 52.5q0 31 21.5 50t47.5 19q29 0 52.5 -19.5t23.5 -49.5 q0 -31 -21.5 -51.5t-52.5 -20.5z"/>
<glyph glyph-name="Igrave" horiz-adv-x="463" unicode="Ì" d="M421 1434v-90h-140v-1254h140v-90h-379v90h140v1254h-140v90h379zM211 1536l-248 328h104l234 -328h-90z"/>
<glyph glyph-name="Iacute" horiz-adv-x="463" unicode="Í" d="M421 1434v-90h-140v-1254h140v-90h-379v90h140v1254h-140v90h379zM260 1536h-90l234 328h104z"/>
<glyph glyph-name="Icircumflex" horiz-adv-x="463" unicode="Î" d="M421 1434v-90h-140v-1254h140v-90h-379v90h140v1254h-140v90h379zM389 1537l-157 239l-160 -239h-82l221 336h45l219 -336h-86z"/>
<glyph glyph-name="Idieresis" horiz-adv-x="463" unicode="Ï" d="M421 1434v-90h-140v-1254h140v-90h-379v90h140v1254h-140v90h379zM64 1536q-28 0 -50 19.5t-22 52.5q0 31 22 50t48 19q29 0 52 -19.5t23 -49.5q0 -31 -21 -51.5t-52 -20.5zM397 1536q-27 0 -49 19.5t-22 52.5q0 31 21.5 50t47.5 19q29 0 52.5 -19.5t23.5 -49.5 q0 -31 -21.5 -51.5t-52.5 -20.5z"/>
<glyph glyph-name="Eth" horiz-adv-x="1380" unicode="Ð" d="M283 1343v-587h403v-88h-403v-578h225q318 0 489.5 165t171.5 478q0 610 -641 610h-245zM184 0v668h-149v88h149v678h359q358 0 543.5 -177.5t185.5 -519.5q0 -332 -201.5 -534.5t-548.5 -202.5h-338z"/>
<glyph glyph-name="Ntilde" horiz-adv-x="1452" unicode="Ñ" d="M1198 0l-854 1159q-26 35 -46 70l-13 20h-4q2 -26 2 -63v-1186h-99v1434h76l848 -1149q28 -38 61 -92h5q-5 70 -5 120v1121h99v-1434h-70zM1101 1768q0 -103 -48.5 -163t-130.5 -60q-66 0 -151 76q-64 55 -119 55q-102 0 -102 -143h-72q0 100 48 160.5t128 60.5 q72 0 160 -72q67 -59 117 -59q40 0 68 37t28 108h74z"/>
<glyph glyph-name="Ograve" horiz-adv-x="1559" unicode="Ò" d="M784 1368q-250 0 -411.5 -181t-161.5 -474q0 -296 153 -471.5t408 -175.5q266 0 421 173.5t155 483.5q0 304 -151.5 474.5t-412.5 170.5zM774 -25q-304 0 -484.5 202t-180.5 525q0 343 185.5 549.5t506.5 206.5q290 0 469.5 -198.5t179.5 -520.5q0 -356 -184 -560 t-492 -204zM866 1535l-248 328h104l234 -328h-90z"/>
<glyph glyph-name="Oacute" horiz-adv-x="1559" unicode="Ó" d="M784 1368q-250 0 -411.5 -181t-161.5 -474q0 -296 153 -471.5t408 -175.5q266 0 421 173.5t155 483.5q0 304 -151.5 474.5t-412.5 170.5zM774 -25q-304 0 -484.5 202t-180.5 525q0 343 185.5 549.5t506.5 206.5q290 0 469.5 -198.5t179.5 -520.5q0 -356 -184 -560 t-492 -204zM731 1536h-90l234 328h104z"/>
<glyph glyph-name="Ocircumflex" horiz-adv-x="1559" unicode="Ô" d="M784 1368q-250 0 -411.5 -181t-161.5 -474q0 -296 153 -471.5t408 -175.5q266 0 421 173.5t155 483.5q0 304 -151.5 474.5t-412.5 170.5zM774 -25q-304 0 -484.5 202t-180.5 525q0 343 185.5 549.5t506.5 206.5q290 0 469.5 -198.5t179.5 -520.5q0 -356 -184 -560 t-492 -204zM935 1536l-157 239l-160 -239h-82l221 336h45l219 -336h-86z"/>
<glyph glyph-name="Otilde" horiz-adv-x="1559" unicode="Õ" d="M784 1368q-250 0 -411.5 -181t-161.5 -474q0 -296 153 -471.5t408 -175.5q266 0 421 173.5t155 483.5q0 304 -151.5 474.5t-412.5 170.5zM774 -25q-304 0 -484.5 202t-180.5 525q0 343 185.5 549.5t506.5 206.5q290 0 469.5 -198.5t179.5 -520.5q0 -356 -184 -560 t-492 -204zM1091 1767q0 -103 -48.5 -163t-130.5 -60q-66 0 -151 76q-64 55 -119 55q-102 0 -102 -143h-72q0 100 48 160.5t128 60.5q72 0 160 -72q67 -59 117 -59q40 0 68 37t28 108h74z"/>
<glyph glyph-name="Odieresis" horiz-adv-x="1559" unicode="Ö" d="M784 1368q-250 0 -411.5 -181t-161.5 -474q0 -296 153 -471.5t408 -175.5q266 0 421 173.5t155 483.5q0 304 -151.5 474.5t-412.5 170.5zM774 -25q-304 0 -484.5 202t-180.5 525q0 343 185.5 549.5t506.5 206.5q290 0 469.5 -198.5t179.5 -520.5q0 -356 -184 -560 t-492 -204zM617 1533q-28 0 -50 19.5t-22 52.5q0 31 22 50t48 19q29 0 52 -19.5t23 -49.5q0 -31 -21 -51.5t-52 -20.5zM950 1533q-27 0 -49 19.5t-22 52.5q0 31 21.5 50t47.5 19q29 0 52.5 -19.5t23.5 -49.5q0 -31 -21.5 -51.5t-52.5 -20.5z"/>
<glyph glyph-name="multiply" horiz-adv-x="1331" unicode="×" d="M999 203l-333 336l-334 -336l-60 59l334 334l-334 336l60 59l334 -336l333 336l60 -59l-334 -336l334 -334z"/>
<glyph glyph-name="Oslash" horiz-adv-x="1559" unicode="Ø" d="M1198 1196l-817 -973q153 -157 391 -157q266 0 421 173.5t155 483.5q0 298 -150 473zM1139 1253q-144 115 -355 115q-250 0 -411.5 -181t-161.5 -474q0 -258 117 -426zM317 147l-170 -202l-63 51l178 213q-153 200 -153 493q0 343 185.5 549.5t506.5 206.5 q235 0 399 -131l139 166l64 -53l-141 -168q188 -201 188 -533q0 -356 -184 -560t-492 -204q-274 0 -457 172z"/>
<glyph glyph-name="Ugrave" horiz-adv-x="1327" unicode="Ù" d="M1161 573q0 -598 -510 -598q-485 0 -485 576v883h98v-869q0 -499 406 -499q393 0 393 485v883h98v-861zM683 1536l-248 328h104l234 -328h-90z"/>
<glyph glyph-name="Uacute" horiz-adv-x="1327" unicode="Ú" d="M1161 573q0 -598 -510 -598q-485 0 -485 576v883h98v-869q0 -499 406 -499q393 0 393 485v883h98v-861zM663 1535h-90l234 328h104z"/>
<glyph glyph-name="Ucircumflex" horiz-adv-x="1327" unicode="Û" d="M1161 573q0 -598 -510 -598q-485 0 -485 576v883h98v-869q0 -499 406 -499q393 0 393 485v883h98v-861zM859 1537l-157 239l-160 -239h-82l221 336h45l219 -336h-86z"/>
<glyph glyph-name="Udieresis" horiz-adv-x="1327" unicode="Ü" d="M1161 573q0 -598 -510 -598q-485 0 -485 576v883h98v-869q0 -499 406 -499q393 0 393 485v883h98v-861zM527 1537q-28 0 -50 19.5t-22 52.5q0 31 22 50t48 19q29 0 52 -19.5t23 -49.5q0 -31 -21 -51.5t-52 -20.5zM860 1537q-27 0 -49 19.5t-22 52.5q0 31 21.5 50t47.5 19 q29 0 52.5 -19.5t23.5 -49.5q0 -31 -21.5 -51.5t-52.5 -20.5z"/>
<glyph glyph-name="Yacute" horiz-adv-x="1106" unicode="Ý" d="M598 545v-545h-98v543l-439 891h111l334 -691q18 -36 45 -106h4q14 37 49 104l350 693h107zM532 1567h-90l234 328h104z"/>
<glyph glyph-name="Thorn" horiz-adv-x="1114" unicode="Þ" d="M283 1106v-678h204q191 0 293.5 91.5t102.5 260.5q0 326 -371 326h-229zM283 338v-338h-99v1434h99v-238h247q455 0 455 -403q0 -204 -133 -329.5t-367 -125.5h-202z"/>
<glyph glyph-name="germandbls" horiz-adv-x="1061" unicode="ß" d="M430 -6v94q73 -29 141 -29q141 0 224.5 88t83.5 234q0 155 -109 257t-307 134v80q307 70 307 332q0 122 -64.5 193t-179.5 71q-128 0 -199 -91t-71 -255v-1100h-92v1114q0 196 101 306t270 110q149 0 240 -92t91 -242q0 -264 -256 -375v-4q170 -45 267.5 -161.5 t97.5 -270.5q0 -179 -111 -295.5t-289 -116.5q-69 0 -145 19z"/>
<glyph glyph-name="agrave" horiz-adv-x="1012" unicode="à" d="M494 510q-161 -23 -226 -74.5t-65 -167.5q0 -91 60.5 -150t168.5 -59q148 0 246 109.5t98 282.5v100zM776 0v205h-4q-49 -105 -142.5 -167.5t-207.5 -62.5q-146 0 -231 82t-85 207q0 268 355 324l315 47q0 330 -248 330q-169 0 -329 -136v111q57 45 154.5 77t183.5 32 q158 0 244.5 -98t86.5 -285v-666h-92zM519 1188l-248 328h104l234 -328h-90z"/>
<glyph glyph-name="aacute" horiz-adv-x="1012" unicode="á" d="M494 510q-161 -23 -226 -74.5t-65 -167.5q0 -91 60.5 -150t168.5 -59q148 0 246 109.5t98 282.5v100zM776 0v205h-4q-49 -105 -142.5 -167.5t-207.5 -62.5q-146 0 -231 82t-85 207q0 268 355 324l315 47q0 330 -248 330q-169 0 -329 -136v111q57 45 154.5 77t183.5 32 q158 0 244.5 -98t86.5 -285v-666h-92zM452 1188h-90l234 328h104z"/>
<glyph glyph-name="acircumflex" horiz-adv-x="1012" unicode="â" d="M494 510q-161 -23 -226 -74.5t-65 -167.5q0 -91 60.5 -150t168.5 -59q148 0 246 109.5t98 282.5v100zM776 0v205h-4q-49 -105 -142.5 -167.5t-207.5 -62.5q-146 0 -231 82t-85 207q0 268 355 324l315 47q0 330 -248 330q-169 0 -329 -136v111q57 45 154.5 77t183.5 32 q158 0 244.5 -98t86.5 -285v-666h-92zM670 1188l-157 239l-160 -239h-82l221 336h45l219 -336h-86z"/>
<glyph glyph-name="atilde" horiz-adv-x="1012" unicode="ã" d="M494 510q-161 -23 -226 -74.5t-65 -167.5q0 -91 60.5 -150t168.5 -59q148 0 246 109.5t98 282.5v100zM776 0v205h-4q-49 -105 -142.5 -167.5t-207.5 -62.5q-146 0 -231 82t-85 207q0 268 355 324l315 47q0 330 -248 330q-169 0 -329 -136v111q57 45 154.5 77t183.5 32 q158 0 244.5 -98t86.5 -285v-666h-92zM824 1423q0 -103 -48.5 -163t-130.5 -60q-66 0 -151 76q-64 55 -119 55q-102 0 -102 -143h-72q0 100 48 160.5t128 60.5q72 0 160 -72q67 -59 117 -59q40 0 68 37t28 108h74z"/>
<glyph glyph-name="adieresis" horiz-adv-x="1012" unicode="ä" d="M494 510q-161 -23 -226 -74.5t-65 -167.5q0 -91 60.5 -150t168.5 -59q148 0 246 109.5t98 282.5v100zM776 0v205h-4q-49 -105 -142.5 -167.5t-207.5 -62.5q-146 0 -231 82t-85 207q0 268 355 324l315 47q0 330 -248 330q-169 0 -329 -136v111q57 45 154.5 77t183.5 32 q158 0 244.5 -98t86.5 -285v-666h-92zM332 1188q-28 0 -50 19.5t-22 52.5q0 31 22 50t48 19q29 0 52 -19.5t23 -49.5q0 -31 -21 -51.5t-52 -20.5zM665 1188q-27 0 -49 19.5t-22 52.5q0 31 21.5 50t47.5 19q29 0 52.5 -19.5t23.5 -49.5q0 -31 -21.5 -51.5t-52.5 -20.5z"/>
<glyph glyph-name="aring" horiz-adv-x="1012" unicode="å" d="M494 510q-161 -23 -226 -74.5t-65 -167.5q0 -91 60.5 -150t168.5 -59q148 0 246 109.5t98 282.5v100zM776 0v205h-4q-49 -105 -142.5 -167.5t-207.5 -62.5q-146 0 -231 82t-85 207q0 268 355 324l315 47q0 330 -248 330q-169 0 -329 -136v111q57 45 154.5 77t183.5 32 q158 0 244.5 -98t86.5 -285v-666h-92zM521 1489q-57 0 -92 -32t-35 -85t36.5 -85t90.5 -32q57 0 93 32.5t36 84.5q0 57 -37.5 87t-91.5 30zM521 1188q-86 0 -143.5 50.5t-57.5 133.5q0 80 57 132t144 52q88 0 144.5 -50.5t56.5 -133.5q0 -80 -58 -132t-143 -52z"/>
<glyph glyph-name="ae" horiz-adv-x="1718" unicode="æ" d="M776 508l-264 -8q-156 -5 -232.5 -58.5t-76.5 -173.5q0 -98 63.5 -153.5t171.5 -55.5q136 0 237 107.5t101 259.5v82zM1530 592q-6 177 -85 275t-218 98q-144 0 -238.5 -96.5t-116.5 -276.5h658zM868 508q0 -211 97.5 -330t267.5 -119q172 0 336 127v-98 q-159 -113 -355 -113q-136 0 -240 74.5t-151 210.5h-4q-133 -285 -391 -285q-150 0 -236 80.5t-86 208.5q0 143 99 225t287 91l284 12q0 373 -239 373q-186 0 -338 -134v109q161 109 348 109q230 0 295 -254h4q126 254 383 254q190 0 293.5 -133t103.5 -367v-41h-758z"/>
<glyph glyph-name="ccedilla" horiz-adv-x="909" unicode="ç" d="M827 45q-114 -70 -272 -70q-209 0 -337 143.5t-128 375.5q0 244 144 399.5t370 155.5q117 0 227 -48v-104q-110 68 -241 68q-180 0 -292 -129.5t-112 -335.5q0 -199 102.5 -320t270.5 -121q154 0 268 82v-96zM403 -430v74q50 -6 86 -6q160 0 160 92q0 86 -145 86 q-32 0 -64 -4v188h72v-117q225 0 225 -147q0 -170 -254 -170q-36 0 -80 4z"/>
<glyph glyph-name="egrave" horiz-adv-x="1034" unicode="è" d="M848 592q-6 177 -85 275t-218 98q-144 0 -238.5 -96.5t-116.5 -276.5h658zM186 508q0 -211 97.5 -330t267.5 -119q172 0 336 127v-98q-159 -113 -355 -113q-198 0 -320 142t-122 401q0 224 127.5 377.5t331.5 153.5q191 0 293 -134t102 -366v-41h-758zM569 1188l-248 328 h104l234 -328h-90z"/>
<glyph glyph-name="eacute" horiz-adv-x="1034" unicode="é" d="M848 592q-6 177 -85 275t-218 98q-144 0 -238.5 -96.5t-116.5 -276.5h658zM186 508q0 -211 97.5 -330t267.5 -119q172 0 336 127v-98q-159 -113 -355 -113q-198 0 -320 142t-122 401q0 224 127.5 377.5t331.5 153.5q191 0 293 -134t102 -366v-41h-758zM489 1188h-90 l234 328h104z"/>
<glyph glyph-name="ecircumflex" horiz-adv-x="1034" unicode="ê" d="M848 592q-6 177 -85 275t-218 98q-144 0 -238.5 -96.5t-116.5 -276.5h658zM186 508q0 -211 97.5 -330t267.5 -119q172 0 336 127v-98q-159 -113 -355 -113q-198 0 -320 142t-122 401q0 224 127.5 377.5t331.5 153.5q191 0 293 -134t102 -366v-41h-758zM704 1188l-157 239 l-160 -239h-82l221 336h45l219 -336h-86z"/>
<glyph glyph-name="edieresis" horiz-adv-x="1034" unicode="ë" d="M848 592q-6 177 -85 275t-218 98q-144 0 -238.5 -96.5t-116.5 -276.5h658zM186 508q0 -211 97.5 -330t267.5 -119q172 0 336 127v-98q-159 -113 -355 -113q-198 0 -320 142t-122 401q0 224 127.5 377.5t331.5 153.5q191 0 293 -134t102 -366v-41h-758zM369 1188 q-28 0 -50 19.5t-22 52.5q0 31 22 50t48 19q29 0 52 -19.5t23 -49.5q0 -31 -21 -51.5t-52 -20.5zM702 1188q-27 0 -49 19.5t-22 52.5q0 31 21.5 50t47.5 19q29 0 52.5 -19.5t23.5 -49.5q0 -31 -21.5 -51.5t-52.5 -20.5z"/>
<glyph glyph-name="igrave" horiz-adv-x="420" unicode="ì" d="M164 0v1024h92v-1024h-92zM254 1188l-248 328h104l234 -328h-90z"/>
<glyph glyph-name="iacute" horiz-adv-x="420" unicode="í" d="M164 0v1024h92v-1024h-92zM173 1188h-90l234 328h104z"/>
<glyph glyph-name="icircumflex" horiz-adv-x="420" unicode="î" d="M164 0v1024h92v-1024h-92zM369 1188l-157 239l-160 -239h-82l221 336h45l219 -336h-86z"/>
<glyph glyph-name="idieresis" horiz-adv-x="420" unicode="ï" d="M164 0v1024h92v-1024h-92zM44 1188q-28 0 -50 19.5t-22 52.5q0 31 22 50t48 19q29 0 52 -19.5t23 -49.5q0 -31 -21 -51.5t-52 -20.5zM377 1188q-27 0 -49 19.5t-22 52.5q0 31 21.5 50t47.5 19q29 0 52.5 -19.5t23.5 -49.5q0 -31 -21.5 -51.5t-52.5 -20.5z"/>
<glyph glyph-name="eth" horiz-adv-x="1090" unicode="ð" d="M557 965q-167 0 -269 -127t-102 -334t96.5 -326t266.5 -119q163 0 258.5 122t95.5 331q0 453 -346 453zM801 956l4 5q-102 180 -219 296l-299 -149l-35 70l276 133q-127 115 -252 202h150q81 -58 186 -155l301 149l35 -71l-280 -136q163 -169 247 -377t84 -413 q0 -235 -121 -385t-331 -150q-220 0 -338.5 144t-118.5 387q0 241 128.5 392t338.5 151q147 0 244 -93z"/>
<glyph glyph-name="ntilde" horiz-adv-x="1096" unicode="ñ" d="M860 0v596q0 369 -266 369q-148 0 -243 -108.5t-95 -268.5v-588h-92v1024h92v-186h4q112 211 350 211q166 0 254 -110.5t88 -315.5v-623h-92zM896 1423q0 -103 -48.5 -163t-130.5 -60q-66 0 -151 76q-64 55 -119 55q-102 0 -102 -143h-72q0 100 48 160.5t128 60.5 q72 0 160 -72q67 -59 117 -59q40 0 68 37t28 108h74z"/>
<glyph glyph-name="ograve" horiz-adv-x="1149" unicode="ò" d="M582 965q-181 0 -288.5 -122t-107.5 -339q0 -201 105 -323t287 -122q185 0 285 120t100 333q0 219 -99.5 336t-281.5 117zM575 -25q-224 0 -354.5 147.5t-130.5 383.5q0 255 136.5 399t359.5 144q219 0 346 -143t127 -396q0 -239 -129.5 -387t-354.5 -148zM592 1188 l-248 328h104l234 -328h-90z"/>
<glyph glyph-name="oacute" horiz-adv-x="1149" unicode="ó" d="M582 965q-181 0 -288.5 -122t-107.5 -339q0 -201 105 -323t287 -122q185 0 285 120t100 333q0 219 -99.5 336t-281.5 117zM575 -25q-224 0 -354.5 147.5t-130.5 383.5q0 255 136.5 399t359.5 144q219 0 346 -143t127 -396q0 -239 -129.5 -387t-354.5 -148zM541 1188h-90 l234 328h104z"/>
<glyph glyph-name="ocircumflex" horiz-adv-x="1149" unicode="ô" d="M582 965q-181 0 -288.5 -122t-107.5 -339q0 -201 105 -323t287 -122q185 0 285 120t100 333q0 219 -99.5 336t-281.5 117zM575 -25q-224 0 -354.5 147.5t-130.5 383.5q0 255 136.5 399t359.5 144q219 0 346 -143t127 -396q0 -239 -129.5 -387t-354.5 -148zM748 1188 l-157 239l-160 -239h-82l221 336h45l219 -336h-86z"/>
<glyph glyph-name="otilde" horiz-adv-x="1149" unicode="õ" d="M582 965q-181 0 -288.5 -122t-107.5 -339q0 -201 105 -323t287 -122q185 0 285 120t100 333q0 219 -99.5 336t-281.5 117zM575 -25q-224 0 -354.5 147.5t-130.5 383.5q0 255 136.5 399t359.5 144q219 0 346 -143t127 -396q0 -239 -129.5 -387t-354.5 -148zM911 1423 q0 -103 -48.5 -163t-130.5 -60q-66 0 -151 76q-64 55 -119 55q-102 0 -102 -143h-72q0 100 48 160.5t128 60.5q72 0 160 -72q67 -59 117 -59q40 0 68 37t28 108h74z"/>
<glyph glyph-name="odieresis" horiz-adv-x="1149" unicode="ö" d="M582 965q-181 0 -288.5 -122t-107.5 -339q0 -201 105 -323t287 -122q185 0 285 120t100 333q0 219 -99.5 336t-281.5 117zM575 -25q-224 0 -354.5 147.5t-130.5 383.5q0 255 136.5 399t359.5 144q219 0 346 -143t127 -396q0 -239 -129.5 -387t-354.5 -148zM416 1188 q-28 0 -50 19.5t-22 52.5q0 31 22 50t48 19q29 0 52 -19.5t23 -49.5q0 -31 -21 -51.5t-52 -20.5zM749 1188q-27 0 -49 19.5t-22 52.5q0 31 21.5 50t47.5 19q29 0 52.5 -19.5t23.5 -49.5q0 -31 -21.5 -51.5t-52.5 -20.5z"/>
<glyph glyph-name="divide" horiz-adv-x="1331" unicode="÷" d="M668 174q-32 0 -55 23t-23 55t23 54t55 22t53.5 -22t21.5 -54t-21.5 -55t-53.5 -23zM213 555v84h907v-84h-907zM668 866q-32 0 -55 23t-23 55t23 54t55 22t53.5 -22t21.5 -54t-21.5 -55t-53.5 -23z"/>
<glyph glyph-name="oslash" horiz-adv-x="1149" unicode="ø" d="M897 799l-582 -643q104 -97 263 -97q185 0 285 120t100 333q0 171 -66 287zM846 866q-99 99 -264 99q-181 0 -288.5 -122t-107.5 -339q0 -167 76 -285zM961 870q98 -140 98 -360q0 -239 -129.5 -387t-354.5 -148q-192 0 -319 113l-166 -184l-61 57l170 189 q-109 146 -109 356q0 255 136.5 399t359.5 144q199 0 321 -115l172 190l62 -55z"/>
<glyph glyph-name="ugrave" horiz-adv-x="1096" unicode="ù" d="M840 0v186h-4q-107 -211 -330 -211q-363 0 -363 457v592h93v-569q0 -208 68.5 -302t215.5 -94q143 0 231.5 105t88.5 280v580h92v-1024h-92zM558 1188l-248 328h104l234 -328h-90z"/>
<glyph glyph-name="uacute" horiz-adv-x="1096" unicode="ú" d="M840 0v186h-4q-107 -211 -330 -211q-363 0 -363 457v592h93v-569q0 -208 68.5 -302t215.5 -94q143 0 231.5 105t88.5 280v580h92v-1024h-92zM543 1188h-90l234 328h104z"/>
<glyph glyph-name="ucircumflex" horiz-adv-x="1096" unicode="û" d="M840 0v186h-4q-107 -211 -330 -211q-363 0 -363 457v592h93v-569q0 -208 68.5 -302t215.5 -94q143 0 231.5 105t88.5 280v580h92v-1024h-92zM726 1188l-157 239l-160 -239h-82l221 336h45l219 -336h-86z"/>
<glyph glyph-name="udieresis" horiz-adv-x="1096" unicode="ü" d="M840 0v186h-4q-107 -211 -330 -211q-363 0 -363 457v592h93v-569q0 -208 68.5 -302t215.5 -94q143 0 231.5 105t88.5 280v580h92v-1024h-92zM402 1188q-28 0 -50 19.5t-22 52.5q0 31 22 50t48 19q29 0 52 -19.5t23 -49.5q0 -31 -21 -51.5t-52 -20.5zM735 1188 q-27 0 -49 19.5t-22 52.5q0 31 21.5 50t47.5 19q29 0 52.5 -19.5t23.5 -49.5q0 -31 -21.5 -51.5t-52.5 -20.5z"/>
<glyph glyph-name="yacute" horiz-adv-x="928" unicode="ý" d="M414 -209q-56 -138 -124 -205t-175 -67q-45 0 -80 14v92q36 -14 84 -14q123 0 194 170l95 227l-388 1016h103l309 -834q10 -27 14 -41q4 -19 9 -34h4l24 69l330 840h100zM448 1188h-90l234 328h104z"/>
<glyph glyph-name="thorn" horiz-adv-x="1147" unicode="þ" d="M256 563v-129q0 -154 97 -264.5t255 -110.5q157 0 255 134.5t98 353.5q0 192 -90 305t-240 113q-179 0 -277 -120t-98 -282zM260 182h-4v-653h-92v1987h92v-703h4q55 113 157.5 174.5t225.5 61.5q195 0 304.5 -134.5t109.5 -365.5q0 -257 -125.5 -415.5t-331.5 -158.5 q-230 0 -340 207z"/>
<glyph glyph-name="ydieresis" horiz-adv-x="928" unicode="ÿ" d="M414 -209q-56 -138 -124 -205t-175 -67q-45 0 -80 14v92q36 -14 84 -14q123 0 194 170l95 227l-388 1016h103l309 -834q10 -27 14 -41q4 -19 9 -34h4l24 69l330 840h100zM303 1188q-28 0 -50 19.5t-22 52.5q0 31 22 50t48 19q29 0 52 -19.5t23 -49.5q0 -31 -21 -51.5 t-52 -20.5zM636 1188q-27 0 -49 19.5t-22 52.5q0 31 21.5 50t47.5 19q29 0 52.5 -19.5t23.5 -49.5q0 -31 -21.5 -51.5t-52.5 -20.5z"/>
<glyph glyph-name="Amacron" horiz-adv-x="1288" unicode="Ā" d="M678 1200q-11 30 -18 59q-7 25 -15 50h-4q-17 -66 -33 -107l-241 -665h553zM1118 0l-164 446h-622l-164 -446h-109l541 1434h94l535 -1434h-111zM388 1536v84h508v-84h-508z"/>
<glyph glyph-name="amacron" horiz-adv-x="1012" unicode="ā" d="M494 510q-161 -23 -226 -74.5t-65 -167.5q0 -91 60.5 -150t168.5 -59q148 0 246 109.5t98 282.5v100zM776 0v205h-4q-49 -105 -142.5 -167.5t-207.5 -62.5q-146 0 -231 82t-85 207q0 268 355 324l315 47q0 330 -248 330q-169 0 -329 -136v111q57 45 154.5 77t183.5 32 q158 0 244.5 -98t86.5 -285v-666h-92zM267 1188v84h508v-84h-508z"/>
<glyph glyph-name="Abreve" horiz-adv-x="1288" unicode="Ă" d="M678 1200q-11 30 -18 59q-7 25 -15 50h-4q-17 -66 -33 -107l-241 -665h553zM1118 0l-164 446h-622l-164 -446h-109l541 1434h94l535 -1434h-111zM919 1772q-16 -108 -89.5 -171.5t-182.5 -63.5q-110 0 -182.5 62t-81.5 173h84q6 -75 55.5 -117t126.5 -42q68 0 120.5 43.5 t61.5 115.5h88z"/>
<glyph glyph-name="abreve" horiz-adv-x="1012" unicode="ă" d="M494 510q-161 -23 -226 -74.5t-65 -167.5q0 -91 60.5 -150t168.5 -59q148 0 246 109.5t98 282.5v100zM776 0v205h-4q-49 -105 -142.5 -167.5t-207.5 -62.5q-146 0 -231 82t-85 207q0 268 355 324l315 47q0 330 -248 330q-169 0 -329 -136v111q57 45 154.5 77t183.5 32 q158 0 244.5 -98t86.5 -285v-666h-92zM784 1423q-16 -108 -89.5 -171.5t-182.5 -63.5q-110 0 -182.5 62t-81.5 173h84q6 -75 55.5 -117t126.5 -42q68 0 120.5 43.5t61.5 115.5h88z"/>
<glyph glyph-name="Aogonek" horiz-adv-x="1288" unicode="Ą" d="M678 1200q-11 30 -18 59q-7 25 -15 50h-4q-17 -66 -33 -107l-241 -665h553zM1118 0l-164 446h-622l-164 -446h-109l541 1434h94l535 -1434h-111zM1206 0q-170 -135 -170 -240q0 -88 84 -88q38 0 80 17v-70q-49 -18 -94 -18q-70 0 -113 40.5t-43 112.5q0 55 42.5 122 t125.5 124h88z"/>
<glyph glyph-name="aogonek" horiz-adv-x="1012" unicode="ą" d="M494 510q-161 -23 -226 -74.5t-65 -167.5q0 -91 60.5 -150t168.5 -59q148 0 246 109.5t98 282.5v100zM776 0v205h-4q-49 -105 -142.5 -167.5t-207.5 -62.5q-146 0 -231 82t-85 207q0 268 355 324l315 47q0 330 -248 330q-169 0 -329 -136v111q57 45 154.5 77t183.5 32 q158 0 244.5 -98t86.5 -285v-666h-92zM864 0q-170 -135 -170 -240q0 -88 84 -88q38 0 80 17v-70q-49 -18 -94 -18q-70 0 -113 40.5t-43 112.5q0 55 42.5 122t125.5 124h88z"/>
<glyph glyph-name="Cacute" horiz-adv-x="1272" unicode="Ć" d="M1137 47q-174 -72 -363 -72q-294 0 -479.5 197.5t-185.5 515.5q0 349 201 559.5t511 210.5q165 0 316 -53v-105q-151 68 -318 68q-270 0 -439 -183t-169 -487q0 -293 161.5 -462.5t409.5 -169.5q198 0 355 77v-96zM696 1536h-90l234 328h104z"/>
<glyph glyph-name="cacute" horiz-adv-x="909" unicode="ć" d="M827 45q-114 -70 -272 -70q-209 0 -337 143.5t-128 375.5q0 244 144 399.5t370 155.5q117 0 227 -48v-104q-110 68 -241 68q-180 0 -292 -129.5t-112 -335.5q0 -199 102.5 -320t270.5 -121q154 0 268 82v-96zM510 1188h-90l234 328h104z"/>
<glyph glyph-name="Ccircumflex" horiz-adv-x="1272" unicode="Ĉ" d="M1137 47q-174 -72 -363 -72q-294 0 -479.5 197.5t-185.5 515.5q0 349 201 559.5t511 210.5q165 0 316 -53v-105q-151 68 -318 68q-270 0 -439 -183t-169 -487q0 -293 161.5 -462.5t409.5 -169.5q198 0 355 77v-96zM920 1537l-157 239l-160 -239h-82l221 336h45l219 -336 h-86z"/>
<glyph glyph-name="ccircumflex" horiz-adv-x="909" unicode="ĉ" d="M827 45q-114 -70 -272 -70q-209 0 -337 143.5t-128 375.5q0 244 144 399.5t370 155.5q117 0 227 -48v-104q-110 68 -241 68q-180 0 -292 -129.5t-112 -335.5q0 -199 102.5 -320t270.5 -121q154 0 268 82v-96zM704 1188l-157 239l-160 -239h-82l221 336h45l219 -336h-86z "/>
<glyph glyph-name="Cdotaccent" horiz-adv-x="1272" unicode="Ċ" d="M1137 47q-174 -72 -363 -72q-294 0 -479.5 197.5t-185.5 515.5q0 349 201 559.5t511 210.5q165 0 316 -53v-105q-151 68 -318 68q-270 0 -439 -183t-169 -487q0 -293 161.5 -462.5t409.5 -169.5q198 0 355 77v-96zM767 1536q-31 0 -54.5 22t-23.5 56t23.5 53.5t52.5 19.5 q31 0 55.5 -19.5t24.5 -53.5q0 -32 -23 -55t-55 -23z"/>
<glyph glyph-name="cdotaccent" horiz-adv-x="909" unicode="ċ" d="M827 45q-114 -70 -272 -70q-209 0 -337 143.5t-128 375.5q0 244 144 399.5t370 155.5q117 0 227 -48v-104q-110 68 -241 68q-180 0 -292 -129.5t-112 -335.5q0 -199 102.5 -320t270.5 -121q154 0 268 82v-96zM560 1188q-31 0 -54.5 22t-23.5 56t23.5 53.5t52.5 19.5 q31 0 55.5 -19.5t24.5 -53.5q0 -32 -23 -55t-55 -23z"/>
<glyph glyph-name="Ccaron" horiz-adv-x="1272" unicode="Č" d="M1137 47q-174 -72 -363 -72q-294 0 -479.5 197.5t-185.5 515.5q0 349 201 559.5t511 210.5q165 0 316 -53v-105q-151 68 -318 68q-270 0 -439 -183t-169 -487q0 -293 161.5 -462.5t409.5 -169.5q198 0 355 77v-96zM802 1536h-45l-220 336h86l158 -240l160 240h82z"/>
<glyph glyph-name="ccaron" horiz-adv-x="909" unicode="č" d="M827 45q-114 -70 -272 -70q-209 0 -337 143.5t-128 375.5q0 244 144 399.5t370 155.5q117 0 227 -48v-104q-110 68 -241 68q-180 0 -292 -129.5t-112 -335.5q0 -199 102.5 -320t270.5 -121q154 0 268 82v-96zM598 1188h-45l-220 336h86l158 -240l160 240h82z"/>
<glyph glyph-name="Dcaron" horiz-adv-x="1380" unicode="Ď" d="M283 1343v-1253h225q319 0 490 165.5t171 477.5q0 610 -641 610h-245zM184 0v1434h359q357 0 543 -178t186 -519q0 -328 -199.5 -532.5t-550.5 -204.5h-338zM691 1536h-45l-220 336h86l158 -240l160 240h82z"/>
<glyph glyph-name="dcaron" horiz-adv-x="1254" unicode="ď" d="M891 623q0 143 -90.5 242.5t-243.5 99.5q-161 0 -266 -123.5t-105 -339.5q0 -212 94.5 -327.5t243.5 -115.5q175 0 271 108.5t96 264.5v191zM891 0v186h-4q-50 -97 -148 -154t-221 -57q-189 0 -308.5 138t-119.5 381q0 248 130.5 401.5t338.5 153.5q230 0 328 -189h4v656 h92v-1516h-92zM1301 1516l-126 -261h-79l93 261h112z"/>
<glyph glyph-name="Dcroat" horiz-adv-x="1380" unicode="Đ" d="M283 1343v-587h403v-88h-403v-578h225q318 0 489.5 165t171.5 478q0 610 -641 610h-245zM184 0v668h-149v88h149v678h359q358 0 543.5 -177.5t185.5 -519.5q0 -332 -201.5 -534.5t-548.5 -202.5h-338z"/>
<glyph glyph-name="dcroat" horiz-adv-x="1147" unicode="đ" d="M891 623q0 143 -90.5 242.5t-243.5 99.5q-161 0 -266 -123.5t-105 -339.5q0 -212 94.5 -327.5t243.5 -115.5q175 0 271 108.5t96 264.5v191zM891 0v186h-4q-50 -97 -148 -154t-221 -57q-189 0 -308.5 138t-119.5 381q0 248 130.5 401.5t338.5 153.5q230 0 328 -189h4v371 h-335v84h335v201h92v-201h135v-84h-135v-1231h-92z"/>
<glyph glyph-name="Emacron" horiz-adv-x="1024" unicode="Ē" d="M184 0v1434h670v-91h-571v-575h530v-90h-530v-588h604v-90h-703zM273 1535v84h508v-84h-508z"/>
<glyph glyph-name="emacron" horiz-adv-x="1034" unicode="ē" d="M848 592q-6 177 -85 275t-218 98q-144 0 -238.5 -96.5t-116.5 -276.5h658zM186 508q0 -211 97.5 -330t267.5 -119q172 0 336 127v-98q-159 -113 -355 -113q-198 0 -320 142t-122 401q0 224 127.5 377.5t331.5 153.5q191 0 293 -134t102 -366v-41h-758zM285 1188v84h508 v-84h-508z"/>
<glyph glyph-name="Ebreve" horiz-adv-x="1024" unicode="Ĕ" d="M184 0v1434h670v-91h-571v-575h530v-90h-530v-588h604v-90h-703zM805 1772q-16 -108 -89.5 -171.5t-182.5 -63.5q-110 0 -182.5 62t-81.5 173h84q6 -75 55.5 -117t126.5 -42q68 0 120.5 43.5t61.5 115.5h88z"/>
<glyph glyph-name="ebreve" horiz-adv-x="1034" unicode="ĕ" d="M848 592q-6 177 -85 275t-218 98q-144 0 -238.5 -96.5t-116.5 -276.5h658zM186 508q0 -211 97.5 -330t267.5 -119q172 0 336 127v-98q-159 -113 -355 -113q-198 0 -320 142t-122 401q0 224 127.5 377.5t331.5 153.5q191 0 293 -134t102 -366v-41h-758zM810 1423 q-16 -108 -89.5 -171.5t-182.5 -63.5q-110 0 -182.5 62t-81.5 173h84q6 -75 55.5 -117t126.5 -42q68 0 120.5 43.5t61.5 115.5h88z"/>
<glyph glyph-name="Edotaccent" horiz-adv-x="1024" unicode="Ė" d="M184 0v1434h670v-91h-571v-575h530v-90h-530v-588h604v-90h-703zM524 1536q-31 0 -54.5 22t-23.5 56t23.5 53.5t52.5 19.5q31 0 55.5 -19.5t24.5 -53.5q0 -32 -23 -55t-55 -23z"/>
<glyph glyph-name="edotaccent" horiz-adv-x="1034" unicode="ė" d="M848 592q-6 177 -85 275t-218 98q-144 0 -238.5 -96.5t-116.5 -276.5h658zM186 508q0 -211 97.5 -330t267.5 -119q172 0 336 127v-98q-159 -113 -355 -113q-198 0 -320 142t-122 401q0 224 127.5 377.5t331.5 153.5q191 0 293 -134t102 -366v-41h-758zM541 1188 q-31 0 -54.5 22t-23.5 56t23.5 53.5t52.5 19.5q31 0 55.5 -19.5t24.5 -53.5q0 -32 -23 -55t-55 -23z"/>
<glyph glyph-name="Eogonek" horiz-adv-x="1024" unicode="Ę" d="M184 0v1434h670v-91h-571v-575h530v-90h-530v-588h604v-90h-703zM845 0q-170 -135 -170 -240q0 -88 84 -88q38 0 80 17v-70q-49 -18 -94 -18q-70 0 -113 40.5t-43 112.5q0 55 42.5 122t125.5 124h88z"/>
<glyph glyph-name="eogonek" horiz-adv-x="1034" unicode="ę" d="M848 592q-6 177 -85 275t-218 98q-144 0 -238.5 -96.5t-116.5 -276.5h658zM186 508q0 -211 97.5 -330t267.5 -119q172 0 336 127v-98q-159 -113 -355 -113q-198 0 -320 142t-122 401q0 224 127.5 377.5t331.5 153.5q191 0 293 -134t102 -366v-41h-758zM675 0 q-170 -135 -170 -240q0 -88 84 -88q38 0 80 17v-70q-49 -18 -94 -18q-70 0 -113 40.5t-43 112.5q0 55 42.5 122t125.5 124h88z"/>
<glyph glyph-name="Ecaron" horiz-adv-x="1024" unicode="Ě" d="M184 0v1434h670v-91h-571v-575h530v-90h-530v-588h604v-90h-703zM542 1536h-45l-220 336h86l158 -240l160 240h82z"/>
<glyph glyph-name="ecaron" horiz-adv-x="1034" unicode="ě" d="M848 592q-6 177 -85 275t-218 98q-144 0 -238.5 -96.5t-116.5 -276.5h658zM186 508q0 -211 97.5 -330t267.5 -119q172 0 336 127v-98q-159 -113 -355 -113q-198 0 -320 142t-122 401q0 224 127.5 377.5t331.5 153.5q191 0 293 -134t102 -366v-41h-758zM556 1188h-45 l-220 336h86l158 -240l160 240h82z"/>
<glyph glyph-name="Gcircumflex" horiz-adv-x="1368" unicode="Ĝ" d="M1221 100q-222 -125 -457 -125q-293 0 -474 199t-181 522q0 326 195 544t521 218q189 0 367 -76v-108q-195 94 -381 94q-271 0 -435.5 -185t-164.5 -472q0 -302 154.5 -473.5t416.5 -171.5q194 0 340 84v473h-338v90h437v-613zM934 1538l-157 239l-160 -239h-82l221 336 h45l219 -336h-86z"/>
<glyph glyph-name="gcircumflex" horiz-adv-x="1147" unicode="ĝ" d="M891 631q0 136 -91.5 235t-238.5 99q-169 0 -272 -127t-103 -336q0 -210 94.5 -326.5t249.5 -116.5q165 0 263 107t98 262v203zM983 76q0 -289 -126 -423t-392 -134q-148 0 -305 78v96q162 -90 307 -90q424 0 424 448v133h-4q-121 -209 -369 -209q-189 0 -308.5 137 t-119.5 382t129 400t340 155q226 0 328 -187h4v162h92v-948zM729 1188l-157 239l-160 -239h-82l221 336h45l219 -336h-86z"/>
<glyph glyph-name="Gbreve" horiz-adv-x="1368" unicode="Ğ" d="M1221 100q-222 -125 -457 -125q-293 0 -474 199t-181 522q0 326 195 544t521 218q189 0 367 -76v-108q-195 94 -381 94q-271 0 -435.5 -185t-164.5 -472q0 -302 154.5 -473.5t416.5 -171.5q194 0 340 84v473h-338v90h437v-613zM1054 1770q-16 -108 -89.5 -171.5 t-182.5 -63.5q-110 0 -182.5 62t-81.5 173h84q6 -75 55.5 -117t126.5 -42q68 0 120.5 43.5t61.5 115.5h88z"/>
<glyph glyph-name="gbreve" horiz-adv-x="1147" unicode="ğ" d="M891 631q0 136 -91.5 235t-238.5 99q-169 0 -272 -127t-103 -336q0 -210 94.5 -326.5t249.5 -116.5q165 0 263 107t98 262v203zM983 76q0 -289 -126 -423t-392 -134q-148 0 -305 78v96q162 -90 307 -90q424 0 424 448v133h-4q-121 -209 -369 -209q-189 0 -308.5 137 t-119.5 382t129 400t340 155q226 0 328 -187h4v162h92v-948zM846 1423q-16 -108 -89.5 -171.5t-182.5 -63.5q-110 0 -182.5 62t-81.5 173h84q6 -75 55.5 -117t126.5 -42q68 0 120.5 43.5t61.5 115.5h88z"/>
<glyph glyph-name="Gdotaccent" horiz-adv-x="1368" unicode="Ġ" d="M1221 100q-222 -125 -457 -125q-293 0 -474 199t-181 522q0 326 195 544t521 218q189 0 367 -76v-108q-195 94 -381 94q-271 0 -435.5 -185t-164.5 -472q0 -302 154.5 -473.5t416.5 -171.5q194 0 340 84v473h-338v90h437v-613zM772 1536q-31 0 -54.5 22t-23.5 56 t23.5 53.5t52.5 19.5q31 0 55.5 -19.5t24.5 -53.5q0 -32 -23 -55t-55 -23z"/>
<glyph glyph-name="gdotaccent" horiz-adv-x="1147" unicode="ġ" d="M891 631q0 136 -91.5 235t-238.5 99q-169 0 -272 -127t-103 -336q0 -210 94.5 -326.5t249.5 -116.5q165 0 263 107t98 262v203zM983 76q0 -289 -126 -423t-392 -134q-148 0 -305 78v96q162 -90 307 -90q424 0 424 448v133h-4q-121 -209 -369 -209q-189 0 -308.5 137 t-119.5 382t129 400t340 155q226 0 328 -187h4v162h92v-948zM558 1188q-31 0 -54.5 22t-23.5 56t23.5 53.5t52.5 19.5q31 0 55.5 -19.5t24.5 -53.5q0 -32 -23 -55t-55 -23z"/>
<glyph glyph-name="Gcommaaccent" horiz-adv-x="1368" unicode="Ģ" d="M1221 100q-222 -125 -457 -125q-293 0 -474 199t-181 522q0 326 195 544t521 218q189 0 367 -76v-108q-195 94 -381 94q-271 0 -435.5 -185t-164.5 -472q0 -302 154.5 -473.5t416.5 -171.5q194 0 340 84v473h-338v90h437v-613zM658 -430v74q50 -6 86 -6q160 0 160 92 q0 86 -145 86q-32 0 -64 -4v188h72v-117q225 0 225 -147q0 -170 -254 -170q-36 0 -80 4z"/>
<glyph glyph-name="gcommaaccent" horiz-adv-x="1147" unicode="ģ" d="M891 631q0 136 -91.5 235t-238.5 99q-169 0 -272 -127t-103 -336q0 -210 94.5 -326.5t249.5 -116.5q165 0 263 107t98 262v203zM983 76q0 -289 -126 -423t-392 -134q-148 0 -305 78v96q162 -90 307 -90q424 0 424 448v133h-4q-121 -209 -369 -209q-189 0 -308.5 137 t-119.5 382t129 400t340 155q226 0 328 -187h4v162h92v-948zM470 1219l126 261h79l-93 -261h-112z"/>
<glyph glyph-name="Hcircumflex" horiz-adv-x="1386" unicode="Ĥ" d="M1104 0v688h-821v-688h-99v1434h99v-656h821v656h98v-1434h-98zM848 1536l-157 239l-160 -239h-82l221 336h45l219 -336h-86z"/>
<glyph glyph-name="hcircumflex" horiz-adv-x="1096" unicode="ĥ" d="M860 0v614q0 182 -66 266.5t-206 84.5q-132 0 -232 -103t-100 -295v-567h-92v1516h92v-676h4q121 209 352 209q166 0 253 -107t87 -307v-635h-92zM731 1617l-157 239l-160 -239h-82l221 336h45l219 -336h-86z"/>
<glyph glyph-name="Hbar" horiz-adv-x="1386" unicode="Ħ" d="M1104 778v267h-821v-267h821zM61 1045v91h123v298h99v-298h821v298h98v-298h123v-91h-123v-1045h-98v688h-821v-688h-99v1045h-123z"/>
<glyph glyph-name="hbar" horiz-adv-x="1096" unicode="ħ" d="M883 0v590q0 181 -66.5 265.5t-206.5 84.5q-29 0 -65 -7.5t-72.5 -25.5t-71.5 -48t-62 -74t-43.5 -104t-16.5 -138v-543h-93v1231h-135v84h135v201h93v-201h389v-84h-389v-416h4q24 44 58.5 82t78.5 66.5t97.5 44.5t117.5 16q86 0 150 -28.5t106 -82t63 -130t21 -173.5 v-610h-92z"/>
<glyph glyph-name="Itilde" horiz-adv-x="463" unicode="Ĩ" d="M421 1434v-90h-140v-1254h140v-90h-379v90h140v1254h-140v90h379zM545 1769q0 -103 -48.5 -163t-130.5 -60q-66 0 -151 76q-64 55 -119 55q-102 0 -102 -143h-72q0 100 48 160.5t128 60.5q72 0 160 -72q67 -59 117 -59q40 0 68 37t28 108h74z"/>
<glyph glyph-name="itilde" horiz-adv-x="420" unicode="ĩ" d="M164 0v1024h92v-1024h-92zM524 1423q0 -103 -48.5 -163t-130.5 -60q-66 0 -151 76q-64 55 -119 55q-102 0 -102 -143h-72q0 100 48 160.5t128 60.5q72 0 160 -72q67 -59 117 -59q40 0 68 37t28 108h74z"/>
<glyph glyph-name="Imacron" horiz-adv-x="463" unicode="Ī" d="M421 1434v-90h-140v-1254h140v-90h-379v90h140v1254h-140v90h379zM-20 1536v84h508v-84h-508z"/>
<glyph glyph-name="imacron" horiz-adv-x="420" unicode="ī" d="M164 0v1024h92v-1024h-92zM-44 1188v84h508v-84h-508z"/>
<glyph glyph-name="Ibreve" horiz-adv-x="463" unicode="Ĭ" d="M421 1434v-90h-140v-1254h140v-90h-379v90h140v1254h-140v90h379zM499 1771q-16 -108 -89.5 -171.5t-182.5 -63.5q-110 0 -182.5 62t-81.5 173h84q6 -75 55.5 -117t126.5 -42q68 0 120.5 43.5t61.5 115.5h88z"/>
<glyph glyph-name="ibreve" horiz-adv-x="420" unicode="ĭ" d="M164 0v1024h92v-1024h-92zM478 1423q-16 -108 -89.5 -171.5t-182.5 -63.5q-110 0 -182.5 62t-81.5 173h84q6 -75 55.5 -117t126.5 -42q68 0 120.5 43.5t61.5 115.5h88z"/>
<glyph glyph-name="Iogonek" horiz-adv-x="463" unicode="Į" d="M421 1434v-90h-140v-1254h140v-90h-379v90h140v1254h-140v90h379zM360 0q-170 -135 -170 -240q0 -88 84 -88q38 0 80 17v-70q-49 -18 -94 -18q-70 0 -113 40.5t-43 112.5q0 55 42.5 122t125.5 124h88z"/>
<glyph glyph-name="iogonek" horiz-adv-x="420" unicode="į" d="M164 0v1024h92v-1024h-92zM209 1282q-30 0 -53 22t-23 56q0 33 23.5 53.5t52.5 20.5q31 0 54.5 -20t23.5 -54q0 -32 -23 -55t-55 -23zM258 0q-170 -135 -170 -240q0 -88 84 -88q38 0 80 17v-70q-49 -18 -94 -18q-70 0 -113 40.5t-43 112.5q0 55 42.5 122t125.5 124h88z "/>
<glyph glyph-name="Idotaccent" horiz-adv-x="463" unicode="İ" d="M421 1434v-90h-140v-1254h140v-90h-379v90h140v1254h-140v90h379zM231 1537q-31 0 -54.5 22t-23.5 56t23.5 53.5t52.5 19.5q31 0 55.5 -19.5t24.5 -53.5q0 -32 -23 -55t-55 -23z"/>
<glyph glyph-name="dotlessi" horiz-adv-x="420" unicode="ı" d="M164 0v1024h92v-1024h-92z"/>
<glyph glyph-name="IJ" horiz-adv-x="1151" unicode="Ĳ" d="M974 494q0 -519 -360 -519q-56 0 -109 15v96q59 -20 111 -20q138 0 199 104.5t61 325.5v938h98v-940zM421 1434v-90h-140v-1254h140v-90h-379v90h140v1254h-140v90h379z"/>
<glyph glyph-name="ij" horiz-adv-x="840" unicode="ĳ" d="M164 0v1024h92v-1024h-92zM209 1282q-30 0 -53 22t-23 56q0 33 23.5 53.5t52.5 20.5q31 0 54.5 -20t23.5 -54q0 -32 -23 -55t-55 -23zM676 29q0 -510 -362 -510q-72 0 -146 35v96q80 -47 156 -47q260 0 260 409v1012h92v-995zM629 1282q-30 0 -53 22t-23 56 q0 33 23.5 53.5t52.5 20.5q31 0 54.5 -20t23.5 -54q0 -32 -23 -55t-55 -23z"/>
<glyph glyph-name="Jcircumflex" horiz-adv-x="664" unicode="Ĵ" d="M487 494q0 -519 -360 -519q-56 0 -109 15v96q59 -20 111 -20q138 0 199 104.5t61 325.5v938h98v-940zM591 1536l-157 239l-160 -239h-82l221 336h45l219 -336h-86z"/>
<glyph glyph-name="jcircumflex" horiz-adv-x="420" unicode="ĵ" d="M256 29q0 -510 -362 -510q-72 0 -146 35v96q80 -47 156 -47q260 0 260 409v1012h92v-995zM360 1188l-157 239l-160 -239h-82l221 336h45l219 -336h-86z"/>
<glyph glyph-name="Kcommaaccent" horiz-adv-x="1079" unicode="Ķ" d="M922 0l-611 686q-17 19 -24 33h-4v-719h-99v1434h99v-676h4q12 21 26 35l580 641h129l-629 -695l668 -739h-139zM668 -118l-126 -261h-79l93 261h112z"/>
<glyph glyph-name="kcommaaccent" horiz-adv-x="909" unicode="ķ" d="M750 0l-490 506h-4v-506h-92v1516h92v-977h4l465 485h119l-486 -496l525 -528h-133zM561 -118l-126 -261h-79l93 261h112z"/>
<glyph glyph-name="kgreenlandic" horiz-adv-x="909" unicode="ĸ" d="M750 0l-490 506h-4v-506h-92v1024h92v-485h4l465 485h119l-486 -496l525 -528h-133z"/>
<glyph glyph-name="Lacute" horiz-adv-x="938" unicode="Ĺ" d="M184 0v1434h99v-1344h575v-90h-674zM559 1536h-90l234 328h104z"/>
<glyph glyph-name="lacute" horiz-adv-x="420" unicode="ĺ" d="M164 0v1516h92v-1516h-92zM239 1621h-90l234 328h104z"/>
<glyph glyph-name="Lcommaaccent" horiz-adv-x="938" unicode="Ļ" d="M184 0v1434h99v-1344h575v-90h-674zM426 -430v74q50 -6 86 -6q160 0 160 92q0 86 -145 86q-32 0 -64 -4v188h72v-117q225 0 225 -147q0 -170 -254 -170q-36 0 -80 4z"/>
<glyph glyph-name="lcommaaccent" horiz-adv-x="420" unicode="ļ" d="M164 0v1516h92v-1516h-92zM130 -430v74q50 -6 86 -6q160 0 160 92q0 86 -145 86q-32 0 -64 -4v188h72v-117q225 0 225 -147q0 -170 -254 -170q-36 0 -80 4z"/>
<glyph glyph-name="Lcaron" horiz-adv-x="938" unicode="Ľ" d="M184 0v1434h99v-1344h575v-90h-674zM825 1434l-126 -261h-79l93 261h112z"/>
<glyph glyph-name="lcaron" horiz-adv-x="527" unicode="ľ" d="M164 0v1516h92v-1516h-92zM574 1516l-126 -261h-79l93 261h112z"/>
<glyph glyph-name="Ldot" horiz-adv-x="938" unicode="Ŀ" d="M184 0v1434h99v-1344h575v-90h-674zM655 625q-34 0 -57 24t-23 58t23 56.5t57 22.5t58 -22.5t24 -56.5t-24 -58t-58 -24z"/>
<glyph glyph-name="ldot" horiz-adv-x="538" unicode="ŀ" d="M164 0v1516h92v-1516h-92zM455 625q-34 0 -57 24t-23 58t23 56.5t57 22.5t58 -22.5t24 -56.5t-24 -58t-58 -24z"/>
<glyph glyph-name="Lslash" horiz-adv-x="938" unicode="Ł" d="M184 0v569l-114 -69v96l114 70v768h99v-709l366 223v-96l-366 -223v-539h575v-90h-674z"/>
<glyph glyph-name="lslash" horiz-adv-x="502" unicode="ł" d="M297 700v-700h-92v631l-180 -137v96l180 137v789h92v-719l182 135v-96z"/>
<glyph glyph-name="Nacute" horiz-adv-x="1452" unicode="Ń" d="M1198 0l-854 1159q-26 35 -46 70l-13 20h-4q2 -26 2 -63v-1186h-99v1434h76l848 -1149q28 -38 61 -92h5q-5 70 -5 120v1121h99v-1434h-70zM709 1536h-90l234 328h104z"/>
<glyph glyph-name="nacute" horiz-adv-x="1096" unicode="ń" d="M860 0v596q0 369 -266 369q-148 0 -243 -108.5t-95 -268.5v-588h-92v1024h92v-186h4q112 211 350 211q166 0 254 -110.5t88 -315.5v-623h-92zM539 1188h-90l234 328h104z"/>
<glyph glyph-name="Ncommaaccent" horiz-adv-x="1452" unicode="Ņ" d="M1198 0l-854 1159q-26 35 -46 70l-13 20h-4q2 -26 2 -63v-1186h-99v1434h76l848 -1149q28 -38 61 -92h5q-5 70 -5 120v1121h99v-1434h-70zM800 -118l-126 -261h-79l93 261h112z"/>
<glyph glyph-name="ncommaaccent" horiz-adv-x="1096" unicode="ņ" d="M860 0v596q0 369 -266 369q-148 0 -243 -108.5t-95 -268.5v-588h-92v1024h92v-186h4q112 211 350 211q166 0 254 -110.5t88 -315.5v-623h-92zM627 -118l-126 -261h-79l93 261h112z"/>
<glyph glyph-name="Ncaron" horiz-adv-x="1452" unicode="Ň" d="M1198 0l-854 1159q-26 35 -46 70l-13 20h-4q2 -26 2 -63v-1186h-99v1434h76l848 -1149q28 -38 61 -92h5q-5 70 -5 120v1121h99v-1434h-70zM763 1536h-45l-220 336h86l158 -240l160 240h82z"/>
<glyph glyph-name="ncaron" horiz-adv-x="1096" unicode="ň" d="M860 0v596q0 369 -266 369q-148 0 -243 -108.5t-95 -268.5v-588h-92v1024h92v-186h4q112 211 350 211q166 0 254 -110.5t88 -315.5v-623h-92zM594 1188h-45l-220 336h86l158 -240l160 240h82z"/>
<glyph glyph-name="napostrophe" horiz-adv-x="1176" unicode="ŉ" d="M940 0v596q0 369 -266 369q-148 0 -243 -108.5t-95 -268.5v-588h-92v1024h92v-186h4q112 211 350 211q166 0 254 -110.5t88 -315.5v-623h-92zM47 985h-73l125 449h104z"/>
<glyph glyph-name="Eng" horiz-adv-x="1444" unicode="Ŋ" d="M1268 0q0 -423 -329 -423q-57 0 -109 15v96q60 -20 111 -20q127 0 183 79t56 251v3l-836 1158q-13 17 -24.5 35t-21.5 35l-13 20h-4q1 -13 1.5 -28.5t0.5 -34.5v-1186h-99v1434h76l848 -1172q14 -19 29 -42t32 -50h5q-2 35 -3.5 65t-1.5 55v1144h99v-1434z"/>
<glyph glyph-name="eng" horiz-adv-x="1096" unicode="ŋ" d="M952 2q0 -215 -73.5 -319.5t-221.5 -104.5q-30 0 -67 9t-66 26v96q32 -23 67 -35t66 -12q106 0 154.5 83.5t48.5 256.5v594q0 369 -266 369q-149 0 -243 -109q-95 -109 -95 -268v-588h-92v1024h92v-186h4q112 211 350 211q167 0 254.5 -110t87.5 -316v-621z"/>
<glyph glyph-name="Omacron" horiz-adv-x="1559" unicode="Ō" d="M784 1368q-250 0 -411.5 -181t-161.5 -474q0 -296 153 -471.5t408 -175.5q266 0 421 173.5t155 483.5q0 304 -151.5 474.5t-412.5 170.5zM774 -25q-304 0 -484.5 202t-180.5 525q0 343 185.5 549.5t506.5 206.5q290 0 469.5 -198.5t179.5 -520.5q0 -356 -184 -560 t-492 -204zM536 1536v84h508v-84h-508z"/>
<glyph glyph-name="omacron" horiz-adv-x="1149" unicode="ō" d="M582 965q-181 0 -288.5 -122t-107.5 -339q0 -201 105 -323t287 -122q185 0 285 120t100 333q0 219 -99.5 336t-281.5 117zM575 -25q-224 0 -354.5 147.5t-130.5 383.5q0 255 136.5 399t359.5 144q219 0 346 -143t127 -396q0 -239 -129.5 -387t-354.5 -148zM334 1188v84 h508v-84h-508z"/>
<glyph glyph-name="Obreve" horiz-adv-x="1559" unicode="Ŏ" d="M784 1368q-250 0 -411.5 -181t-161.5 -474q0 -296 153 -471.5t408 -175.5q266 0 421 173.5t155 483.5q0 304 -151.5 474.5t-412.5 170.5zM774 -25q-304 0 -484.5 202t-180.5 525q0 343 185.5 549.5t506.5 206.5q290 0 469.5 -198.5t179.5 -520.5q0 -356 -184 -560 t-492 -204zM1059 1772q-16 -108 -89.5 -171.5t-182.5 -63.5q-110 0 -182.5 62t-81.5 173h84q6 -75 55.5 -117t126.5 -42q68 0 120.5 43.5t61.5 115.5h88z"/>
<glyph glyph-name="obreve" horiz-adv-x="1149" unicode="ŏ" d="M582 965q-181 0 -288.5 -122t-107.5 -339q0 -201 105 -323t287 -122q185 0 285 120t100 333q0 219 -99.5 336t-281.5 117zM575 -25q-224 0 -354.5 147.5t-130.5 383.5q0 255 136.5 399t359.5 144q219 0 346 -143t127 -396q0 -239 -129.5 -387t-354.5 -148zM852 1423 q-16 -108 -89.5 -171.5t-182.5 -63.5q-110 0 -182.5 62t-81.5 173h84q6 -75 55.5 -117t126.5 -42q68 0 120.5 43.5t61.5 115.5h88z"/>
<glyph glyph-name="Ohungarumlaut" horiz-adv-x="1559" unicode="Ő" d="M784 1368q-250 0 -411.5 -181t-161.5 -474q0 -296 153 -471.5t408 -175.5q266 0 421 173.5t155 483.5q0 304 -151.5 474.5t-412.5 170.5zM774 -25q-304 0 -484.5 202t-180.5 525q0 343 185.5 549.5t506.5 206.5q290 0 469.5 -198.5t179.5 -520.5q0 -356 -184 -560 t-492 -204zM643 1537h-73l211 317h110zM865 1537h-74l211 317h110z"/>
<glyph glyph-name="ohungarumlaut" horiz-adv-x="1149" unicode="ő" d="M582 965q-181 0 -288.5 -122t-107.5 -339q0 -201 105 -323t287 -122q185 0 285 120t100 333q0 219 -99.5 336t-281.5 117zM575 -25q-224 0 -354.5 147.5t-130.5 383.5q0 255 136.5 399t359.5 144q219 0 346 -143t127 -396q0 -239 -129.5 -387t-354.5 -148zM454 1188h-73 l211 317h110zM676 1188h-74l211 317h110z"/>
<glyph glyph-name="OE" horiz-adv-x="1935" unicode="Œ" d="M1077 1341q-130 27 -272 27q-273 0 -433.5 -183t-160.5 -472q0 -292 152 -469.5t430 -177.5q139 0 284 30v1245zM1077 0q-174 -25 -282 -25q-326 0 -506 203t-180 524q0 344 187 550t515 206q141 0 266 -24h670v-91h-571v-575h530v-90h-530v-588h604v-90h-703z"/>
<glyph glyph-name="oe" horiz-adv-x="1886" unicode="œ" d="M582 965q-181 0 -288.5 -122t-107.5 -339q0 -201 105 -323t287 -122q185 0 285 120t100 333q0 219 -99.5 336t-281.5 117zM1718 592q-6 177 -85 275t-218 98q-145 0 -240 -98t-114 -275h657zM1057 508q0 -209 96.5 -329t267.5 -120q174 0 336 127v-98 q-157 -113 -350 -113q-294 0 -395 297h-4q-116 -297 -433 -297q-226 0 -355.5 149t-129.5 382q0 258 137 400.5t359 142.5q156 0 268 -80t156 -217h4q115 297 407 297q190 0 292 -132.5t102 -367.5v-41h-758z"/>
<glyph glyph-name="Racute" horiz-adv-x="1137" unicode="Ŕ" d="M283 1343v-614h247q164 0 260.5 86t96.5 236q0 137 -87 214.5t-249 77.5h-268zM918 0l-191 420q-59 130 -118 174.5t-148 44.5h-178v-639h-99v1434h398q190 0 298.5 -102.5t108.5 -270.5q0 -155 -89 -259t-249 -134v-4q85 -34 166 -207l213 -457h-112zM555 1536h-90 l234 328h104z"/>
<glyph glyph-name="racute" horiz-adv-x="676" unicode="ŕ" d="M647 928q-46 33 -108 33q-121 0 -203 -125t-82 -355v-481h-90v1024h90v-227h4q35 117 111 182t176 65q57 0 102 -18v-98zM391 1188h-90l234 328h104z"/>
<glyph glyph-name="Rcommaaccent" horiz-adv-x="1137" unicode="Ŗ" d="M283 1343v-614h247q164 0 260.5 86t96.5 236q0 137 -87 214.5t-249 77.5h-268zM918 0l-191 420q-59 130 -118 174.5t-148 44.5h-178v-639h-99v1434h398q190 0 298.5 -102.5t108.5 -270.5q0 -155 -89 -259t-249 -134v-4q85 -34 166 -207l213 -457h-112zM641 -118 l-126 -261h-79l93 261h112z"/>
<glyph glyph-name="rcommaaccent" horiz-adv-x="676" unicode="ŗ" d="M647 928q-46 33 -108 33q-121 0 -203 -125t-82 -355v-481h-90v1024h90v-227h4q35 117 111 182t176 65q57 0 102 -18v-98zM502 -118l-126 -261h-79l93 261h112z"/>
<glyph glyph-name="Rcaron" horiz-adv-x="1137" unicode="Ř" d="M283 1343v-614h247q164 0 260.5 86t96.5 236q0 137 -87 214.5t-249 77.5h-268zM918 0l-191 420q-59 130 -118 174.5t-148 44.5h-178v-639h-99v1434h398q190 0 298.5 -102.5t108.5 -270.5q0 -155 -89 -259t-249 -134v-4q85 -34 166 -207l213 -457h-112zM576 1536h-45 l-220 336h86l158 -240l160 240h82z"/>
<glyph glyph-name="rcaron" horiz-adv-x="676" unicode="ř" d="M647 928q-46 33 -108 33q-121 0 -203 -125t-82 -355v-481h-90v1024h90v-227h4q35 117 111 182t176 65q57 0 102 -18v-98zM412 1188h-45l-220 336h86l158 -240l160 240h82z"/>
<glyph glyph-name="Sacute" horiz-adv-x="1018" unicode="Ś" d="M139 51v113q154 -98 312 -98q168 0 255 69.5t87 194.5q0 110 -58.5 175.5t-253.5 178.5q-218 127 -276 212.5t-58 197.5q0 152 118 258t315 106q128 0 256 -43v-104q-126 57 -269 57q-146 0 -231.5 -74t-85.5 -188q0 -110 58.5 -175t252.5 -177q201 -114 267.5 -202.5 t66.5 -203.5q0 -165 -114.5 -269t-323.5 -104q-74 0 -170.5 23t-147.5 53zM498 1535h-90l234 328h104z"/>
<glyph glyph-name="sacute" horiz-adv-x="795" unicode="ś" d="M111 45v111q52 -45 126 -71t128 -26q241 0 241 197q0 68 -53 116t-172 99q-147 64 -206.5 132.5t-59.5 166.5q0 125 95.5 202t235.5 77q132 0 226 -54v-104q-114 74 -236 74q-101 0 -163 -52.5t-62 -136.5q0 -73 39 -118.5t172 -104.5q160 -72 220 -133.5t60 -163.5 q0 -122 -91.5 -201.5t-252.5 -79.5q-148 0 -247 70zM381 1188h-90l234 328h104z"/>
<glyph glyph-name="Scircumflex" horiz-adv-x="1018" unicode="Ŝ" d="M139 51v113q154 -98 312 -98q168 0 255 69.5t87 194.5q0 110 -58.5 175.5t-253.5 178.5q-218 127 -276 212.5t-58 197.5q0 152 118 258t315 106q128 0 256 -43v-104q-126 57 -269 57q-146 0 -231.5 -74t-85.5 -188q0 -110 58.5 -175t252.5 -177q201 -114 267.5 -202.5 t66.5 -203.5q0 -165 -114.5 -269t-323.5 -104q-74 0 -170.5 23t-147.5 53zM681 1536l-157 239l-160 -239h-82l221 336h45l219 -336h-86z"/>
<glyph glyph-name="scircumflex" horiz-adv-x="795" unicode="ŝ" d="M111 45v111q52 -45 126 -71t128 -26q241 0 241 197q0 68 -53 116t-172 99q-147 64 -206.5 132.5t-59.5 166.5q0 125 95.5 202t235.5 77q132 0 226 -54v-104q-114 74 -236 74q-101 0 -163 -52.5t-62 -136.5q0 -73 39 -118.5t172 -104.5q160 -72 220 -133.5t60 -163.5 q0 -122 -91.5 -201.5t-252.5 -79.5q-148 0 -247 70zM576 1188l-157 239l-160 -239h-82l221 336h45l219 -336h-86z"/>
<glyph glyph-name="Scedilla" horiz-adv-x="1018" unicode="Ş" d="M139 51v113q154 -98 312 -98q168 0 255 69.5t87 194.5q0 110 -58.5 175.5t-253.5 178.5q-218 127 -276 212.5t-58 197.5q0 152 118 258t315 106q128 0 256 -43v-104q-126 57 -269 57q-146 0 -231.5 -74t-85.5 -188q0 -110 58.5 -175t252.5 -177q201 -114 267.5 -202.5 t66.5 -203.5q0 -165 -114.5 -269t-323.5 -104q-74 0 -170.5 23t-147.5 53zM397 -430v74q50 -6 86 -6q160 0 160 92q0 86 -145 86q-32 0 -64 -4v188h72v-117q225 0 225 -147q0 -170 -254 -170q-36 0 -80 4z"/>
<glyph glyph-name="scedilla" horiz-adv-x="795" unicode="ş" d="M111 45v111q52 -45 126 -71t128 -26q241 0 241 197q0 68 -53 116t-172 99q-147 64 -206.5 132.5t-59.5 166.5q0 125 95.5 202t235.5 77q132 0 226 -54v-104q-114 74 -236 74q-101 0 -163 -52.5t-62 -136.5q0 -73 39 -118.5t172 -104.5q160 -72 220 -133.5t60 -163.5 q0 -122 -91.5 -201.5t-252.5 -79.5q-148 0 -247 70zM277 -430v74q50 -6 86 -6q160 0 160 92q0 86 -145 86q-32 0 -64 -4v188h72v-117q225 0 225 -147q0 -170 -254 -170q-36 0 -80 4z"/>
<glyph glyph-name="Scaron" horiz-adv-x="1018" unicode="Š" d="M139 51v113q154 -98 312 -98q168 0 255 69.5t87 194.5q0 110 -58.5 175.5t-253.5 178.5q-218 127 -276 212.5t-58 197.5q0 152 118 258t315 106q128 0 256 -43v-104q-126 57 -269 57q-146 0 -231.5 -74t-85.5 -188q0 -110 58.5 -175t252.5 -177q201 -114 267.5 -202.5 t66.5 -203.5q0 -165 -114.5 -269t-323.5 -104q-74 0 -170.5 23t-147.5 53zM566 1567h-45l-220 336h86l158 -240l160 240h82z"/>
<glyph glyph-name="scaron" horiz-adv-x="795" unicode="š" d="M111 45v111q52 -45 126 -71t128 -26q241 0 241 197q0 68 -53 116t-172 99q-147 64 -206.5 132.5t-59.5 166.5q0 125 95.5 202t235.5 77q132 0 226 -54v-104q-114 74 -236 74q-101 0 -163 -52.5t-62 -136.5q0 -73 39 -118.5t172 -104.5q160 -72 220 -133.5t60 -163.5 q0 -122 -91.5 -201.5t-252.5 -79.5q-148 0 -247 70zM445 1188h-45l-220 336h86l158 -240l160 240h82z"/>
<glyph glyph-name="uni0162" horiz-adv-x="1047" unicode="Ţ" d="M573 1343v-1343h-98v1343h-414v91h926v-91h-414zM447 -430v74q50 -6 86 -6q160 0 160 92q0 86 -145 86q-32 0 -64 -4v188h72v-117q225 0 225 -147q0 -170 -254 -170q-36 0 -80 4z"/>
<glyph glyph-name="uni0163" horiz-adv-x="608" unicode="ţ" d="M569 14q-72 -34 -135 -34q-227 0 -227 272v688h-184v84h184v266q22 8 46 16q24 7 46 15v-297h270v-84h-270v-676q0 -106 33.5 -153.5t113.5 -47.5q57 0 123 37v-86zM278 -430v74q50 -6 86 -6q160 0 160 92q0 86 -145 86q-32 0 -64 -4v188h72v-117q225 0 225 -147 q0 -170 -254 -170q-36 0 -80 4z"/>
<glyph glyph-name="Tcaron" horiz-adv-x="1047" unicode="Ť" d="M573 1343v-1343h-98v1343h-414v91h926v-91h-414zM547 1536h-45l-220 336h86l158 -240l160 240h82z"/>
<glyph glyph-name="tcaron" horiz-adv-x="664" unicode="ť" d="M569 14q-72 -34 -135 -34q-227 0 -227 272v688h-184v84h184v266q22 8 46 16q24 7 46 15v-297h270v-84h-270v-676q0 -106 33.5 -153.5t113.5 -47.5q57 0 123 37v-86zM675 1516l-126 -261h-79l93 261h112z"/>
<glyph glyph-name="Tbar" horiz-adv-x="1047" unicode="Ŧ" d="M573 1343v-576h324v-91h-324v-676h-98v676h-324v91h324v576h-414v91h926v-91h-414z"/>
<glyph glyph-name="tbar" horiz-adv-x="608" unicode="ŧ" d="M569 14q-72 -34 -135 -34q-227 0 -227 272v320h-164v84h164v284h-184v84h184v266q22 8 46 16q24 7 46 15v-297h270v-84h-270v-284h240v-84h-240v-308q0 -106 33.5 -153.5t113.5 -47.5q57 0 123 37v-86z"/>
<glyph glyph-name="Utilde" horiz-adv-x="1327" unicode="Ũ" d="M1161 573q0 -598 -510 -598q-485 0 -485 576v883h98v-869q0 -499 406 -499q393 0 393 485v883h98v-861zM978 1771q0 -103 -48.5 -163t-130.5 -60q-66 0 -151 76q-64 55 -119 55q-102 0 -102 -143h-72q0 100 48 160.5t128 60.5q72 0 160 -72q67 -59 117 -59q40 0 68 37 t28 108h74z"/>
<glyph glyph-name="utilde" horiz-adv-x="1096" unicode="ũ" d="M840 0v186h-4q-107 -211 -330 -211q-363 0 -363 457v592h93v-569q0 -208 68.5 -302t215.5 -94q143 0 231.5 105t88.5 280v580h92v-1024h-92zM851 1423q0 -103 -48.5 -163t-130.5 -60q-66 0 -151 76q-64 55 -119 55q-102 0 -102 -143h-72q0 100 48 160.5t128 60.5 q72 0 160 -72q67 -59 117 -59q40 0 68 37t28 108h74z"/>
<glyph glyph-name="Umacron" horiz-adv-x="1327" unicode="Ū" d="M1161 573q0 -598 -510 -598q-485 0 -485 576v883h98v-869q0 -499 406 -499q393 0 393 485v883h98v-861zM408 1535v84h508v-84h-508z"/>
<glyph glyph-name="umacron" horiz-adv-x="1096" unicode="ū" d="M840 0v186h-4q-107 -211 -330 -211q-363 0 -363 457v592h93v-569q0 -208 68.5 -302t215.5 -94q143 0 231.5 105t88.5 280v580h92v-1024h-92zM280 1188v84h508v-84h-508z"/>
<glyph glyph-name="Ubreve" horiz-adv-x="1327" unicode="Ŭ" d="M1161 573q0 -598 -510 -598q-485 0 -485 576v883h98v-869q0 -499 406 -499q393 0 393 485v883h98v-861zM927 1771q-16 -108 -89.5 -171.5t-182.5 -63.5q-110 0 -182.5 62t-81.5 173h84q6 -75 55.5 -117t126.5 -42q68 0 120.5 43.5t61.5 115.5h88z"/>
<glyph glyph-name="ubreve" horiz-adv-x="1096" unicode="ŭ" d="M840 0v186h-4q-107 -211 -330 -211q-363 0 -363 457v592h93v-569q0 -208 68.5 -302t215.5 -94q143 0 231.5 105t88.5 280v580h92v-1024h-92zM811 1423q-16 -108 -89.5 -171.5t-182.5 -63.5q-110 0 -182.5 62t-81.5 173h84q6 -75 55.5 -117t126.5 -42q68 0 120.5 43.5 t61.5 115.5h88z"/>
<glyph glyph-name="Uring" horiz-adv-x="1327" unicode="Ů" d="M1161 573q0 -598 -510 -598q-485 0 -485 576v883h98v-869q0 -499 406 -499q393 0 393 485v883h98v-861zM673 1836q-57 0 -92 -32t-35 -85t36.5 -85t90.5 -32q57 0 93 32.5t36 84.5q0 57 -37.5 87t-91.5 30zM673 1535q-86 0 -143.5 50.5t-57.5 133.5q0 80 57 132t144 52 q88 0 144.5 -50.5t56.5 -133.5q0 -80 -58 -132t-143 -52z"/>
<glyph glyph-name="uring" horiz-adv-x="1096" unicode="ů" d="M840 0v186h-4q-107 -211 -330 -211q-363 0 -363 457v592h93v-569q0 -208 68.5 -302t215.5 -94q143 0 231.5 105t88.5 280v580h92v-1024h-92zM538 1489q-57 0 -92 -32t-35 -85t36.5 -85t90.5 -32q57 0 93 32.5t36 84.5q0 57 -37.5 87t-91.5 30zM538 1188 q-86 0 -143.5 50.5t-57.5 133.5q0 80 57 132t144 52q88 0 144.5 -50.5t56.5 -133.5q0 -80 -58 -132t-143 -52z"/>
<glyph glyph-name="Uhungarumlaut" horiz-adv-x="1327" unicode="Ű" d="M1161 573q0 -598 -510 -598q-485 0 -485 576v883h98v-869q0 -499 406 -499q393 0 393 485v883h98v-861zM536 1536h-73l211 317h110zM758 1536h-74l211 317h110z"/>
<glyph glyph-name="uhungarumlaut" horiz-adv-x="1096" unicode="ű" d="M840 0v186h-4q-107 -211 -330 -211q-363 0 -363 457v592h93v-569q0 -208 68.5 -302t215.5 -94q143 0 231.5 105t88.5 280v580h92v-1024h-92zM421 1188h-73l211 317h110zM643 1188h-74l211 317h110z"/>
<glyph glyph-name="Uogonek" horiz-adv-x="1327" unicode="Ų" d="M1161 573q0 -598 -510 -598q-485 0 -485 576v883h98v-869q0 -499 406 -499q393 0 393 485v883h98v-861zM783 0q-170 -135 -170 -240q0 -88 84 -88q38 0 80 17v-70q-49 -18 -94 -18q-70 0 -113 40.5t-43 112.5q0 55 42.5 122t125.5 124h88z"/>
<glyph glyph-name="uogonek" horiz-adv-x="1096" unicode="ų" d="M840 0v186h-4q-107 -211 -330 -211q-363 0 -363 457v592h93v-569q0 -208 68.5 -302t215.5 -94q143 0 231.5 105t88.5 280v580h92v-1024h-92zM932 0q-170 -135 -170 -240q0 -88 84 -88q38 0 80 17v-70q-49 -18 -94 -18q-70 0 -113 40.5t-43 112.5q0 55 42.5 122t125.5 124 h88z"/>
<glyph glyph-name="Wcircumflex" horiz-adv-x="1833" unicode="Ŵ" d="M1362 0h-82l-319 1079q-24 83 -27 135h-4q-3 -44 -31 -133l-340 -1081h-82l-426 1434h111l327 -1149q22 -78 31 -127h4q6 37 35 127l354 1149h50l325 -1149q23 -80 31 -127h4q5 28 16 64l336 1212h107zM1086 1536l-157 239l-160 -239h-82l221 336h45l219 -336h-86z"/>
<glyph glyph-name="wcircumflex" horiz-adv-x="1386" unicode="ŵ" d="M1032 0h-86l-223 772q-9 32 -16 86h-5q-2 -23 -20 -84l-250 -774h-86l-309 1024h102l238 -817q9 -32 14 -86h8q2 29 19 86l260 817h63l232 -817q8 -29 14 -86h8q0 29 17 86l243 817h95zM861 1188l-157 239l-160 -239h-82l221 336h45l219 -336h-86z"/>
<glyph glyph-name="Ycircumflex" horiz-adv-x="1106" unicode="Ŷ" d="M598 545v-545h-98v543l-439 891h111l334 -691q18 -36 45 -106h4q14 37 49 104l350 693h107zM704 1535l-157 239l-160 -239h-82l221 336h45l219 -336h-86z"/>
<glyph glyph-name="ycircumflex" horiz-adv-x="928" unicode="ŷ" d="M414 -209q-56 -138 -124 -205t-175 -67q-45 0 -80 14v92q36 -14 84 -14q123 0 194 170l95 227l-388 1016h103l309 -834q10 -27 14 -41q4 -19 9 -34h4l24 69l330 840h100zM613 1188l-157 239l-160 -239h-82l221 336h45l219 -336h-86z"/>
<glyph glyph-name="Ydieresis" horiz-adv-x="1106" unicode="Ÿ" d="M598 545v-545h-98v543l-439 891h111l334 -691q18 -36 45 -106h4q14 37 49 104l350 693h107zM383 1535q-28 0 -50 19.5t-22 52.5q0 31 22 50t48 19q29 0 52 -19.5t23 -49.5q0 -31 -21 -51.5t-52 -20.5zM716 1535q-27 0 -49 19.5t-22 52.5q0 31 21.5 50t47.5 19 q29 0 52.5 -19.5t23.5 -49.5q0 -31 -21.5 -51.5t-52.5 -20.5z"/>
<glyph glyph-name="Zacute" horiz-adv-x="1167" unicode="Ź" d="M215 90h858v-90h-1007v31l868 1312h-799v91h952v-27zM596 1537h-90l234 328h104z"/>
<glyph glyph-name="zacute" horiz-adv-x="950" unicode="ź" d="M207 84h661v-84h-811v35l680 905h-631v84h787v-25zM481 1188h-90l234 328h104z"/>
<glyph glyph-name="Zdotaccent" horiz-adv-x="1167" unicode="Ż" d="M215 90h858v-90h-1007v31l868 1312h-799v91h952v-27zM613 1535q-31 0 -54.5 22t-23.5 56t23.5 53.5t52.5 19.5q31 0 55.5 -19.5t24.5 -53.5q0 -32 -23 -55t-55 -23z"/>
<glyph glyph-name="zdotaccent" horiz-adv-x="950" unicode="ż" d="M207 84h661v-84h-811v35l680 905h-631v84h787v-25zM499 1188q-31 0 -54.5 22t-23.5 56t23.5 53.5t52.5 19.5q31 0 55.5 -19.5t24.5 -53.5q0 -32 -23 -55t-55 -23z"/>
<glyph glyph-name="Zcaron" horiz-adv-x="1167" unicode="Ž" d="M215 90h858v-90h-1007v31l868 1312h-799v91h952v-27zM648 1535h-45l-220 336h86l158 -240l160 240h82z"/>
<glyph glyph-name="zcaron" horiz-adv-x="950" unicode="ž" d="M207 84h661v-84h-811v35l680 905h-631v84h787v-25zM530 1188h-45l-220 336h86l158 -240l160 240h82z"/>
<glyph glyph-name="longs" horiz-adv-x="510" unicode="ſ" d="M557 1419q-37 29 -112 29q-189 0 -189 -254v-1194h-92v1202q0 162 81.5 246t203.5 84q65 0 108 -19v-94z"/>
<glyph glyph-name="uni0180" horiz-adv-x="1169" unicode="ƀ" d="M278 563v-129q0 -154 97 -264.5t255 -110.5q157 0 255 134.5t98 353.5q0 192 -90 305t-240 113q-179 0 -277 -120t-98 -282zM282 182h-4v-182h-92v1231h-135v84h135v201h92v-201h390v-84h-390v-418h4q55 113 157.5 174.5t225.5 61.5q195 0 304.5 -134.5t109.5 -365.5 q0 -257 -127 -415.5t-330 -158.5q-230 0 -340 207z"/>
<glyph glyph-name="uni0181" horiz-adv-x="1210" unicode="Ɓ" d="M379 1343v-555h200q77 0 140.5 20.5t108.5 59t70 93.5t25 124q0 258 -305 258h-239zM379 698v-608h266q170 0 259 80.5t89 230.5q0 297 -403 297h-211zM280 0v1343h-32q-81 0 -130.5 -42.5t-49.5 -127.5q0 -55 20 -107h-97q-22 54 -22 122q0 49 16.5 93.5t50.5 78.5 t86 54t124 20h411q84 0 152 -24t116.5 -67.5t74.5 -104.5t26 -136q0 -63 -17 -117.5t-49.5 -99t-79 -77.5t-106.5 -52v-4q73 -7 132.5 -34.5t101.5 -72t64.5 -104t22.5 -131.5q0 -90 -30.5 -165t-86.5 -129.5t-135.5 -85t-177.5 -30.5h-385z"/>
<glyph glyph-name="uni0182" horiz-adv-x="1102" unicode="Ƃ" d="M907 406q0 81 -23 138t-68 93t-111 53t-152 17h-270v-617h276q92 0 158 24t108 66t62 100t20 126zM1010 414q0 -85 -28 -160t-82.5 -131.5t-135 -89.5t-184.5 -33h-396v1434h721v-91h-622v-546h325q85 0 158.5 -21.5t127.5 -67.5t85 -118.5t31 -175.5z"/>
<glyph glyph-name="uni0183" horiz-adv-x="1147" unicode="ƃ" d="M256 563v-129q0 -76 25.5 -144t71.5 -119.5t111 -81.5t144 -30t144 35.5t111.5 100t72 154.5t25.5 198q0 96 -23.5 173t-66.5 131.5t-104 84t-136 29.5q-90 0 -160 -33t-117.5 -88.5t-72.5 -128.5t-25 -152zM260 182h-4v-182h-92v1516h792v-85h-700v-618h4 q56 113 157 174q104 62 226 62q97 0 174 -35t130 -100t81.5 -157.5t28.5 -207.5q0 -127 -33.5 -232.5t-93.5 -181.5t-144 -118t-186 -42q-231 0 -340 207z"/>
<glyph glyph-name="uni0184" horiz-adv-x="1102" unicode="Ƅ" d="M907 406q0 81 -23 138t-68 93t-111 53t-152 17h-270v-617h276q92 0 158 24t108 66t62 100t20 126zM283 797h325q85 0 158.5 -21.5t127.5 -67.5t85 -118.5t31 -175.5q0 -85 -28 -160t-82.5 -131.5t-135 -89.5t-184.5 -33h-396v1193l-137 115v22l214 128h22v-661z"/>
<glyph glyph-name="uni0185" horiz-adv-x="1167" unicode="ƅ" d="M276 563v-129q0 -154 97 -264.5t255 -110.5q157 0 255 134.5t98 353.5q0 192 -90 305t-240 113q-179 0 -277 -120t-98 -282zM280 182h-4v-182h-92v1251l-137 115v22l207 128h22v-703h4q55 113 157.5 174.5t225.5 61.5q195 0 304.5 -134.5t109.5 -365.5 q0 -257 -127 -415.5t-330 -158.5q-230 0 -340 207z"/>
<glyph glyph-name="uni0186" horiz-adv-x="1272" unicode="Ɔ" d="M135 143q159 -77 355 -77q123 0 228 44.5t181 129t119 206.5t43 278q0 150 -43.5 269.5t-122 202.5t-188.5 127.5t-243 44.5q-84 0 -168.5 -17t-160.5 -51v105q76 26 161 39.5t168 13.5q153 0 281 -49.5t221 -144t145 -231.5t52 -312q0 -170 -50.5 -307.5t-139.5 -235 t-210.5 -150.5t-264.5 -53q-95 0 -185 15t-178 51v102z"/>
<glyph glyph-name="uni0187" horiz-adv-x="1272" unicode="Ƈ" d="M1048 1429q0 118 48.5 178.5t129.5 60.5q28 0 48.5 -4t37.5 -12v-89q-17 6 -35.5 10t-35.5 4q-49 0 -76 -39t-27 -112q0 -18 1 -33.5t3 -30.5t4.5 -31t6.5 -35l-5 -3q-76 34 -160.5 54.5t-168.5 20.5q-270 0 -439 -183q-169 -182 -169 -487q0 -293 161 -463 q162 -169 410 -169q196 0 355 77v-96q-174 -72 -363 -72q-294 0 -480 197q-185 199 -185 516q0 349 201 559q201 211 511 211q83 0 138.5 -9.5t88.5 -19.5z"/>
<glyph glyph-name="uni0188" horiz-adv-x="948" unicode="ƈ" d="M728 1035q0 118 48.5 178.5t129.5 60.5q28 0 48.5 -4t37.5 -12v-82q-17 6 -35.5 10t-35.5 4q-49 0 -76 -42.5t-27 -115.5q0 -18 1 -33.5t3 -30.5t4.5 -31t6.5 -35l-5 -3q-55 34 -113.5 50t-124.5 16q-90 0 -164 -34.5t-127.5 -96t-83 -147t-29.5 -187.5q0 -99 27 -180.5 t76 -139.5t117.5 -89.5t152.5 -31.5q155 0 268 82v-96q-113 -70 -272 -70q-105 0 -190.5 38t-146.5 106.5t-94.5 164t-33.5 210.5q0 121 38.5 223t106.5 176t162.5 115t206.5 41q33 0 62.5 -3t61.5 -11z"/>
<glyph glyph-name="uni0189" horiz-adv-x="1380" unicode="Ɖ" d="M283 1343v-587h403v-88h-403v-578h225q318 0 489.5 165t171.5 478q0 610 -641 610h-245zM184 0v668h-149v88h149v678h359q358 0 543.5 -177.5t185.5 -519.5q0 -332 -201.5 -534.5t-548.5 -202.5h-338z"/>
<glyph glyph-name="uni018A" horiz-adv-x="1476" unicode="Ɗ" d="M379 1343v-1253h225q160 0 283 42t207 124t127.5 201.5t43.5 275.5q0 610 -641 610h-245zM280 0v1343h-32q-81 0 -130.5 -42.5t-49.5 -127.5q0 -55 20 -107h-97q-22 54 -22 122q0 49 16.5 93.5t50.5 78.5t86 54t124 20h393q178 0 314.5 -45t228.5 -133t139 -218t47 -301 q0 -162 -51 -297.5t-148 -233t-236 -152t-315 -54.5h-338z"/>
<glyph glyph-name="uni018B" horiz-adv-x="1102" unicode="Ƌ" d="M195 406q0 -65 20 -122.5t62 -100.5t108 -68t158 -25h276v617h-270q-86 0 -152 -17t-111 -53t-68 -93t-23 -138zM92 414q0 103 35 175.5t95 118.5t139 67.5t166 21.5h292v546h-622v91h721v-1434h-396q-104 0 -184.5 33t-135 89.5t-82.5 131.5t-28 160z"/>
<glyph glyph-name="uni018C" horiz-adv-x="1147" unicode="ƌ" d="M891 623q0 143 -90.5 242.5t-243.5 99.5q-161 0 -266 -123.5t-105 -339.5q0 -212 94.5 -327.5t243.5 -115.5q175 0 271 108.5t96 264.5v191zM891 0v186h-4q-50 -97 -148 -154t-221 -57q-189 0 -308.5 138t-119.5 381q0 248 130.5 401.5t338.5 153.5q230 0 328 -189h4v571 h-700v85h792v-1516h-92z"/>
<glyph glyph-name="uni018D" horiz-adv-x="1184" unicode="ƍ" d="M187 579q0 -87 32 -156t84 -125t118 -101t133 -83q41 13 90.5 31.5t98.5 44.5t95 61t81.5 82t57 107t21.5 137q0 93 -33.5 165.5t-89.5 121.5t-130.5 74.5t-156.5 25.5t-155 -25.5t-127.5 -75t-86.5 -121t-32 -163.5zM90 569q0 106 36 194t102 151.5t160 98.5t210 35 q111 0 202 -36t156.5 -98.5t101.5 -147t36 -181.5q0 -110 -38.5 -195.5t-102 -150t-145 -108.5t-166.5 -72q39 -24 83.5 -53t82.5 -65t63.5 -80.5t25.5 -98.5q0 -53 -23 -97.5t-70 -77t-117.5 -50.5t-165.5 -18q-96 0 -175.5 20.5t-144.5 49.5v106q34 -21 73.5 -38 t80.5 -29.5t83 -19.5t81 -7q75 0 128.5 11t87 31.5t49 48.5t15.5 62q0 44 -21.5 80t-64.5 72t-108 75t-152 89q-82 47 -149 102t-114.5 117t-73.5 132t-26 148z"/>
<glyph glyph-name="uni018E" horiz-adv-x="1024" unicode="Ǝ" d="M137 0v90h604v588h-530v90h530v575h-571v91h670v-1434h-703z"/>
<glyph glyph-name="uni018F" horiz-adv-x="1494" unicode="Ə" d="M1282 672h-1088q5 -276 145 -441t380 -165q241 0 390.5 164.5t172.5 441.5zM89 762h1193q-18 279 -171.5 441t-390.5 162q-234 0 -403 -97v115q158 75 384 75q319 0 501.5 -197t182.5 -544q0 -322 -182 -531.5t-483 -209.5q-303 0 -467 199.5t-164 586.5z"/>
<glyph glyph-name="uni0190" horiz-adv-x="1104" unicode="Ɛ" d="M116 370q0 71 23 135.5t68 115t111 84.5t152 45v4q-143 37 -219 131t-76 233q0 72 27 134.5t79 108t128 71.5t175 26q112 0 196 -26.5t150 -63.5v-98q-69 48 -155 76t-183 28q-81 0 -141 -21t-100 -57.5t-60 -86.5t-20 -107q0 -74 29 -132.5t83 -99.5t130.5 -62.5 t171.5 -21.5h98v-84h-129q-104 0 -186 -19.5t-139 -59t-87 -100.5t-30 -144q0 -71 23.5 -130t72 -101t123.5 -65.5t178 -23.5q114 0 210 32.5t165 79.5v-99q-66 -42 -160.5 -69.5t-225.5 -27.5q-121 0 -211.5 31t-150.5 85t-90 126t-30 153z"/>
<glyph glyph-name="uni0191" horiz-adv-x="952" unicode="Ƒ" d="M184 1434h670v-91h-571v-585h530v-90h-530v-606q0 -423 -285 -423q-49 0 -94 15v96q48 -20 89 -20q103 0 147 79t44 251v1374z"/>
<glyph glyph-name="florin" horiz-adv-x="1055" unicode="ƒ" d="M911 1339q-32 13 -69 13q-178 0 -207 -201l-33 -231h172v-82h-184l-98 -705q-31 -221 -107.5 -316.5t-200.5 -95.5q-34 0 -71 13v82q41 -13 67 -13q176 0 219 324l97 711h-105v82h117l33 231q20 141 96.5 212t191.5 71q45 0 82 -11v-84z"/>
<glyph glyph-name="uni0193" horiz-adv-x="1368" unicode="Ɠ" d="M1096 1429q0 118 48.5 178.5t129.5 60.5q28 0 48.5 -4t37.5 -12v-89q-17 6 -35.5 10t-35.5 4q-49 0 -76 -39t-27 -112t15 -151l-5 -3q-101 48 -196 72t-189 24q-271 0 -436 -185q-164 -185 -164 -472q0 -302 154 -474q154 -171 417 -171q194 0 340 84v473h-338v90h437 v-613q-223 -125 -457 -125q-293 0 -474 199t-181 522q0 326 195 544t521 218q69 0 137 -10t134 -30v11z"/>
<glyph glyph-name="uni0194" horiz-adv-x="1285" unicode="Ɣ" d="M628 42q-21 -38 -39.5 -79t-32.5 -82t-22.5 -80t-8.5 -73q0 -58 26.5 -92t79.5 -34q26 0 45.5 10t32 27t19 40t6.5 49q0 36 -9 75.5t-23.5 80.5t-33.5 81t-40 77zM690 117l34 -69q56 -113 81 -187t25 -123q0 -48 -13.5 -88.5t-39 -70t-63 -45.5t-86.5 -16q-96 0 -148 57 t-52 157q0 35 8.5 73t22 76.5t30 76t33.5 72.5l42 89l-539 1315h111l454 -1124q13 -36 22.5 -70t14.5 -66h4q5 26 15 60t26 78l482 1122h106z"/>
<glyph glyph-name="uni0195" horiz-adv-x="1755" unicode="ƕ" d="M830 438v176q0 182 -62.5 266.5t-195.5 84.5q-125 0 -221 -103q-95 -102 -95 -295v-567h-92v1516h92v-676h4q116 209 337 209q159 0 242 -106.5t83 -307.5v-178q0 -103 21.5 -178t62 -124t98 -72.5t128.5 -23.5q63 0 119.5 25.5t99.5 76.5t68 128.5t25 181.5 q0 144 -35.5 286.5t-95.5 266.5h98q28 -56 51 -120.5t39.5 -134.5t25.5 -143t9 -147q0 -122 -30.5 -216t-84.5 -158t-128 -97t-161 -33q-103 0 -178.5 34.5t-125 96t-74 146.5t-24.5 186z"/>
<glyph glyph-name="uni0196" horiz-adv-x="518" unicode="Ɩ" d="M375 -12q-56 0 -96 18.5t-65.5 52t-37.5 80.5t-12 105v1190h92v-1192q0 -56 14 -89.5t34 -51.5t42 -23.5t39 -5.5q26 0 42 2.5t30 7.5v-80q-22 -8 -43.5 -11t-38.5 -3z"/>
<glyph glyph-name="uni0197" horiz-adv-x="465" unicode="Ɨ" d="M420 688h-141v-688h-92v688h-142v84h142v662h92v-662h141v-84z"/>
<glyph glyph-name="uni0198" horiz-adv-x="1079" unicode="Ƙ" d="M389 746l672 -746h-139l-611 686q-17 19 -24 33h-4v-719h-99v1434h99v-676h4q6 11 13 19.5t13 15.5l308 392q65 83 111 134t82 79t67.5 37.5t67.5 9.5q29 0 48 -4t41 -12v-94q-21 9 -40.5 13.5t-48.5 4.5q-21 0 -41 -7t-44.5 -27t-56.5 -55.5t-77 -92.5z"/>
<glyph glyph-name="uni0199" horiz-adv-x="909" unicode="ƙ" d="M164 1115q0 423 285 423q49 0 94 -15v-88q-45 19 -89 19q-103 0 -150.5 -82t-47.5 -255v-578h4l465 485h119l-486 -496l525 -528h-133l-490 506h-4v-506h-92v1115z"/>
<glyph glyph-name="uni019A" horiz-adv-x="465" unicode="ƚ" d="M420 698h-141v-698h-92v698h-142v84h142v709h92v-709h141v-84z"/>
<glyph glyph-name="uni019B" horiz-adv-x="1020" unicode="ƛ" d="M877 0l-336 922l-404 -922h-100l459 1028l-34 98l-275 -134l-39 80l285 139l-9 28q-12 36 -29 71.5t-42 64t-59 46t-81 17.5q-22 0 -45.5 -4t-46.5 -9v88q25 4 49 6.5t47 2.5q59 0 104 -17t80.5 -51t63 -84.5t51.5 -117.5l276 134l39 -80l-284 -139l428 -1167h-98z"/>
<glyph glyph-name="uni019C" horiz-adv-x="1737" unicode="Ɯ" d="M276 1434v-1020q0 -90 14 -155.5t43.5 -108.5t76 -64t111.5 -21q60 0 113.5 27t93.5 74.5t63.5 113.5t23.5 144v1010h98v-1027q0 -342 257 -342q62 0 114 26.5t90 75t59 116.5t21 151v1000h99v-1434h-99v170h-4q-54 -98 -128.5 -146.5t-177.5 -48.5q-56 0 -104 17t-87 48 t-66.5 74t-41.5 95q-24 -56 -59.5 -99.5t-79 -73.5t-92.5 -45.5t-101 -15.5q-336 0 -336 416v1043h99z"/>
<glyph glyph-name="uni019D" horiz-adv-x="1452" unicode="Ɲ" d="M184 1434h76l848 -1149q28 -38 61 -92h5q-5 70 -5 120v1121h99v-1434h-70l-854 1159q-26 35 -46 70l-13 20h-4q2 -26 2 -63v-1124q0 -423 -285 -423q-49 0 -94 15v96q48 -20 89 -20q103 0 147 79t44 251v1374z"/>
<glyph glyph-name="uni019E" horiz-adv-x="1116" unicode="ƞ" d="M860 -424v1008q0 90 -13.5 160t-45.5 118t-84.5 73.5t-130.5 25.5q-81 0 -143 -33t-103.5 -84.5t-62.5 -116t-21 -127.5v-600h-92v713q0 31 -1.5 71t-5 82t-8.5 83t-12 75h92q3 -15 7 -38t7 -50t5 -55t2 -52h4q34 73 79 116.5t92.5 66.5t94.5 30t86 7q85 0 150 -28.5 t108.5 -82t65.5 -131t22 -174.5v-1057h-92z"/>
<glyph glyph-name="uni019F" horiz-adv-x="1559" unicode="Ɵ" d="M784 1368q-118 0 -219.5 -42.5t-177.5 -121t-122 -191t-53 -251.5h1135q-5 150 -48.5 263.5t-118 189.5t-175.5 114.5t-221 38.5zM772 66q121 0 223.5 38.5t178 114.5t120.5 189.5t52 263.5h-1134q6 -140 48 -252.5t115 -191t174 -120.5t223 -42zM1450 739 q0 -191 -52 -334t-142.5 -238.5t-214 -143.5t-267.5 -48q-162 0 -286 57t-208.5 155.5t-127.5 231t-43 283.5q0 163 45 301.5t132.5 239.5t217 158t297.5 57q149 0 269 -53.5t204.5 -148.5t130 -227.5t45.5 -289.5z"/>
<glyph glyph-name="Ohorn" horiz-adv-x="1559" unicode="Ơ" d="M784 1368q-125 0 -230 -47.5t-181 -134t-119 -207t-43 -266.5q0 -147 40 -266.5t113 -204t176.5 -130.5t231.5 -46q133 0 239.5 44.5t181.5 129.5t115 206.5t40 276.5q0 152 -39.5 271.5t-113 202.5t-178 127t-233.5 44zM774 -25q-152 0 -275 53.5t-209.5 150t-133.5 230 t-47 293.5q0 171 48 310.5t138 238.5t218 153t288 54q219 0 375 -114q22 -3 47.5 -4.5t51.5 -1.5q52 0 89 9.5t60 26.5t33.5 41t10.5 53q0 71 -21 130h104q9 -27 13.5 -60t4.5 -69q0 -112 -65.5 -164.5t-187.5 -52.5h-40q174 -197 174 -513q0 -177 -48 -318.5t-136.5 -240.5 t-213.5 -152t-278 -53z"/>
<glyph glyph-name="ohorn" horiz-adv-x="1149" unicode="ơ" d="M582 965q-90 0 -163 -31.5t-125 -90.5t-80 -144.5t-28 -194.5q0 -100 27 -182t78 -140.5t123.5 -90.5t163.5 -32q93 0 164.5 31t120.5 89.5t74.5 142.5t25.5 190q0 220 -99 336.5t-282 116.5zM575 -25q-113 0 -203 39t-152.5 109.5t-96 168t-33.5 214.5q0 127 35.5 228 t101 171t157 107t202.5 37q96 0 177 -29q21 -2 47 -3t49 -1q52 0 89 9.5t60 26.5t33.5 41t10.5 53q0 71 -21 130h97q9 -27 13.5 -60t4.5 -69q0 -54 -16.5 -93t-48 -65t-76.5 -39.5t-101 -15.5q77 -77 116 -179t39 -245q0 -118 -33 -216t-95.5 -169t-152.5 -110.5t-203 -39.5 z"/>
<glyph glyph-name="uni01A2" horiz-adv-x="1926" unicode="Ƣ" d="M1080 133v1198q-109 17 -188 26t-130 9q-122 0 -223.5 -47t-174 -133t-113 -206t-40.5 -266t39 -265t110.5 -204.5t172 -132t223.5 -46.5q172 0 324 67zM1742 0h-98v1336q-65 -16 -132 -24.5t-141 -8.5q-52 0 -103.5 4t-89.5 11v-1233q-59 -32 -113.5 -53t-108 -33.5 t-106 -17.5t-107.5 -5q-144 0 -261.5 53t-200 148.5t-127.5 228.5t-45 294q0 165 47 304t133 240t207.5 157.5t271.5 56.5q93 0 175.5 -10.5t156.5 -23.5t141 -23.5t129 -10.5q104 0 193 17t179 51v-1458z"/>
<glyph glyph-name="uni01A3" horiz-adv-x="1495" unicode="ƣ" d="M821 930q-73 17 -132.5 25.5t-100.5 8.5q-89 0 -163 -31t-128 -90t-84 -144t-30 -193q0 -105 31 -187.5t87.5 -139.5t134.5 -87t172 -30q125 0 213 43v825zM1331 0h-92v922q-51 -12 -93.5 -18t-88.5 -6q-31 0 -72 2t-72 6v-861q-44 -17 -80 -30t-70.5 -21.5t-71.5 -13 t-83 -4.5q-118 0 -214 37t-163.5 105.5t-104 165.5t-36.5 218q0 125 35.5 226t101 172t159.5 109.5t211 38.5q51 0 112.5 -10t136.5 -29q35 -9 62 -14.5t52 -8.5t51 -4t59 -1t61.5 4t58.5 12.5t63.5 21t77.5 29.5v-1048z"/>
<glyph glyph-name="uni01A4" horiz-adv-x="1210" unicode="Ƥ" d="M379 1343v-677h204q195 0 295.5 92t100.5 262q0 323 -371 323h-229zM379 575v-575h-99v1343h-32q-81 0 -130.5 -42.5t-49.5 -127.5q0 -55 20 -107h-97q-22 54 -22 122q0 49 16.5 93.5t50.5 78.5t86 54t124 20h380q223 0 339 -102t116 -300q0 -99 -33 -182.5t-96.5 -144.5 t-156 -95.5t-210.5 -34.5h-206z"/>
<glyph glyph-name="uni01A5" horiz-adv-x="1147" unicode="ƥ" d="M256 563v-129q0 -155 97 -265q98 -110 255 -110t255 134q98 136 98 354q0 192 -90 305t-240 113q-180 0 -277 -120q-98 -121 -98 -282zM164 1115q0 423 285 423q49 0 94 -15v-88q-45 19 -89 19q-103 0 -150.5 -82t-47.5 -255v-304h4q56 113 157 174q104 62 226 62 q194 0 304 -135q110 -134 110 -365q0 -257 -126 -416q-125 -158 -331 -158q-231 0 -340 207h-4v-653h-92v1586z"/>
<glyph glyph-name="uni01A6" horiz-adv-x="1137" unicode="Ʀ" d="M283 1193v-614h247q163 0 260 86q97 85 97 236q0 138 -86.5 215t-249.5 77h-268zM918 -150l-191 420q-58 129 -118 174q-59 45 -148 45h-178v-489h-99v1434h99v-150h299q191 0 298 -103q109 -102 109 -270q0 -155 -89 -259t-249 -134v-4q85 -34 166 -207l213 -457h-112z "/>
<glyph glyph-name="uni01A7" horiz-adv-x="1018" unicode="Ƨ" d="M565 -25q-110 0 -193 26.5t-139 73t-84 110t-28 137.5q0 88 25.5 151t72 111.5t111.5 88.5t143 81q92 49 152 88t95.5 79.5t49.5 87.5t14 113q0 56 -20.5 101.5t-59 77.5t-93 49.5t-122.5 17.5q-72 0 -146 -14t-137 -43v104q64 22 131.5 32.5t153.5 10.5q87 0 160 -24 t125.5 -68.5t81.5 -106.5t29 -137q0 -80 -21.5 -140t-63.5 -109.5t-104 -92.5t-144 -87q-75 -41 -136 -75.5t-104.5 -74.5t-67 -90.5t-23.5 -122.5q0 -60 22.5 -108.5t66 -83t108 -53.5t148.5 -19q79 0 166 24t161 67v-106q-24 -14 -60 -28t-79.5 -24.5t-92 -17t-98.5 -6.5z "/>
<glyph glyph-name="uni01A8" horiz-adv-x="795" unicode="ƨ" d="M428 -25q-162 0 -244 68.5t-82 191.5q0 60 20.5 106.5t59 83.5t92.5 68t121 60q63 28 104 53t64.5 51t33 54.5t9.5 64.5q0 42 -17 77t-46 59.5t-69 38.5t-86 14q-61 0 -123.5 -18.5t-119.5 -55.5v104q48 27 108.5 40.5t141.5 13.5q67 0 123.5 -19t97 -54.5t63.5 -85.5 t23 -112q0 -51 -14.5 -93t-45 -78t-79 -67.5t-116.5 -61.5q-70 -31 -117.5 -58t-77 -55t-42 -60t-12.5 -73q0 -83 58 -128t167 -45q32 0 71 7t77.5 19.5t73.5 30.5t61 40v-105q-25 -18 -57.5 -32t-69 -23.5t-75.5 -15t-76 -5.5z"/>
<glyph glyph-name="uni01A9" horiz-adv-x="1057" unicode="Ʃ" d="M18 0v35l543 706l-463 645v48h856v-91h-704l430 -600l-498 -653h817v-90h-981z"/>
<glyph glyph-name="uni01AA" horiz-adv-x="606" unicode="ƪ" d="M276 1186q0 135 -31.5 202t-107.5 67q-26 0 -50.5 -9t-44 -28.5t-31 -50.5t-11.5 -76q0 -40 12 -69t32 -48.5t47 -29t57 -9.5q35 0 65.5 6.5t62.5 27.5v17zM276 1082q-25 -16 -60 -23t-67 -7q-52 0 -96 18t-75.5 49.5t-49.5 75t-18 95.5t15.5 97t45 78.5t72 53t96.5 19.5 q66 0 110.5 -25t70.5 -70t37 -106.5t11 -134.5v-1400q0 -106 33.5 -153.5t113.5 -47.5q58 0 123 37v-86q-71 -34 -135 -34q-227 0 -227 272v1292z"/>
<glyph glyph-name="uni01AB" horiz-adv-x="608" unicode="ƫ" d="M434 -20q-227 0 -227 272v688h-184v84h184v266q11 4 22.5 8t23.5 8t23.5 7.5t22.5 7.5v-297h270v-84h-270v-676q0 -106 33.5 -153.5t113.5 -47.5q35 0 74 14.5t68 32.5v-138q0 -71 -14 -132t-47 -106t-86.5 -70.5t-132.5 -25.5q-24 0 -50 3.5t-49 11.5v88 q23 -10 52 -14.5t50 -4.5q41 0 75 8t58.5 34.5t38 75.5t13.5 131v17q-17 -4 -32 -6t-30 -2z"/>
<glyph glyph-name="uni01AC" horiz-adv-x="1047" unicode="Ƭ" d="M573 1343v-1343h-98v1343h-227q-81 0 -130.5 -42.5t-49.5 -127.5q0 -55 20 -107h-97q-22 54 -22 122q0 49 16.5 93.5t50.5 78.5t86 54t124 20h741v-91h-414z"/>
<glyph glyph-name="uni01AD" horiz-adv-x="608" unicode="ƭ" d="M207 1178q0 82 18 148.5t53.5 113.5t89 72.5t124.5 25.5q49 0 94 -15v-88q-45 19 -89 19q-51 0 -88.5 -19.5t-62 -56t-36 -89t-11.5 -117.5v-148h283v-84h-283v-676q0 -106 33.5 -153.5t113.5 -47.5q58 0 123 37v-86q-71 -34 -135 -34q-227 0 -227 272v688h-184v84h184 v154z"/>
<glyph glyph-name="uni01AE" horiz-adv-x="1047" unicode="Ʈ" d="M573 40q0 -86 10.5 -145t34 -96t60 -53t87.5 -16q21 0 43.5 3.5t45.5 13.5v-93q-45 -15 -94 -15q-71 0 -124.5 21.5t-89 68.5t-53.5 121t-18 180v1313h-414v91h926v-91h-414v-1303z"/>
<glyph glyph-name="Uhorn" horiz-adv-x="1362" unicode="Ư" d="M1161 573q0 -598 -510 -598q-485 0 -485 576v883h98v-869q0 -499 406 -499q393 0 393 485v883h68q52 0 89 9.5t60 26.5t33.5 41t10.5 53q0 71 -21 130h104q9 -27 13.5 -60t4.5 -69q0 -112 -65.5 -164.5t-187.5 -52.5h-11v-775z"/>
<glyph glyph-name="uhorn" horiz-adv-x="1121" unicode="ư" d="M932 0h-92v186h-4q-106 -211 -330 -211q-363 0 -363 457v592h93v-569q0 -104 17 -179t51.5 -123t88 -71t127.5 -23q142 0 231 105q89 106 89 280v580h19q105 0 149 35t44 94q0 71 -21 130h97q9 -27 13.5 -60t4.5 -69q0 -51 -15.5 -89t-44 -64t-67.5 -40.5t-87 -18.5v-942 z"/>
<glyph glyph-name="uni01B1" horiz-adv-x="1546" unicode="Ʊ" d="M587 1434v-90q-375 -278 -375 -684q0 -135 39.5 -245t112.5 -187.5t176 -119.5t229 -42q132 0 239 42t182.5 119.5t117 186t41.5 242.5q0 410 -377 688v90h477v-90h-352q354 -269 354 -690q0 -153 -48.5 -278.5t-137 -214t-211.5 -137t-272 -48.5q-153 0 -277.5 47 t-212 134t-135 212t-47.5 281q0 206 96 389q95 184 258 305h-354v90h477z"/>
<glyph glyph-name="uni01B2" horiz-adv-x="1396" unicode="Ʋ" d="M1176 821q0 151 -23.5 253t-61.5 164.5t-85.5 89t-95.5 26.5q-37 0 -64 -5t-60 -15v88q17 6 31.5 10t29 6.5t30.5 4t36 1.5q63 0 127 -30t116 -101.5t84.5 -190.5t32.5 -296q0 -217 -39 -377t-112 -265.5t-178.5 -157t-238.5 -51.5q-528 0 -528 576v883h98v-869 q0 -499 426 -499q115 0 204 44t149 136.5t91 235t31 339.5z"/>
<glyph glyph-name="uni01B3" horiz-adv-x="1157" unicode="Ƴ" d="M598 545v-545h-98v543l-439 891h111l334 -691q19 -38 45 -106h4q2 5 14.5 34.5t33.5 71.5l256 505q34 67 65.5 108t60.5 62.5t55 28.5t50 7q28 0 48.5 -4t37.5 -12v-89q-17 6 -39.5 10t-39.5 4q-15 0 -31 -6t-35 -23.5t-42 -50.5t-51 -87z"/>
<glyph glyph-name="uni01B4" horiz-adv-x="1007" unicode="ƴ" d="M418 -206q-28 -69 -58.5 -121t-67.5 -86t-80.5 -51t-96.5 -17q-44 0 -80 14v92q37 -14 84 -14q61 0 113 44t92 143l84 210l-388 1016h103l292 -790q13 -35 21 -67t12 -47h4l23 78l215 569q25 66 49 116.5t52 84.5t62 51.5t80 17.5q18 0 36.5 -2.5t37.5 -6.5v-88 q-17 5 -34.5 9t-33.5 4q-27 0 -47.5 -12.5t-38.5 -37t-35 -62t-36 -87.5z"/>
<glyph glyph-name="uni01B5" horiz-adv-x="1168" unicode="Ƶ" d="M215 90h858v-90h-1007v31l432 653h-223v88h281l378 571h-799v91h952v-27l-421 -635h260v-88h-318z"/>
<glyph glyph-name="uni01B6" horiz-adv-x="950" unicode="ƶ" d="M207 84h661v-84h-811v35l333 443h-164v84h227l284 378h-631v84h787v-25l-328 -437h166v-84h-229z"/>
<glyph glyph-name="uni01B7" horiz-adv-x="1228" unicode="Ʒ" d="M446 656q154 -9 279.5 -50.5t214 -113t136.5 -170.5t48 -223q0 -125 -45.5 -231t-131 -184t-208.5 -122t-278 -44q-132 0 -234 15t-194 51v102q42 -19 87.5 -33.5t98 -24t112.5 -14.5t132 -5q131 0 235 35.5t177 99.5t111.5 152.5t38.5 194.5q0 112 -46.5 202t-133.5 153 t-211 97t-280 34h-31v60l558 706h-799v91h952v-32z"/>
<glyph glyph-name="uni01B8" horiz-adv-x="1228" unicode="Ƹ" d="M196 1402v32h952v-91h-799l558 -706v-60h-31q-156 0 -280 -34t-211 -97t-133.5 -153t-46.5 -202q0 -106 38.5 -194.5t111.5 -152.5t177 -99.5t235 -35.5q72 0 132 5t112.5 14.5t98 24t87.5 33.5v-102q-92 -36 -194 -51t-234 -15q-155 0 -278 44t-208.5 122t-131 184 t-45.5 231q0 124 48 223t136.5 170.5t213.5 113t280 50.5z"/>
<glyph glyph-name="uni01B9" horiz-adv-x="936" unicode="ƹ" d="M110 999v25h787v-84h-631l447 -585v-24h-121q-102 0 -187 -26t-146 -74.5t-95 -119t-34 -159.5q0 -81 29.5 -145.5t84.5 -109t134.5 -68.5t180.5 -24q64 0 117 5t99 15.5t85.5 25.5t75.5 36v-96q-70 -35 -158.5 -52.5t-213.5 -17.5q-126 0 -224.5 29t-166 84t-103 135 t-35.5 181q0 107 38.5 190.5t108 142.5t166.5 92.5t213 40.5z"/>
<glyph glyph-name="uni01BA" horiz-adv-x="838" unicode="ƺ" d="M449 595q69 0 130 -16.5t106 -49t71 -80t26 -109.5q0 -54 -17.5 -101t-56 -87.5t-100 -73.5t-148.5 -60q-94 -28 -157 -53t-101 -52t-54 -59t-16 -73q0 -39 17.5 -71.5t50.5 -55.5t81 -36t108 -13q36 0 76.5 5.5t81 16t78 26.5t67.5 36v-98q-55 -33 -132 -51.5 t-178 -18.5q-76 0 -139.5 17.5t-109.5 51t-71.5 82t-25.5 109.5q0 69 31.5 117.5t84.5 83.5t122 60.5t143 48.5q89 28 142.5 55.5t82 56.5t37.5 60.5t9 67.5q0 37 -13 70t-43.5 57.5t-82 39t-128.5 14.5l-120 -1v30l311 399h-570v84h718v-25z"/>
<glyph glyph-name="uni01BB" horiz-adv-x="1067" unicode="ƻ" d="M82 0v98l391 416q16 17 31 33t29 32h-305v91h386q47 54 80 97.5t53 75.5q66 106 66 236q0 141 -77.5 218t-221.5 77q-189 0 -358 -149v108q164 125 370 125q92 0 163.5 -26t120 -74t74 -115t25.5 -149q0 -147 -71 -268q-37 -63 -115 -156h200v-91h-278q-25 -28 -52.5 -58 t-57.5 -62l-351 -371v-4h777v-84h-879z"/>
<glyph glyph-name="uni01BC" horiz-adv-x="1084" unicode="Ƽ" d="M897 1350h-515l-68 -510q29 2 51.5 3.5t39.5 2.5t31 1.5t26 0.5q122 0 215 -28.5t155.5 -83t94 -133t31.5 -177.5q0 -100 -34 -183t-99.5 -142.5t-161 -92.5t-219.5 -33q-168 0 -286 54v106q149 -76 297 -76q96 0 171.5 25.5t128 72t80 112t27.5 145.5q0 350 -425 350 q-96 0 -225 -12l77 598h-179v84h787v-84z"/>
<glyph glyph-name="uni01BD" horiz-adv-x="778" unicode="ƽ" d="M91 24v101q51 -28 111.5 -47t135.5 -19q58 0 104.5 17t79.5 47.5t50.5 73.5t17.5 95q0 51 -16.5 92t-48 70t-76.5 44.5t-102 15.5q-17 0 -39 -1t-47 -3t-51 -4.5t-50 -5.5l69 440h-123v84h553v-84h-352l-52 -351q27 5 47.5 7t49.5 2q80 0 142.5 -22t105 -62t65 -95.5 t22.5 -122.5q0 -71 -26 -130t-72.5 -101t-109.5 -65.5t-138 -23.5q-45 0 -80 3t-64.5 9t-55 15t-50.5 21z"/>
<glyph glyph-name="uni01BE" horiz-adv-x="807" unicode="ƾ" d="M303 787q0 -36 7 -66t27.5 -57.5t59 -54t101.5 -56.5q60 -29 107.5 -57t81 -62t51.5 -77t18 -101q0 -60 -24.5 -111.5t-69.5 -89t-108.5 -59t-141.5 -21.5q-93 0 -159.5 17.5t-119.5 52.5v111q27 -22 62 -40t72.5 -30.5t74.5 -19.5t67 -7q120 0 185.5 48.5t65.5 143.5 q0 36 -12 65.5t-37 55t-64 49.5t-94 50q-68 32 -114.5 65t-75 70t-40.5 78.5t-12 90.5v165h-184v84h184v266q23 8 46.5 15.5t45.5 15.5v-297h270v-84h-270v-153z"/>
<glyph glyph-name="uni01BF" horiz-adv-x="1118" unicode="ƿ" d="M959 700q0 60 -21.5 108.5t-59.5 83t-89.5 53t-111.5 18.5q-65 0 -123 -17t-110.5 -45.5t-99 -65.5t-88.5 -77v-712q155 57 280.5 127.5t223.5 159.5q98 90 148.5 178.5t50.5 188.5zM256 -45v-426h-92v1495h92v-162q42 37 87.5 71t98 59.5t111.5 41t128 15.5 q83 0 151.5 -25.5t118 -71t77 -108.5t27.5 -138q0 -223 -213 -422q-53 -50 -121 -97.5t-144.5 -89.5t-158.5 -78.5t-162 -63.5z"/>
<glyph glyph-name="uni01C0" horiz-adv-x="463" unicode="ǀ" d="M184 -481v2048h95v-2048h-95z"/>
<glyph glyph-name="uni01C1" horiz-adv-x="742" unicode="ǁ" d="M463 -481v2048h95v-2048h-95zM184 -481v2048h95v-2048h-95z"/>
<glyph glyph-name="uni01C2" horiz-adv-x="934" unicode="ǂ" d="M419 -481v843h-365v84h365v304h-365v84h365v733h95v-733h367v-84h-367v-304h367v-84h-367v-843h-95z"/>
<glyph glyph-name="uni01C3" horiz-adv-x="582" unicode="ǃ" d="M291 -18q-34 0 -57 23.5t-23 57.5q0 35 23 57.5t57 22.5t58 -22.5t24 -57.5q0 -34 -24 -57.5t-58 -23.5zM332 403h-86l-10 1031h106z"/>
<glyph glyph-name="uni01C4" horiz-adv-x="2499" unicode="Ǆ" d="M283 1343v-1253h225q319 0 490 165.5t171 477.5q0 610 -641 610h-245zM184 0v1434h359q357 0 543 -178t186 -519q0 -328 -199.5 -532.5t-550.5 -204.5h-338zM1547 90h858v-90h-1007v31l868 1312h-799v91h952v-27zM1956 1530h-45l-220 336h86l158 -240l160 240h82z"/>
<glyph glyph-name="uni01C5" horiz-adv-x="2312" unicode="ǅ" d="M283 1343v-1253h225q319 0 490 165.5t171 477.5q0 610 -641 610h-245zM184 0v1434h359q357 0 543 -178t186 -519q0 -328 -199.5 -532.5t-550.5 -204.5h-338zM1569 84h661v-84h-811v35l680 905h-631v84h787v-25zM1889 1188h-45l-220 336h86l158 -240l160 240h82z"/>
<glyph glyph-name="uni01C6" horiz-adv-x="2039" unicode="ǆ" d="M891 623q0 143 -90.5 242.5t-243.5 99.5q-161 0 -266 -123.5t-105 -339.5q0 -212 94.5 -327.5t243.5 -115.5q175 0 271 108.5t96 264.5v191zM891 0v186h-4q-50 -97 -148 -154t-221 -57q-189 0 -308.5 138t-119.5 381q0 248 130.5 401.5t338.5 153.5q230 0 328 -189h4v656 h92v-1516h-92zM1296 84h661v-84h-811v35l680 905h-631v84h787v-25zM1617 1188h-45l-220 336h86l158 -240l160 240h82z"/>
<glyph glyph-name="uni01C7" horiz-adv-x="1602" unicode="Ǉ" d="M184 0v1434h99v-1344h575v-90h-674zM1425 494q0 -519 -360 -519q-56 0 -109 15v96q59 -20 111 -20q138 0 199 104.5t61 325.5v938h98v-940z"/>
<glyph glyph-name="uni01C8" horiz-adv-x="1379" unicode="ǈ" d="M184 0v1434h99v-1344h575v-90h-674zM1215 29q0 -510 -362 -510q-72 0 -146 35v96q80 -47 156 -47q260 0 260 409v1012h92v-995zM1168 1282q-30 0 -53 22t-23 56q0 33 23.5 53.5t52.5 20.5q31 0 54.5 -20t23.5 -54q0 -32 -23 -55t-55 -23z"/>
<glyph glyph-name="uni01C9" horiz-adv-x="840" unicode="ǉ" d="M164 0v1516h92v-1516h-92zM676 29q0 -510 -362 -510q-72 0 -146 35v96q80 -47 156 -47q260 0 260 409v1012h92v-995zM629 1282q-30 0 -53 22t-23 56q0 33 23.5 53.5t52.5 20.5q31 0 54.5 -20t23.5 -54q0 -32 -23 -55t-55 -23z"/>
<glyph glyph-name="uni01CA" horiz-adv-x="2116" unicode="Ǌ" d="M1198 0l-854 1159q-26 35 -46 70l-13 20h-4q2 -26 2 -63v-1186h-99v1434h76l848 -1149q28 -38 61 -92h5q-5 70 -5 120v1121h99v-1434h-70zM1939 494q0 -519 -360 -519q-56 0 -109 15v96q59 -20 111 -20q138 0 199 104.5t61 325.5v938h98v-940z"/>
<glyph glyph-name="uni01CB" horiz-adv-x="1865" unicode="ǋ" d="M1198 0l-854 1159q-26 35 -46 70l-13 20h-4q2 -26 2 -63v-1186h-99v1434h76l848 -1149q28 -38 61 -92h5q-5 70 -5 120v1121h99v-1434h-70zM1701 29q0 -510 -362 -510q-72 0 -146 35v96q80 -47 156 -47q260 0 260 409v1012h92v-995zM1654 1282q-30 0 -53 22t-23 56 q0 33 23.5 53.5t52.5 20.5q31 0 54.5 -20t23.5 -54q0 -32 -23 -55t-55 -23z"/>
<glyph glyph-name="uni01CC" horiz-adv-x="1516" unicode="ǌ" d="M860 0v596q0 369 -266 369q-148 0 -243 -108.5t-95 -268.5v-588h-92v1024h92v-186h4q112 211 350 211q166 0 254 -110.5t88 -315.5v-623h-92zM1352 29q0 -510 -362 -510q-72 0 -146 35v96q80 -47 156 -47q260 0 260 409v1012h92v-995zM1305 1282q-30 0 -53 22t-23 56 q0 33 23.5 53.5t52.5 20.5q31 0 54.5 -20t23.5 -54q0 -32 -23 -55t-55 -23z"/>
<glyph glyph-name="uni01CD" horiz-adv-x="1288" unicode="Ǎ" d="M678 1200q-11 30 -18 59q-7 25 -15 50h-4q-17 -66 -33 -107l-241 -665h553zM1118 0l-164 446h-622l-164 -446h-109l541 1434h94l535 -1434h-111zM665 1530h-45l-220 336h86l158 -240l160 240h82z"/>
<glyph glyph-name="uni01CE" horiz-adv-x="1012" unicode="ǎ" d="M494 510q-161 -23 -226 -74.5t-65 -167.5q0 -91 60.5 -150t168.5 -59q148 0 246 109.5t98 282.5v100zM776 0v205h-4q-49 -105 -142.5 -167.5t-207.5 -62.5q-146 0 -231 82t-85 207q0 268 355 324l315 47q0 330 -248 330q-169 0 -329 -136v111q57 45 154.5 77t183.5 32 q158 0 244.5 -98t86.5 -285v-666h-92zM539 1188h-45l-220 336h86l158 -240l160 240h82z"/>
<glyph glyph-name="uni01CF" horiz-adv-x="463" unicode="Ǐ" d="M421 1434v-90h-140v-1254h140v-90h-379v90h140v1254h-140v90h379zM255 1530h-45l-220 336h86l158 -240l160 240h82z"/>
<glyph glyph-name="uni01D0" horiz-adv-x="420" unicode="ǐ" d="M164 0v1024h92v-1024h-92zM232 1188h-45l-220 336h86l158 -240l160 240h82z"/>
<glyph glyph-name="uni01D1" horiz-adv-x="1559" unicode="Ǒ" d="M784 1368q-250 0 -411.5 -181t-161.5 -474q0 -296 153 -471.5t408 -175.5q266 0 421 173.5t155 483.5q0 304 -151.5 474.5t-412.5 170.5zM774 -25q-304 0 -484.5 202t-180.5 525q0 343 185.5 549.5t506.5 206.5q290 0 469.5 -198.5t179.5 -520.5q0 -356 -184 -560 t-492 -204zM824 1530h-45l-220 336h86l158 -240l160 240h82z"/>
<glyph glyph-name="uni01D2" horiz-adv-x="1149" unicode="ǒ" d="M582 965q-181 0 -288.5 -122t-107.5 -339q0 -201 105 -323t287 -122q185 0 285 120t100 333q0 219 -99.5 336t-281.5 117zM575 -25q-224 0 -354.5 147.5t-130.5 383.5q0 255 136.5 399t359.5 144q219 0 346 -143t127 -396q0 -239 -129.5 -387t-354.5 -148zM612 1188h-45 l-220 336h86l158 -240l160 240h82z"/>
<glyph glyph-name="uni01D3" horiz-adv-x="1327" unicode="Ǔ" d="M1161 573q0 -598 -510 -598q-485 0 -485 576v883h98v-869q0 -499 406 -499q393 0 393 485v883h98v-861zM691 1530h-45l-220 336h86l158 -240l160 240h82z"/>
<glyph glyph-name="uni01D4" horiz-adv-x="1096" unicode="ǔ" d="M840 0v186h-4q-107 -211 -330 -211q-363 0 -363 457v592h93v-569q0 -208 68.5 -302t215.5 -94q143 0 231.5 105t88.5 280v580h92v-1024h-92zM560 1188h-45l-220 336h86l158 -240l160 240h82z"/>
<glyph glyph-name="uni01D5" horiz-adv-x="1327" unicode="Ǖ" d="M1161 573q0 -598 -510 -598q-485 0 -485 576v883h98v-869q0 -499 406 -499q393 0 393 485v883h98v-861zM502 1681q31 0 52 -20.5t21 -51.5q0 -30 -23 -49.5t-52 -19.5q-26 0 -48 19t-22 50q0 33 22 52.5t50 19.5zM835 1681q31 0 52.5 -20.5t21.5 -51.5q0 -30 -23.5 -49.5 t-52.5 -19.5q-26 0 -47.5 19t-21.5 50q0 33 22 52.5t49 19.5zM925 1896v-84h-508v84h508z"/>
<glyph glyph-name="uni01D6" horiz-adv-x="1096" unicode="ǖ" d="M840 0v186h-4q-107 -211 -330 -211q-363 0 -363 457v592h93v-569q0 -208 68.5 -302t215.5 -94q143 0 231.5 105t88.5 280v580h92v-1024h-92zM371 1329q31 0 52 -20.5t21 -51.5q0 -30 -23 -49.5t-52 -19.5q-26 0 -48 19t-22 50q0 33 22 52.5t50 19.5zM704 1329 q31 0 52.5 -20.5t21.5 -51.5q0 -30 -23.5 -49.5t-52.5 -19.5q-26 0 -47.5 19t-21.5 50q0 33 22 52.5t49 19.5zM794 1544v-84h-508v84h508z"/>
<glyph glyph-name="uni01D7" horiz-adv-x="1327" unicode="Ǘ" d="M1161 573q0 -598 -510 -598q-485 0 -485 576v883h98v-869q0 -499 406 -499q393 0 393 485v883h98v-861zM504 1540q-28 0 -50 19.5t-22 52.5q0 31 22 50t48 19q29 0 52 -19.5t23 -49.5q0 -31 -21 -51.5t-52 -20.5zM837 1540q-27 0 -49 19.5t-22 52.5q0 31 21.5 50t47.5 19 q29 0 52.5 -19.5t23.5 -49.5q0 -31 -21.5 -51.5t-52.5 -20.5zM682 1722h-90l234 246h104z"/>
<glyph glyph-name="uni01D8" horiz-adv-x="1096" unicode="ǘ" d="M840 0v186h-4q-107 -211 -330 -211q-363 0 -363 457v592h93v-569q0 -208 68.5 -302t215.5 -94q143 0 231.5 105t88.5 280v580h92v-1024h-92zM374 1188q-28 0 -50 19.5t-22 52.5q0 31 22 50t48 19q29 0 52 -19.5t23 -49.5q0 -31 -21 -51.5t-52 -20.5zM707 1188 q-27 0 -49 19.5t-22 52.5q0 31 21.5 50t47.5 19q29 0 52.5 -19.5t23.5 -49.5q0 -31 -21.5 -51.5t-52.5 -20.5zM552 1370h-90l234 246h104z"/>
<glyph glyph-name="uni01D9" horiz-adv-x="1327" unicode="Ǚ" d="M1161 573q0 -598 -510 -598q-485 0 -485 576v883h98v-869q0 -499 406 -499q393 0 393 485v883h98v-861zM497 1540q-28 0 -50 19.5t-22 52.5q0 31 22 50t48 19q29 0 52 -19.5t23 -49.5q0 -31 -21 -51.5t-52 -20.5zM830 1540q-27 0 -49 19.5t-22 52.5q0 31 21.5 50t47.5 19 q29 0 52.5 -19.5t23.5 -49.5q0 -31 -21.5 -51.5t-52.5 -20.5zM945 2138l-213 -330h-133l-215 330h115l164 -230l164 230h118z"/>
<glyph glyph-name="uni01DA" horiz-adv-x="1096" unicode="ǚ" d="M840 0v186h-4q-107 -211 -330 -211q-363 0 -363 457v592h93v-569q0 -208 68.5 -302t215.5 -94q143 0 231.5 105t88.5 280v580h92v-1024h-92zM560 1458h-45l-220 336h86l158 -240l160 240h82zM372 1188q-28 0 -50 19.5t-22 52.5q0 31 22 50t48 19q29 0 52 -19.5t23 -49.5 q0 -31 -21 -51.5t-52 -20.5zM705 1188q-27 0 -49 19.5t-22 52.5q0 31 21.5 50t47.5 19q29 0 52.5 -19.5t23.5 -49.5q0 -31 -21.5 -51.5t-52.5 -20.5z"/>
<glyph glyph-name="uni01DB" horiz-adv-x="1327" unicode="Ǜ" d="M1161 573q0 -598 -510 -598q-485 0 -485 576v883h98v-869q0 -499 406 -499q393 0 393 485v883h98v-861zM857 1540q-31 0 -52 20.5t-21 51.5q0 30 23 49.5t52 19.5q26 0 48 -19t22 -50q0 -33 -22 -52.5t-50 -19.5zM524 1540q-31 0 -52.5 20.5t-21.5 51.5q0 30 23.5 49.5 t52.5 19.5q26 0 47.5 -19t21.5 -50q0 -33 -22 -52.5t-49 -19.5zM431 1968h104l234 -246h-90z"/>
<glyph glyph-name="uni01DC" horiz-adv-x="1096" unicode="ǜ" d="M840 0v186h-4q-107 -211 -330 -211q-363 0 -363 457v592h93v-569q0 -208 68.5 -302t215.5 -94q143 0 231.5 105t88.5 280v580h92v-1024h-92zM733 1188q-31 0 -52 20.5t-21 51.5q0 30 23 49.5t52 19.5q26 0 48 -19t22 -50q0 -33 -22 -52.5t-50 -19.5zM400 1188 q-31 0 -52.5 20.5t-21.5 51.5q0 30 23.5 49.5t52.5 19.5q26 0 47.5 -19t21.5 -50q0 -33 -22 -52.5t-49 -19.5zM307 1616h104l234 -246h-90z"/>
<glyph glyph-name="uni01DD" horiz-adv-x="1034" unicode="ǝ" d="M186 432q6 -177 85 -275t218 -98q144 0 238.5 96.5t116.5 276.5h-658zM848 516q0 211 -97.5 330t-267.5 119q-172 0 -336 -127v98q159 113 355 113q198 0 320 -142t122 -401q0 -224 -127.5 -377.5t-331.5 -153.5q-191 0 -293 134t-102 366v41h758z"/>
<glyph glyph-name="uni01DE" horiz-adv-x="1288" unicode="Ǟ" d="M678 1200q-11 30 -18 59q-7 25 -15 50h-4q-17 -66 -33 -107l-241 -665h553zM1118 0l-164 446h-622l-164 -446h-109l541 1434h94l535 -1434h-111zM472 1681q31 0 52 -20.5t21 -51.5q0 -30 -23 -49.5t-52 -19.5q-26 0 -48 19t-22 50q0 33 22 52.5t50 19.5zM805 1681 q31 0 52.5 -20.5t21.5 -51.5q0 -30 -23.5 -49.5t-52.5 -19.5q-26 0 -47.5 19t-21.5 50q0 33 22 52.5t49 19.5zM895 1896v-84h-508v84h508z"/>
<glyph glyph-name="uni01DF" horiz-adv-x="1012" unicode="ǟ" d="M494 510q-161 -23 -226 -74.5t-65 -167.5q0 -91 60.5 -150t168.5 -59q148 0 246 109.5t98 282.5v100zM776 0v205h-4q-49 -105 -142.5 -167.5t-207.5 -62.5q-146 0 -231 82t-85 207q0 268 355 324l315 47q0 330 -248 330q-169 0 -329 -136v111q57 45 154.5 77t183.5 32 q158 0 244.5 -98t86.5 -285v-666h-92zM340 1329q31 0 52 -20.5t21 -51.5q0 -30 -23 -49.5t-52 -19.5q-26 0 -48 19t-22 50q0 33 22 52.5t50 19.5zM673 1329q31 0 52.5 -20.5t21.5 -51.5q0 -30 -23.5 -49.5t-52.5 -19.5q-26 0 -47.5 19t-21.5 50q0 33 22 52.5t49 19.5z M763 1544v-84h-508v84h508z"/>
<glyph glyph-name="uni01E0" horiz-adv-x="1288" unicode="Ǡ" d="M678 1200q-11 30 -18 59q-7 25 -15 50h-4q-17 -66 -33 -107l-241 -665h553zM1118 0l-164 446h-622l-164 -446h-109l541 1434h94l535 -1434h-111zM899 1901v-84h-508v84h508zM644 1545q-31 0 -54.5 22t-23.5 56t23.5 53.5t52.5 19.5q31 0 55.5 -19.5t24.5 -53.5 q0 -32 -23 -55t-55 -23z"/>
<glyph glyph-name="uni01E1" horiz-adv-x="1012" unicode="ǡ" d="M494 510q-161 -23 -226 -74.5t-65 -167.5q0 -91 60.5 -150t168.5 -59q148 0 246 109.5t98 282.5v100zM776 0v205h-4q-49 -105 -142.5 -167.5t-207.5 -62.5q-146 0 -231 82t-85 207q0 268 355 324l315 47q0 330 -248 330q-169 0 -329 -136v111q57 45 154.5 77t183.5 32 q158 0 244.5 -98t86.5 -285v-666h-92zM519 1188q-31 0 -54.5 22t-23.5 56t23.5 53.5t52.5 19.5q31 0 55.5 -19.5t24.5 -53.5q0 -32 -23 -55t-55 -23zM772 1544v-84h-508v84h508z"/>
<glyph glyph-name="uni01E2" horiz-adv-x="1706" unicode="Ǣ" d="M846 1337h-78l-383 -800h461v800zM846 0v446h-502l-219 -446h-109l697 1434h803v-97h-572v-571h531v-90h-531v-586h604v-90h-702zM783 1537v84h508v-84h-508z"/>
<glyph glyph-name="uni01E3" horiz-adv-x="1718" unicode="ǣ" d="M776 508l-264 -8q-156 -5 -232.5 -58.5t-76.5 -173.5q0 -98 63.5 -153.5t171.5 -55.5q136 0 237 107.5t101 259.5v82zM1530 592q-6 177 -85 275t-218 98q-144 0 -238.5 -96.5t-116.5 -276.5h658zM868 508q0 -211 97.5 -330t267.5 -119q172 0 336 127v-98 q-159 -113 -355 -113q-136 0 -240 74.5t-151 210.5h-4q-133 -285 -391 -285q-150 0 -236 80.5t-86 208.5q0 143 99 225t287 91l284 12q0 373 -239 373q-186 0 -338 -134v109q161 109 348 109q230 0 295 -254h4q126 254 383 254q190 0 293.5 -133t103.5 -367v-41h-758z M597 1188v84h508v-84h-508z"/>
<glyph glyph-name="uni01E4" horiz-adv-x="1405" unicode="Ǥ" d="M1221 100q-223 -125 -457 -125q-146 0 -266.5 52.5t-207 147.5t-134 227.5t-47.5 293.5q0 326 195 544t521 218q190 0 367 -76v-108q-194 94 -381 94q-135 0 -246 -49t-189.5 -137t-121.5 -208.5t-43 -262.5q0 -150 40 -269.5t114 -203t179.5 -128t237.5 -44.5 q194 0 340 84v174h-335v88h335v211h-338v90h437v-301h184v-88h-184v-224z"/>
<glyph glyph-name="uni01E5" horiz-adv-x="1147" unicode="ǥ" d="M891 631q0 67 -24 127.5t-67.5 106.5t-104.5 73t-134 27q-85 0 -154 -33.5t-118 -94.5t-76 -146.5t-27 -188.5q0 -105 24.5 -187t69.5 -139t108.5 -87t141.5 -30q83 0 149.5 29t113.5 79t72.5 117t25.5 144v203zM983 76q0 -109 -18 -197h153v-84h-177q-30 -85 -84 -142 q-126 -134 -392 -134q-148 0 -305 78v96q162 -90 307 -90q277 0 373 192h-284v84h315q20 78 20 172v133h-4q-122 -209 -369 -209q-94 0 -172.5 35t-135.5 102t-88.5 163t-31.5 219q0 121 33.5 223t95 175.5t148 115t192.5 41.5q226 0 328 -187h4v162h92v-948z"/>
<glyph glyph-name="uni01E6" horiz-adv-x="1368" unicode="Ǧ" d="M1221 100q-222 -125 -457 -125q-293 0 -474 199t-181 522q0 326 195 544t521 218q189 0 367 -76v-108q-195 94 -381 94q-271 0 -435.5 -185t-164.5 -472q0 -302 154.5 -473.5t416.5 -171.5q194 0 340 84v473h-338v90h437v-613zM779 1530h-45l-220 336h86l158 -240 l160 240h82z"/>
<glyph glyph-name="uni01E7" horiz-adv-x="1147" unicode="ǧ" d="M891 631q0 136 -91.5 235t-238.5 99q-169 0 -272 -127t-103 -336q0 -210 94.5 -326.5t249.5 -116.5q165 0 263 107t98 262v203zM983 76q0 -289 -126 -423t-392 -134q-148 0 -305 78v96q162 -90 307 -90q424 0 424 448v133h-4q-121 -209 -369 -209q-189 0 -308.5 137 t-119.5 382t129 400t340 155q226 0 328 -187h4v162h92v-948zM606 1188h-45l-220 336h86l158 -240l160 240h82z"/>
<glyph glyph-name="uni01E8" horiz-adv-x="1079" unicode="Ǩ" d="M922 0l-611 686q-17 19 -24 33h-4v-719h-99v1434h99v-676h4q12 21 26 35l580 641h129l-629 -695l668 -739h-139zM605 1530h-45l-220 336h86l158 -240l160 240h82z"/>
<glyph glyph-name="uni01E9" horiz-adv-x="909" unicode="ǩ" d="M750 0l-490 506h-4v-506h-92v1516h92v-977h4l465 485h119l-486 -496l525 -528h-133zM541 1530h-45l-220 336h86l158 -240l160 240h82z"/>
<glyph glyph-name="uni01EA" horiz-adv-x="1559" unicode="Ǫ" d="M784 1368q-250 0 -411.5 -181t-161.5 -474q0 -296 153 -471.5t408 -175.5q266 0 421 173.5t155 483.5q0 304 -151.5 474.5t-412.5 170.5zM774 -25q-304 0 -484.5 202t-180.5 525q0 343 185.5 549.5t506.5 206.5q290 0 469.5 -198.5t179.5 -520.5q0 -356 -184 -560 t-492 -204zM916 0q-170 -135 -170 -240q0 -88 84 -88q38 0 80 17v-70q-49 -18 -94 -18q-70 0 -113 40.5t-43 112.5q0 55 42.5 122t125.5 124h88z"/>
<glyph glyph-name="uni01EB" horiz-adv-x="1149" unicode="ǫ" d="M582 965q-181 0 -288.5 -122t-107.5 -339q0 -201 105 -323t287 -122q185 0 285 120t100 333q0 219 -99.5 336t-281.5 117zM575 -25q-224 0 -354.5 147.5t-130.5 383.5q0 255 136.5 399t359.5 144q219 0 346 -143t127 -396q0 -239 -129.5 -387t-354.5 -148zM705 0 q-170 -135 -170 -240q0 -88 84 -88q38 0 80 17v-70q-49 -18 -94 -18q-70 0 -113 40.5t-43 112.5q0 55 42.5 122t125.5 124h88z"/>
<glyph glyph-name="uni01EC" horiz-adv-x="1559" unicode="Ǭ" d="M784 1368q-250 0 -411.5 -181t-161.5 -474q0 -296 153 -471.5t408 -175.5q266 0 421 173.5t155 483.5q0 304 -151.5 474.5t-412.5 170.5zM774 -25q-304 0 -484.5 202t-180.5 525q0 343 185.5 549.5t506.5 206.5q290 0 469.5 -198.5t179.5 -520.5q0 -356 -184 -560 t-492 -204zM527 1537v84h508v-84h-508zM916 0q-170 -135 -170 -240q0 -88 84 -88q38 0 80 17v-70q-49 -18 -94 -18q-70 0 -113 40.5t-43 112.5q0 55 42.5 122t125.5 124h88z"/>
<glyph glyph-name="uni01ED" horiz-adv-x="1149" unicode="ǭ" d="M582 965q-181 0 -288.5 -122t-107.5 -339q0 -201 105 -323t287 -122q185 0 285 120t100 333q0 219 -99.5 336t-281.5 117zM575 -25q-224 0 -354.5 147.5t-130.5 383.5q0 255 136.5 399t359.5 144q219 0 346 -143t127 -396q0 -239 -129.5 -387t-354.5 -148zM321 1188v84 h508v-84h-508zM705 0q-170 -135 -170 -240q0 -88 84 -88q38 0 80 17v-70q-49 -18 -94 -18q-70 0 -113 40.5t-43 112.5q0 55 42.5 122t125.5 124h88z"/>
<glyph glyph-name="uni01EE" horiz-adv-x="1228" unicode="Ǯ" d="M446 656q154 -9 279.5 -50.5t214 -113t136.5 -170.5t48 -223q0 -125 -45.5 -231t-131 -184t-208.5 -122t-278 -44q-132 0 -234 15t-194 51v102q42 -19 87.5 -33.5t98 -24t112.5 -14.5t132 -5q131 0 235 35.5t177 99.5t111.5 152.5t38.5 194.5q0 112 -46.5 202t-133.5 153 t-211 97t-280 34h-31v60l558 706h-799v91h952v-32zM565 1530h-45l-220 336h86l158 -240l160 240h82z"/>
<glyph glyph-name="uni01EF" horiz-adv-x="936" unicode="ǯ" d="M375 416q116 -7 213 -40.5t166.5 -92.5t108 -142.5t38.5 -190.5q0 -101 -35.5 -181t-103 -135t-166 -84t-224.5 -29q-125 0 -213.5 17.5t-158.5 52.5v96q36 -21 75.5 -36t85 -25.5t99 -15.5t117.5 -5q100 0 180 24t135 68.5t84.5 109t29.5 145.5q0 89 -34 159.5t-95 119 t-146 74.5t-187 26h-121v24l447 585h-631v84h787v-25zM443 1188h-45l-220 336h86l158 -240l160 240h82z"/>
<glyph glyph-name="uni01F0" horiz-adv-x="420" unicode="ǰ" d="M256 29q0 -510 -362 -510q-72 0 -146 35v96q80 -47 156 -47q260 0 260 409v1012h92v-995zM231 1188h-45l-220 336h86l158 -240l160 240h82z"/>
<glyph glyph-name="uni01F1" horiz-adv-x="2499" unicode="Ǳ" d="M283 1343v-1253h225q319 0 490 165.5t171 477.5q0 610 -641 610h-245zM184 0v1434h359q357 0 543 -178t186 -519q0 -328 -199.5 -532.5t-550.5 -204.5h-338zM1547 90h858v-90h-1007v31l868 1312h-799v91h952v-27z"/>
<glyph glyph-name="uni01F2" horiz-adv-x="2312" unicode="ǲ" d="M283 1343v-1253h225q319 0 490 165.5t171 477.5q0 610 -641 610h-245zM184 0v1434h359q357 0 543 -178t186 -519q0 -328 -199.5 -532.5t-550.5 -204.5h-338zM1569 84h661v-84h-811v35l680 905h-631v84h787v-25z"/>
<glyph glyph-name="uni01F3" horiz-adv-x="2039" unicode="ǳ" d="M891 623q0 143 -90.5 242.5t-243.5 99.5q-161 0 -266 -123.5t-105 -339.5q0 -212 94.5 -327.5t243.5 -115.5q175 0 271 108.5t96 264.5v191zM891 0v186h-4q-50 -97 -148 -154t-221 -57q-189 0 -308.5 138t-119.5 381q0 248 130.5 401.5t338.5 153.5q230 0 328 -189h4v656 h92v-1516h-92zM1296 84h661v-84h-811v35l680 905h-631v84h787v-25z"/>
<glyph glyph-name="uni01F4" horiz-adv-x="1368" unicode="Ǵ" d="M1221 100q-222 -125 -457 -125q-293 0 -474 199t-181 522q0 326 195 544t521 218q189 0 367 -76v-108q-195 94 -381 94q-271 0 -435.5 -185t-164.5 -472q0 -302 154.5 -473.5t416.5 -171.5q194 0 340 84v473h-338v90h437v-613zM778 1538h-90l234 328h104z"/>
<glyph glyph-name="uni01F5" horiz-adv-x="1147" unicode="ǵ" d="M891 631q0 136 -91.5 235t-238.5 99q-169 0 -272 -127t-103 -336q0 -210 94.5 -326.5t249.5 -116.5q165 0 263 107t98 262v203zM983 76q0 -289 -126 -423t-392 -134q-148 0 -305 78v96q162 -90 307 -90q424 0 424 448v133h-4q-121 -209 -369 -209q-189 0 -308.5 137 t-119.5 382t129 400t340 155q226 0 328 -187h4v162h92v-948zM569 1188h-90l234 328h104z"/>
<glyph glyph-name="uni01F6" horiz-adv-x="2057" unicode="Ƕ" d="M1891 410q0 -101 -25 -182t-75.5 -137t-126 -86t-176.5 -30q-96 0 -168 29t-120 83t-72 131.5t-24 174.5v295h-821v-688h-99v1434h99v-656h821v656h98v-1038q0 -75 18.5 -136t56 -104t94 -66.5t131.5 -23.5q73 0 127.5 24t91 68.5t54.5 107.5t18 141v616h98v-613z"/>
<glyph glyph-name="uni01F7" horiz-adv-x="1411" unicode="Ƿ" d="M283 46q207 81 374 181t294 228q128 128 188 264t60 280q0 82 -26.5 150t-75.5 116t-118.5 74.5t-154.5 26.5q-68 0 -133.5 -15.5t-131.5 -49t-134 -86t-142 -125.5v-1044zM283 -58v-413h-99v1905h99v-226q249 250 551 250q113 0 200.5 -32t147 -92.5t90.5 -147.5 t31 -197q0 -322 -270 -596q-268 -274 -750 -451z"/>
<glyph glyph-name="uni01F8" horiz-adv-x="1452" unicode="Ǹ" d="M1198 0l-854 1159q-26 35 -46 70l-13 20h-4q2 -26 2 -63v-1186h-99v1434h76l848 -1149q28 -38 61 -92h5q-5 70 -5 120v1121h99v-1434h-70zM724 1538l-248 328h104l234 -328h-90z"/>
<glyph glyph-name="uni01F9" horiz-adv-x="1096" unicode="ǹ" d="M860 0v596q0 369 -266 369q-148 0 -243 -108.5t-95 -268.5v-588h-92v1024h92v-186h4q112 211 350 211q166 0 254 -110.5t88 -315.5v-623h-92zM569 1188l-248 328h104l234 -328h-90z"/>
<glyph glyph-name="Aringacute" horiz-adv-x="1288" unicode="Ǻ" d="M678 1200q-11 30 -18 59q-7 25 -15 50h-4q-17 -66 -33 -107l-241 -665h553zM1118 0l-164 446h-622l-164 -446h-109l541 1434h94l535 -1434h-111zM645 1668q-57 0 -92 -32t-35 -85t36.5 -85t90.5 -32q57 0 93 32.5t36 84.5q0 57 -37.5 87t-91.5 30zM645 1367 q-86 0 -143.5 50.5t-57.5 133.5q0 80 57 132t144 52q88 0 144.5 -50.5t56.5 -133.5q0 -80 -58 -132t-143 -52zM628 1802h-90l234 328h104z"/>
<glyph glyph-name="aringacute" horiz-adv-x="1012" unicode="ǻ" d="M533 510q-161 -23 -226 -74.5t-65 -167.5q0 -91 60.5 -150t168.5 -59q148 0 246 109.5t98 282.5v100zM815 0v205h-4q-49 -105 -142.5 -167.5t-207.5 -62.5q-146 0 -231 82t-85 207q0 268 355 324l315 47q0 330 -248 330q-169 0 -329 -136v111q57 45 154.5 77t183.5 32 q158 0 244.5 -98t86.5 -285v-666h-92zM560 1489q-57 0 -92 -32t-35 -85t36.5 -85t90.5 -32q57 0 93 32.5t36 84.5q0 57 -37.5 87t-91.5 30zM560 1188q-86 0 -143.5 50.5t-57.5 133.5q0 80 57 132t144 52q88 0 144.5 -50.5t56.5 -133.5q0 -80 -58 -132t-143 -52zM533 1620 h-90l234 328h104z"/>
<glyph glyph-name="AEacute" horiz-adv-x="1706" unicode="Ǽ" d="M846 1337h-78l-383 -800h461v800zM846 0v446h-502l-219 -446h-109l697 1434h803v-97h-572v-571h531v-90h-531v-586h604v-90h-702zM1043 1536h-90l234 328h104z"/>
<glyph glyph-name="aeacute" horiz-adv-x="1718" unicode="ǽ" d="M776 508l-264 -8q-156 -5 -232.5 -58.5t-76.5 -173.5q0 -98 63.5 -153.5t171.5 -55.5q136 0 237 107.5t101 259.5v82zM1530 592q-6 177 -85 275t-218 98q-144 0 -238.5 -96.5t-116.5 -276.5h658zM868 508q0 -211 97.5 -330t267.5 -119q172 0 336 127v-98 q-159 -113 -355 -113q-136 0 -240 74.5t-151 210.5h-4q-133 -285 -391 -285q-150 0 -236 80.5t-86 208.5q0 143 99 225t287 91l284 12q0 373 -239 373q-186 0 -338 -134v109q161 109 348 109q230 0 295 -254h4q126 254 383 254q190 0 293.5 -133t103.5 -367v-41h-758z M816 1188h-90l234 328h104z"/>
<glyph glyph-name="Oslashacute" horiz-adv-x="1559" unicode="Ǿ" d="M1198 1196l-817 -973q153 -157 391 -157q266 0 421 173.5t155 483.5q0 298 -150 473zM1139 1253q-144 115 -355 115q-250 0 -411.5 -181t-161.5 -474q0 -258 117 -426zM317 147l-170 -202l-63 51l178 213q-153 200 -153 493q0 343 185.5 549.5t506.5 206.5 q235 0 399 -131l139 166l64 -53l-141 -168q188 -201 188 -533q0 -356 -184 -560t-492 -204q-274 0 -457 172zM733 1536h-90l234 328h104z"/>
<glyph glyph-name="oslashacute" horiz-adv-x="1149" unicode="ǿ" d="M897 799l-582 -643q104 -97 263 -97q185 0 285 120t100 333q0 171 -66 287zM846 866q-99 99 -264 99q-181 0 -288.5 -122t-107.5 -339q0 -167 76 -285zM961 870q98 -140 98 -360q0 -239 -129.5 -387t-354.5 -148q-192 0 -319 113l-166 -184l-61 57l170 189 q-109 146 -109 356q0 255 136.5 399t359.5 144q199 0 321 -115l172 190l62 -55zM563 1188h-90l234 328h104z"/>
<glyph glyph-name="uni0200" horiz-adv-x="1288" unicode="Ȁ" d="M678 1200q-11 30 -18 59q-7 25 -15 50h-4q-17 -66 -33 -107l-241 -665h553zM1118 0l-164 446h-622l-164 -446h-109l541 1434h94l535 -1434h-111zM495 1855h110l211 -317h-73zM274 1855h110l211 -317h-74z"/>
<glyph glyph-name="uni0201" horiz-adv-x="1012" unicode="ȁ" d="M494 510q-161 -23 -226 -74.5t-65 -167.5q0 -91 60.5 -150t168.5 -59q148 0 246 109.5t98 282.5v100zM776 0v205h-4q-49 -105 -142.5 -167.5t-207.5 -62.5q-146 0 -231 82t-85 207q0 268 355 324l315 47q0 330 -248 330q-169 0 -329 -136v111q57 45 154.5 77t183.5 32 q158 0 244.5 -98t86.5 -285v-666h-92zM371 1505h110l211 -317h-73zM150 1505h110l211 -317h-74z"/>
<glyph glyph-name="uni0202" horiz-adv-x="1288" unicode="Ȃ" d="M678 1200q-11 30 -18 59q-7 25 -15 50h-4q-17 -66 -33 -107l-241 -665h553zM1118 0l-164 446h-622l-164 -446h-109l541 1434h94l535 -1434h-111zM821 1538q-9 72 -61.5 115.5t-120.5 43.5q-77 0 -126.5 -42t-55.5 -117h-84q9 111 81.5 173t182.5 62q109 0 182.5 -63.5 t89.5 -171.5h-88z"/>
<glyph glyph-name="uni0203" horiz-adv-x="1012" unicode="ȃ" d="M494 510q-161 -23 -226 -74.5t-65 -167.5q0 -91 60.5 -150t168.5 -59q148 0 246 109.5t98 282.5v100zM776 0v205h-4q-49 -105 -142.5 -167.5t-207.5 -62.5q-146 0 -231 82t-85 207q0 268 355 324l315 47q0 330 -248 330q-169 0 -329 -136v111q57 45 154.5 77t183.5 32 q158 0 244.5 -98t86.5 -285v-666h-92zM701 1230q-9 72 -61.5 115.5t-120.5 43.5q-77 0 -126.5 -42t-55.5 -117h-84q9 111 81.5 173t182.5 62q109 0 182.5 -63.5t89.5 -171.5h-88z"/>
<glyph glyph-name="uni0204" horiz-adv-x="1024" unicode="Ȅ" d="M184 0v1434h670v-91h-571v-575h530v-90h-530v-588h604v-90h-703zM403 1855h110l211 -317h-73zM182 1855h110l211 -317h-74z"/>
<glyph glyph-name="uni0205" horiz-adv-x="1034" unicode="ȅ" d="M848 592q-6 177 -85 275t-218 98q-144 0 -238.5 -96.5t-116.5 -276.5h658zM186 508q0 -211 97.5 -330t267.5 -119q172 0 336 127v-98q-159 -113 -355 -113q-198 0 -320 142t-122 401q0 224 127.5 377.5t331.5 153.5q191 0 293 -134t102 -366v-41h-758zM401 1505h110 l211 -317h-73zM180 1505h110l211 -317h-74z"/>
<glyph glyph-name="uni0206" horiz-adv-x="1024" unicode="Ȇ" d="M184 0v1434h670v-91h-571v-575h530v-90h-530v-588h604v-90h-703zM738 1578q-9 72 -61.5 115.5t-120.5 43.5q-77 0 -126.5 -42t-55.5 -117h-84q9 111 81.5 173t182.5 62q109 0 182.5 -63.5t89.5 -171.5h-88z"/>
<glyph glyph-name="uni0207" horiz-adv-x="1034" unicode="ȇ" d="M848 592q-6 177 -85 275t-218 98q-144 0 -238.5 -96.5t-116.5 -276.5h658zM186 508q0 -211 97.5 -330t267.5 -119q172 0 336 127v-98q-159 -113 -355 -113q-198 0 -320 142t-122 401q0 224 127.5 377.5t331.5 153.5q191 0 293 -134t102 -366v-41h-758zM719 1230 q-9 72 -61.5 115.5t-120.5 43.5q-77 0 -126.5 -42t-55.5 -117h-84q9 111 81.5 173t182.5 62q109 0 182.5 -63.5t89.5 -171.5h-88z"/>
<glyph glyph-name="uni0208" horiz-adv-x="463" unicode="Ȉ" d="M421 1434v-90h-140v-1254h140v-90h-379v90h140v1254h-140v90h379zM123 1855h110l211 -317h-73zM-98 1855h110l211 -317h-74z"/>
<glyph glyph-name="uni0209" horiz-adv-x="420" unicode="ȉ" d="M164 0v1024h92v-1024h-92zM99 1505h110l211 -317h-73zM-122 1505h110l211 -317h-74z"/>
<glyph glyph-name="uni020A" horiz-adv-x="463" unicode="Ȋ" d="M421 1434v-90h-140v-1254h140v-90h-379v90h140v1254h-140v90h379zM415 1578q-9 72 -61.5 115.5t-120.5 43.5q-77 0 -126.5 -42t-55.5 -117h-84q9 111 81.5 173t182.5 62q109 0 182.5 -63.5t89.5 -171.5h-88z"/>
<glyph glyph-name="uni020B" horiz-adv-x="420" unicode="ȋ" d="M164 0v1024h92v-1024h-92zM393 1189q-9 72 -61.5 115.5t-120.5 43.5q-77 0 -126.5 -42t-55.5 -117h-84q9 111 81.5 173t182.5 62q109 0 182.5 -63.5t89.5 -171.5h-88z"/>
<glyph glyph-name="uni020C" horiz-adv-x="1559" unicode="Ȍ" d="M784 1368q-250 0 -411.5 -181t-161.5 -474q0 -296 153 -471.5t408 -175.5q266 0 421 173.5t155 483.5q0 304 -151.5 474.5t-412.5 170.5zM774 -25q-304 0 -484.5 202t-180.5 525q0 343 185.5 549.5t506.5 206.5q290 0 469.5 -198.5t179.5 -520.5q0 -356 -184 -560 t-492 -204zM611 1855h110l211 -317h-73zM390 1855h110l211 -317h-74z"/>
<glyph glyph-name="uni020D" horiz-adv-x="1149" unicode="ȍ" d="M582 965q-181 0 -288.5 -122t-107.5 -339q0 -201 105 -323t287 -122q185 0 285 120t100 333q0 219 -99.5 336t-281.5 117zM575 -25q-224 0 -354.5 147.5t-130.5 383.5q0 255 136.5 399t359.5 144q219 0 346 -143t127 -396q0 -239 -129.5 -387t-354.5 -148zM437 1505h110 l211 -317h-73zM216 1505h110l211 -317h-74z"/>
<glyph glyph-name="uni020E" horiz-adv-x="1559" unicode="Ȏ" d="M784 1368q-250 0 -411.5 -181t-161.5 -474q0 -296 153 -471.5t408 -175.5q266 0 421 173.5t155 483.5q0 304 -151.5 474.5t-412.5 170.5zM774 -25q-304 0 -484.5 202t-180.5 525q0 343 185.5 549.5t506.5 206.5q290 0 469.5 -198.5t179.5 -520.5q0 -356 -184 -560 t-492 -204zM954 1578q-9 72 -61.5 115.5t-120.5 43.5q-77 0 -126.5 -42t-55.5 -117h-84q9 111 81.5 173t182.5 62q109 0 182.5 -63.5t89.5 -171.5h-88z"/>
<glyph glyph-name="uni020F" horiz-adv-x="1149" unicode="ȏ" d="M582 965q-181 0 -288.5 -122t-107.5 -339q0 -201 105 -323t287 -122q185 0 285 120t100 333q0 219 -99.5 336t-281.5 117zM575 -25q-224 0 -354.5 147.5t-130.5 383.5q0 255 136.5 399t359.5 144q219 0 346 -143t127 -396q0 -239 -129.5 -387t-354.5 -148zM782 1230 q-9 72 -61.5 115.5t-120.5 43.5q-77 0 -126.5 -42t-55.5 -117h-84q9 111 81.5 173t182.5 62q109 0 182.5 -63.5t89.5 -171.5h-88z"/>
<glyph glyph-name="uni0210" horiz-adv-x="1137" unicode="Ȑ" d="M283 1343v-614h247q164 0 260.5 86t96.5 236q0 137 -87 214.5t-249 77.5h-268zM918 0l-191 420q-59 130 -118 174.5t-148 44.5h-178v-639h-99v1434h398q190 0 298.5 -102.5t108.5 -270.5q0 -155 -89 -259t-249 -134v-4q85 -34 166 -207l213 -457h-112zM405 1855h110 l211 -317h-73zM184 1855h110l211 -317h-74z"/>
<glyph glyph-name="uni0211" horiz-adv-x="676" unicode="ȑ" d="M647 928q-46 33 -108 33q-121 0 -203 -125t-82 -355v-481h-90v1024h90v-227h4q35 117 111 182t176 65q57 0 102 -18v-98zM249 1505h110l211 -317h-73zM28 1505h110l211 -317h-74z"/>
<glyph glyph-name="uni0212" horiz-adv-x="1137" unicode="Ȓ" d="M283 1343v-614h247q164 0 260.5 86t96.5 236q0 137 -87 214.5t-249 77.5h-268zM918 0l-191 420q-59 130 -118 174.5t-148 44.5h-178v-639h-99v1434h398q190 0 298.5 -102.5t108.5 -270.5q0 -155 -89 -259t-249 -134v-4q85 -34 166 -207l213 -457h-112zM781 1578 q-9 72 -61.5 115.5t-120.5 43.5q-77 0 -126.5 -42t-55.5 -117h-84q9 111 81.5 173t182.5 62q109 0 182.5 -63.5t89.5 -171.5h-88z"/>
<glyph glyph-name="uni0213" horiz-adv-x="676" unicode="ȓ" d="M647 928q-46 33 -108 33q-121 0 -203 -125t-82 -355v-481h-90v1024h90v-227h4q35 117 111 182t176 65q57 0 102 -18v-98zM617 1230q-9 72 -61.5 115.5t-120.5 43.5q-77 0 -126.5 -42t-55.5 -117h-84q9 111 81.5 173t182.5 62q109 0 182.5 -63.5t89.5 -171.5h-88z"/>
<glyph glyph-name="uni0214" horiz-adv-x="1327" unicode="Ȕ" d="M1161 573q0 -598 -510 -598q-485 0 -485 576v883h98v-869q0 -499 406 -499q393 0 393 485v883h98v-861zM550 1855h110l211 -317h-73zM329 1855h110l211 -317h-74z"/>
<glyph glyph-name="uni0215" horiz-adv-x="1096" unicode="ȕ" d="M840 0v186h-4q-107 -211 -330 -211q-363 0 -363 457v592h93v-569q0 -208 68.5 -302t215.5 -94q143 0 231.5 105t88.5 280v580h92v-1024h-92zM419 1505h110l211 -317h-73zM198 1505h110l211 -317h-74z"/>
<glyph glyph-name="uni0216" horiz-adv-x="1327" unicode="Ȗ" d="M1161 573q0 -598 -510 -598q-485 0 -485 576v883h98v-869q0 -499 406 -499q393 0 393 485v883h98v-861zM886 1578q-9 72 -61.5 115.5t-120.5 43.5q-77 0 -126.5 -42t-55.5 -117h-84q9 111 81.5 173t182.5 62q109 0 182.5 -63.5t89.5 -171.5h-88z"/>
<glyph glyph-name="uni0217" horiz-adv-x="1096" unicode="ȗ" d="M840 0v186h-4q-107 -211 -330 -211q-363 0 -363 457v592h93v-569q0 -208 68.5 -302t215.5 -94q143 0 231.5 105t88.5 280v580h92v-1024h-92zM762 1230q-9 72 -61.5 115.5t-120.5 43.5q-77 0 -126.5 -42t-55.5 -117h-84q9 111 81.5 173t182.5 62q109 0 182.5 -63.5 t89.5 -171.5h-88z"/>
<glyph glyph-name="Scommaaccent" horiz-adv-x="1018" unicode="Ș" d="M139 51v113q154 -98 312 -98q168 0 255 69.5t87 194.5q0 110 -58.5 175.5t-253.5 178.5q-218 127 -276 212.5t-58 197.5q0 152 118 258t315 106q128 0 256 -43v-104q-126 57 -269 57q-146 0 -231.5 -74t-85.5 -188q0 -110 58.5 -175t252.5 -177q201 -114 267.5 -202.5 t66.5 -203.5q0 -165 -114.5 -269t-323.5 -104q-74 0 -170.5 23t-147.5 53zM588 -118l-126 -261h-79l93 261h112z"/>
<glyph glyph-name="scommaaccent" horiz-adv-x="795" unicode="ș" d="M111 45v111q52 -45 126 -71t128 -26q241 0 241 197q0 68 -53 116t-172 99q-147 64 -206.5 132.5t-59.5 166.5q0 125 95.5 202t235.5 77q132 0 226 -54v-104q-114 74 -236 74q-101 0 -163 -52.5t-62 -136.5q0 -73 39 -118.5t172 -104.5q160 -72 220 -133.5t60 -163.5 q0 -122 -91.5 -201.5t-252.5 -79.5q-148 0 -247 70zM474 -118l-126 -261h-79l93 261h112z"/>
<glyph glyph-name="uni021A" horiz-adv-x="1047" unicode="Ț" d="M573 1343v-1343h-98v1343h-414v91h926v-91h-414zM612 -118l-126 -261h-79l93 261h112z"/>
<glyph glyph-name="uni021B" horiz-adv-x="608" unicode="ț" d="M569 14q-72 -34 -135 -34q-227 0 -227 272v688h-184v84h184v266q22 8 46 16q24 7 46 15v-297h270v-84h-270v-676q0 -106 33.5 -153.5t113.5 -47.5q57 0 123 37v-86zM445 -118l-126 -261h-79l93 261h112z"/>
<glyph glyph-name="uni021C" horiz-adv-x="1032" unicode="Ȝ" d="M10 -453v99q16 -4 37 -9t48 -9.5t62.5 -7.5t82.5 -3q146 0 262.5 42.5t198.5 113.5t125.5 163t43.5 192q0 105 -36 183t-101 130.5t-155 78.5t-198 26q-19 0 -53 -5.5t-67 -11.5q-39 -7 -82 -16v91l130 28q117 25 207.5 60t152 83t93 111t31.5 145q0 75 -25 137t-75 106 t-124.5 68.5t-173.5 24.5q-45 0 -88 -4.5t-87.5 -15.5t-91.5 -29t-101 -45v105q51 22 96 37t90 24.5t91.5 14t100.5 4.5q124 0 215.5 -32t152.5 -88.5t91 -133t30 -164.5q0 -83 -26 -149.5t-72 -118t-108 -89t-135 -63.5v-9q81 -9 156.5 -42t133.5 -92.5t93 -147t35 -205.5 q0 -112 -49.5 -219t-143.5 -190.5t-229 -134.5t-307 -51q-50 0 -85 1.5t-61 3.5t-46 5.5t-39 7.5z"/>
<glyph glyph-name="uni021D" horiz-adv-x="880" unicode="ȝ" d="M47 -467v93q37 -9 80 -15t91 -6q112 0 206.5 30t163.5 83.5t107.5 127t38.5 161.5q0 74 -23.5 132.5t-66 99t-101.5 62t-130 21.5q-24 0 -54 -3.5t-61.5 -9.5t-63 -13t-58.5 -14v84l113 23q92 19 165 50.5t123.5 73.5t77.5 92.5t27 107.5q0 55 -19.5 101.5t-59 80 t-99.5 52t-140 18.5q-82 0 -160.5 -20.5t-153.5 -55.5v92q71 32 149.5 50t165.5 18q103 0 181 -24.5t129.5 -69.5t77.5 -108t26 -139q0 -50 -18 -96.5t-51 -87.5t-80 -75t-106 -58v-7q70 -14 126.5 -45.5t96.5 -78.5t61.5 -107t21.5 -129q0 -108 -46 -200.5t-127 -159.5 t-192 -105t-242 -38q-63 0 -104 3t-72 9z"/>
<glyph glyph-name="uni021E" horiz-adv-x="1386" unicode="Ȟ" d="M1104 0v688h-821v-688h-99v1434h99v-656h821v656h98v-1434h-98zM702 1530h-45l-220 336h86l158 -240l160 240h82z"/>
<glyph glyph-name="uni021F" horiz-adv-x="1096" unicode="ȟ" d="M860 0v614q0 182 -66 266.5t-206 84.5q-132 0 -232 -103t-100 -295v-567h-92v1516h92v-676h4q121 209 352 209q166 0 253 -107t87 -307v-635h-92zM611 1530h-45l-220 336h86l158 -240l160 240h82z"/>
<glyph glyph-name="uni0220" horiz-adv-x="1368" unicode="Ƞ" d="M1202 -471h-98v1337q0 502 -365 502q-198 0 -327 -148q-129 -147 -129 -370v-850h-99v1434h99v-262h6q151 286 454 286q111 0 196.5 -39t144 -114.5t88.5 -186t30 -252.5v-1337z"/>
<glyph glyph-name="uni0221" horiz-adv-x="1319" unicode="ȡ" d="M891 623q0 70 -23.5 132.5t-67 109t-105.5 73.5t-138 27q-80 0 -147.5 -31.5t-117.5 -91.5t-78 -146t-28 -194q0 -106 25 -188.5t70 -139t107 -86t136 -29.5q88 0 156.5 29.5t115.5 80.5t71 118.5t24 144.5v191zM1041 -241q17 -20 40 -35t49 -26t52.5 -16.5t50.5 -5.5 q28 0 55 5.5t48 18t34 34t13 54.5q0 28 -11 48t-30 33.5t-43.5 20t-52.5 6.5q-63 0 -116.5 -33t-88.5 -104zM983 0q0 -20 1 -42.5t3 -44.5t6 -41.5t9 -32.5q38 70 102.5 105.5t136.5 35.5q61 0 106 -15t73.5 -40.5t42.5 -60t14 -74.5q0 -43 -16.5 -79.5t-48 -63.5t-78 -42 t-105.5 -15q-56 0 -112.5 19.5t-97.5 59.5q-4 -12 -8.5 -29.5t-8 -36.5t-6 -36.5t-2.5 -30.5h-80q4 47 15 97.5t31 96.5q-35 49 -52 114t-17 156v186h-4q-24 -48 -62 -87t-86 -66.5t-104 -42.5t-117 -15q-94 0 -172.5 35.5t-135.5 102t-88.5 163t-31.5 218.5 q0 123 34.5 225.5t96.5 175.5t148 113.5t190 40.5q230 0 328 -189h4v656h92v-1516z"/>
<glyph glyph-name="uni0222" horiz-adv-x="1222" unicode="Ȣ" d="M613 812q-86 0 -160.5 -26t-130 -74.5t-87.5 -118t-32 -156.5q0 -86 30.5 -156t85 -119.5t130 -76t164.5 -26.5q87 0 162.5 26.5t131 75.5t87.5 119t32 157t-33.5 156.5t-90.5 118t-132 74.5t-157 26zM406 860q-61 23 -105.5 57t-73 76.5t-42 92.5t-13.5 106 q0 122 49 242h104q-29 -61 -43 -123t-14 -128q0 -62 25 -114.5t70 -90.5t108 -59.5t140 -21.5q78 0 142 21.5t109.5 59.5t70.5 90.5t25 114.5q0 128 -61 251h98q33 -63 47.5 -122.5t14.5 -119.5q0 -51 -14 -100t-43.5 -92t-76 -79t-110.5 -63q68 -24 125 -64t98 -93.5 t63.5 -118t22.5 -136.5q0 -108 -39.5 -194.5t-108.5 -148t-163.5 -94.5t-204.5 -33q-113 0 -206.5 32t-160 92.5t-103 146.5t-36.5 194q0 144 77 249.5t229 169.5z"/>
<glyph glyph-name="uni0223" horiz-adv-x="1202" unicode="ȣ" d="M601 868q-86 0 -161 -28.5t-131 -81t-88 -127.5t-32 -168q0 -92 31 -167t86 -127.5t130.5 -81t164.5 -28.5q87 0 163 28t132 80.5t88 127.5t32 168t-34 168t-91 127.5t-132.5 81t-157.5 28.5zM396 910q-61 24 -105.5 60t-73 81t-42 98t-13.5 112q0 64 13.5 127.5 t38.5 128.5h101q-29 -65 -44.5 -130.5t-15.5 -134.5q0 -72 25 -128t70 -95t109 -59t142 -20q77 0 141.5 20.5t111 59.5t72 95t25.5 126q0 68 -16.5 133.5t-47.5 131.5h98q29 -66 45.5 -129.5t16.5 -126.5q0 -54 -14 -105t-43.5 -96.5t-76 -84t-110.5 -66.5q68 -26 125 -68.5 t98 -98.5t63.5 -124.5t22.5 -144.5q0 -114 -39.5 -205.5t-108.5 -156t-163.5 -99.5t-204.5 -35q-113 0 -206.5 34t-160 97.5t-103 154.5t-36.5 205q0 152 77 263.5t229 179.5z"/>
<glyph glyph-name="uni0224" horiz-adv-x="1167" unicode="Ȥ" d="M215 90h682q49 0 88.5 -12t68 -37t44 -62.5t15.5 -88.5q0 -36 -4.5 -73.5t-13.5 -64.5h-97q21 58 21 130q0 57 -37 86.5t-106 31.5h-810v31l868 1312h-799v91h952v-27z"/>
<glyph glyph-name="uni0225" horiz-adv-x="950" unicode="ȥ" d="M57 0v35l680 905h-631v84h787v-25l-686 -915h498q49 0 88.5 -11t68 -35t44 -60.5t15.5 -87.5q0 -36 -4.5 -73.5t-13.5 -64.5h-97q21 58 21 130q0 57 -37 87.5t-106 30.5h-627z"/>
<glyph glyph-name="uni0226" horiz-adv-x="1288" unicode="Ȧ" d="M678 1200q-11 30 -18 59q-7 25 -15 50h-4q-17 -66 -33 -107l-241 -665h553zM1118 0l-164 446h-622l-164 -446h-109l541 1434h94l535 -1434h-111zM637 1545q-31 0 -54.5 22t-23.5 56t23.5 53.5t52.5 19.5q31 0 55.5 -19.5t24.5 -53.5q0 -32 -23 -55t-55 -23z"/>
<glyph glyph-name="uni0227" horiz-adv-x="1012" unicode="ȧ" d="M494 510q-161 -23 -226 -74.5t-65 -167.5q0 -91 60.5 -150t168.5 -59q148 0 246 109.5t98 282.5v100zM776 0v205h-4q-49 -105 -142.5 -167.5t-207.5 -62.5q-146 0 -231 82t-85 207q0 268 355 324l315 47q0 330 -248 330q-169 0 -329 -136v111q57 45 154.5 77t183.5 32 q158 0 244.5 -98t86.5 -285v-666h-92zM494 1188q-31 0 -54.5 22t-23.5 56t23.5 53.5t52.5 19.5q31 0 55.5 -19.5t24.5 -53.5q0 -32 -23 -55t-55 -23z"/>
<glyph glyph-name="uni0228" horiz-adv-x="1024" unicode="Ȩ" d="M184 0v1434h670v-91h-571v-575h530v-90h-530v-588h604v-90h-703zM401 -430v74q50 -6 86 -6q160 0 160 92q0 86 -145 86q-32 0 -64 -4v188h72v-117q225 0 225 -147q0 -170 -254 -170q-36 0 -80 4z"/>
<glyph glyph-name="uni0229" horiz-adv-x="1034" unicode="ȩ" d="M848 592q-6 177 -85 275t-218 98q-144 0 -238.5 -96.5t-116.5 -276.5h658zM186 508q0 -211 97.5 -330t267.5 -119q172 0 336 127v-98q-159 -113 -355 -113q-198 0 -320 142t-122 401q0 224 127.5 377.5t331.5 153.5q191 0 293 -134t102 -366v-41h-758zM438 -430v74 q50 -6 86 -6q160 0 160 92q0 86 -145 86q-32 0 -64 -4v188h72v-117q225 0 225 -147q0 -170 -254 -170q-36 0 -80 4z"/>
<glyph glyph-name="uni022A" horiz-adv-x="1559" unicode="Ȫ" d="M784 1368q-250 0 -411.5 -181t-161.5 -474q0 -296 153 -471.5t408 -175.5q266 0 421 173.5t155 483.5q0 304 -151.5 474.5t-412.5 170.5zM774 -25q-304 0 -484.5 202t-180.5 525q0 343 185.5 549.5t506.5 206.5q290 0 469.5 -198.5t179.5 -520.5q0 -356 -184 -560 t-492 -204zM608 1690q31 0 52 -20.5t21 -51.5q0 -30 -23 -49.5t-52 -19.5q-26 0 -48 19t-22 50q0 33 22 52.5t50 19.5zM941 1690q31 0 52.5 -20.5t21.5 -51.5q0 -30 -23.5 -49.5t-52.5 -19.5q-26 0 -47.5 19t-21.5 50q0 33 22 52.5t49 19.5zM1031 1905v-84h-508v84h508z"/>
<glyph glyph-name="uni022B" horiz-adv-x="1149" unicode="ȫ" d="M582 965q-181 0 -288.5 -122t-107.5 -339q0 -201 105 -323t287 -122q185 0 285 120t100 333q0 219 -99.5 336t-281.5 117zM575 -25q-224 0 -354.5 147.5t-130.5 383.5q0 255 136.5 399t359.5 144q219 0 346 -143t127 -396q0 -239 -129.5 -387t-354.5 -148zM432 1329 q31 0 52 -20.5t21 -51.5q0 -30 -23 -49.5t-52 -19.5q-26 0 -48 19t-22 50q0 33 22 52.5t50 19.5zM765 1329q31 0 52.5 -20.5t21.5 -51.5q0 -30 -23.5 -49.5t-52.5 -19.5q-26 0 -47.5 19t-21.5 50q0 33 22 52.5t49 19.5zM855 1544v-84h-508v84h508z"/>
<glyph glyph-name="uni022C" horiz-adv-x="1559" unicode="Ȭ" d="M784 1368q-250 0 -411.5 -181t-161.5 -474q0 -296 153 -471.5t408 -175.5q266 0 421 173.5t155 483.5q0 304 -151.5 474.5t-412.5 170.5zM774 -25q-304 0 -484.5 202t-180.5 525q0 343 185.5 549.5t506.5 206.5q290 0 469.5 -198.5t179.5 -520.5q0 -356 -184 -560 t-492 -204zM522 1880v84h508v-84h-508zM1092 1777q0 -103 -48.5 -163t-130.5 -60q-66 0 -151 76q-64 55 -119 55q-102 0 -102 -143h-72q0 100 48 160.5t128 60.5q72 0 160 -72q67 -59 117 -59q40 0 68 37t28 108h74z"/>
<glyph glyph-name="uni022D" horiz-adv-x="1149" unicode="ȭ" d="M582 965q-181 0 -288.5 -122t-107.5 -339q0 -201 105 -323t287 -122q185 0 285 120t100 333q0 219 -99.5 336t-281.5 117zM575 -25q-224 0 -354.5 147.5t-130.5 383.5q0 255 136.5 399t359.5 144q219 0 346 -143t127 -396q0 -239 -129.5 -387t-354.5 -148zM352 1526v84 h508v-84h-508zM922 1423q0 -103 -48.5 -163t-130.5 -60q-66 0 -151 76q-64 55 -119 55q-102 0 -102 -143h-72q0 100 48 160.5t128 60.5q72 0 160 -72q67 -59 117 -59q40 0 68 37t28 108h74z"/>
<glyph glyph-name="uni022E" horiz-adv-x="1559" unicode="Ȯ" d="M784 1368q-250 0 -411.5 -181t-161.5 -474q0 -296 153 -471.5t408 -175.5q266 0 421 173.5t155 483.5q0 304 -151.5 474.5t-412.5 170.5zM774 -25q-304 0 -484.5 202t-180.5 525q0 343 185.5 549.5t506.5 206.5q290 0 469.5 -198.5t179.5 -520.5q0 -356 -184 -560 t-492 -204zM748 1545q-31 0 -54.5 22t-23.5 56t23.5 53.5t52.5 19.5q31 0 55.5 -19.5t24.5 -53.5q0 -32 -23 -55t-55 -23z"/>
<glyph glyph-name="uni022F" horiz-adv-x="1149" unicode="ȯ" d="M582 965q-181 0 -288.5 -122t-107.5 -339q0 -201 105 -323t287 -122q185 0 285 120t100 333q0 219 -99.5 336t-281.5 117zM575 -25q-224 0 -354.5 147.5t-130.5 383.5q0 255 136.5 399t359.5 144q219 0 346 -143t127 -396q0 -239 -129.5 -387t-354.5 -148zM576 1188 q-31 0 -54.5 22t-23.5 56t23.5 53.5t52.5 19.5q31 0 55.5 -19.5t24.5 -53.5q0 -32 -23 -55t-55 -23z"/>
<glyph glyph-name="uni0230" horiz-adv-x="1559" unicode="Ȱ" d="M784 1368q-250 0 -411.5 -181t-161.5 -474q0 -296 153 -471.5t408 -175.5q266 0 421 173.5t155 483.5q0 304 -151.5 474.5t-412.5 170.5zM774 -25q-304 0 -484.5 202t-180.5 525q0 343 185.5 549.5t506.5 206.5q290 0 469.5 -198.5t179.5 -520.5q0 -356 -184 -560 t-492 -204zM1028 1901v-84h-508v84h508zM773 1545q-31 0 -54.5 22t-23.5 56t23.5 53.5t52.5 19.5q31 0 55.5 -19.5t24.5 -53.5q0 -32 -23 -55t-55 -23z"/>
<glyph glyph-name="uni0231" horiz-adv-x="1149" unicode="ȱ" d="M582 965q-181 0 -288.5 -122t-107.5 -339q0 -201 105 -323t287 -122q185 0 285 120t100 333q0 219 -99.5 336t-281.5 117zM575 -25q-224 0 -354.5 147.5t-130.5 383.5q0 255 136.5 399t359.5 144q219 0 346 -143t127 -396q0 -239 -129.5 -387t-354.5 -148zM601 1188 q-31 0 -54.5 22t-23.5 56t23.5 53.5t52.5 19.5q31 0 55.5 -19.5t24.5 -53.5q0 -32 -23 -55t-55 -23zM854 1544v-84h-508v84h508z"/>
<glyph glyph-name="uni0232" horiz-adv-x="1106" unicode="Ȳ" d="M598 545v-545h-98v543l-439 891h111l334 -691q18 -36 45 -106h4q14 37 49 104l350 693h107zM312 1537v84h508v-84h-508z"/>
<glyph glyph-name="uni0233" horiz-adv-x="928" unicode="ȳ" d="M414 -209q-56 -138 -124 -205t-175 -67q-45 0 -80 14v92q36 -14 84 -14q123 0 194 170l95 227l-388 1016h103l309 -834q10 -27 14 -41q4 -19 9 -34h4l24 69l330 840h100zM241 1188v84h508v-84h-508z"/>
<glyph glyph-name="uni0234" horiz-adv-x="592" unicode="ȴ" d="M164 1516h92v-1516q0 -20 1 -42.5t3 -44.5t6 -41.5t9 -32.5q38 70 102.5 105.5t136.5 35.5q61 0 106 -15t73.5 -40.5t42.5 -60t14 -74.5q0 -43 -16.5 -79.5t-48 -63.5t-78 -42t-105.5 -15q-56 0 -112.5 19.5t-97.5 59.5q-4 -12 -8.5 -29.5t-8 -36.5t-6 -36.5t-2.5 -30.5 h-80q4 47 15 97.5t31 96.5q-35 49 -52 114t-17 156v1516zM314 -241q17 -20 40 -35t49 -26t52.5 -16.5t50.5 -5.5q28 0 55 5.5t48 18t34 34t13 54.5q0 28 -11 48t-30 33.5t-43.5 20t-52.5 6.5q-63 0 -116.5 -33t-88.5 -104z"/>
<glyph glyph-name="uni0235" horiz-adv-x="1288" unicode="ȵ" d="M860 596q0 369 -266 369q-148 0 -243 -108.5t-95 -268.5v-588h-92v1024h92v-186h4q112 211 350 211q166 0 254 -110.5t88 -315.5v-623q0 -20 1 -42.5t3 -44.5t6 -41.5t9 -32.5q38 70 102.5 105.5t136.5 35.5q61 0 106 -15t73.5 -40.5t42.5 -60t14 -74.5 q0 -43 -16.5 -79.5t-48 -63.5t-78 -42t-105.5 -15q-56 0 -112.5 19.5t-97.5 59.5q-4 -12 -8.5 -29.5t-8 -36.5t-6 -36.5t-2.5 -30.5h-80q4 47 15 97.5t31 96.5q-35 49 -52 114t-17 156v596zM1010 -241q17 -20 40 -35t49 -26t52.5 -16.5t50.5 -5.5q28 0 55 5.5t48 18t34 34 t13 54.5q0 28 -11 48t-30 33.5t-43.5 20t-52.5 6.5q-63 0 -116.5 -33t-88.5 -104z"/>
<glyph glyph-name="uni0236" horiz-adv-x="635" unicode="ȶ" d="M207 940h-184v84h184v266q11 4 22.5 8t23.5 8t23.5 7.5t22.5 7.5v-297h270v-84h-270v-940q0 -20 1 -42.5t3 -44.5t6 -41.5t9 -32.5q38 70 102.5 105.5t136.5 35.5q61 0 106 -15t73.5 -40.5t42.5 -60t14 -74.5q0 -43 -16.5 -79.5t-48 -63.5t-78 -42t-105.5 -15 q-56 0 -112.5 19.5t-97.5 59.5q-4 -12 -8.5 -29.5t-8 -36.5t-6 -36.5t-2.5 -30.5h-80q4 47 15 97.5t31 96.5q-35 49 -52 114t-17 156v940zM357 -241q17 -20 40 -35t49 -26t52.5 -16.5t50.5 -5.5q28 0 55 5.5t48 18t34 34t13 54.5q0 28 -11 48t-30 33.5t-43.5 20t-52.5 6.5 q-63 0 -116.5 -33t-88.5 -104z"/>
<glyph glyph-name="uni0237" horiz-adv-x="420" unicode="ȷ" d="M256 29q0 -510 -362 -510q-72 0 -146 35v96q80 -47 156 -47q260 0 260 409v1012h92v-995z"/>
<glyph glyph-name="uni0238" horiz-adv-x="1874" unicode="ȸ" d="M983 579v-161q2 -73 28.5 -138.5t73 -114.5t110 -77.5t140.5 -28.5q79 0 144 35.5t111.5 100t72 154.5t25.5 198q0 96 -23.5 173t-66.5 131.5t-104 84t-136 29.5q-88 0 -156.5 -31.5t-116.5 -84.5t-74 -123t-28 -147zM800 865q-90 100 -243 100q-80 0 -147.5 -31.5 t-117.5 -91.5t-78 -146t-28 -194q0 -106 25 -188.5t70 -139t107 -86t136 -29.5q86 0 153.5 28t114 77t72 113.5t27.5 138.5v221q-5 134 -91 228zM987 182h-4v-182h-92v186h-4q-24 -48 -62 -87t-86 -66.5t-104 -42.5t-117 -15q-94 0 -172.5 35.5t-135.5 102t-88.5 163 t-31.5 218.5q0 123 34.5 225.5t96.5 175.5t148 113.5t190 40.5q230 0 328 -189h4v656h92v-703h4q56 113 157 174q104 62 226 62q97 0 174 -35t130 -100t81.5 -157.5t28.5 -207.5q0 -127 -33.5 -232.5t-93.5 -181.5t-144 -118t-186 -42q-231 0 -340 207z"/>
<glyph glyph-name="uni0239" horiz-adv-x="1874" unicode="ȹ" d="M1080 169q98 -110 255 -110q79 0 144 35.5t111.5 100t72 154.5t25.5 198q0 96 -23.5 173t-66.5 131.5t-104 84t-136 29.5q-88 0 -156.5 -31.5t-116.5 -84.5t-74 -123t-28 -147v-161q4 -143 97 -249zM891 614q0 76 -23 140t-66 111t-105.5 73.5t-141.5 26.5 q-78 0 -145.5 -31t-117 -90.5t-78 -146t-28.5 -197.5q0 -102 24.5 -184t69 -139t106 -87.5t136.5 -30.5q90 0 159 30t115.5 81.5t70.5 120.5t24 147v176zM987 182h-4v-653h-92v659h-4q-114 -213 -371 -213q-96 0 -174.5 37t-134.5 105t-86.5 164t-30.5 215q0 127 35.5 229.5 t98 174.5t149 110.5t188.5 38.5q228 0 326 -191h4v166h92v-211h4q56 113 157 174q104 62 226 62q97 0 174 -35t130 -100t81.5 -157.5t28.5 -207.5q0 -126 -32.5 -231.5t-92 -181.5t-144 -118.5t-188.5 -42.5q-231 0 -340 207z"/>
<glyph glyph-name="uni023A" horiz-adv-x="1288" unicode="Ⱥ" d="M678 1200q-11 30 -18 59q-7 25 -15 50h-4q-17 -66 -33 -107l-241 -665h553zM1118 0l-164 446h-622l-164 -446h-109l541 1434h94l535 -1434h-111zM1149 1584l-1078 -1734h-104l1078 1734h104z"/>
<glyph glyph-name="uni023B" horiz-adv-x="1272" unicode="Ȼ" d="M1137 47q-174 -72 -363 -72q-294 0 -479.5 197.5t-185.5 515.5q0 349 201 559.5t511 210.5q165 0 316 -53v-105q-151 68 -318 68q-270 0 -439 -183t-169 -487q0 -293 161.5 -462.5t409.5 -169.5q198 0 355 77v-96zM1248 1584l-1078 -1734h-104l1078 1734h104z"/>
<glyph glyph-name="uni023C" horiz-adv-x="909" unicode="ȼ" d="M827 45q-114 -70 -272 -70q-209 0 -337 143.5t-128 375.5q0 244 144 399.5t370 155.5q117 0 227 -48v-104q-110 68 -241 68q-180 0 -292 -129.5t-112 -335.5q0 -199 102.5 -320t270.5 -121q154 0 268 82v-96zM109 -200h-98l862 1434h96z"/>
<glyph glyph-name="uni023D" horiz-adv-x="938" unicode="Ƚ" d="M184 0v1434h99v-1344h575v-90h-674zM18 666v84h508v-84h-508z"/>
<glyph glyph-name="uni023E" horiz-adv-x="1047" unicode="Ⱦ" d="M573 1343v-1343h-98v1343h-414v91h926v-91h-414zM1138 1584l-1078 -1734h-104l1078 1734h104z"/>
<glyph glyph-name="uni023F" horiz-adv-x="795" unicode="ȿ" d="M111 45v111q25 -22 58.5 -40t68 -30.5t68 -19.5t59.5 -7q241 0 241 197q0 34 -13 62.5t-40 54t-69.5 49t-102.5 49.5q-75 32 -125.5 64.5t-82 68t-45 76.5t-13.5 90q0 63 26 114.5t71 88t105.5 56.5t128.5 20q131 0 226 -54v-104q-115 74 -236 74q-50 0 -91.5 -14 t-71 -38.5t-46 -59.5t-16.5 -77q0 -36 7.5 -64.5t30 -53.5t64 -50t109.5 -55q81 -35 135.5 -69t84.5 -65q60 -62 60 -163q0 -60 -23.5 -111.5t-67 -89t-104.5 -59t-137 -21.5q-17 0 -26 0.5t-17 1.5q16 -10 30.5 -27t28 -38t25 -44.5t20.5 -46.5q19 -50 55 -77t102 -27 q29 0 59 4.5t53 14.5v-84q-23 -8 -51.5 -13.5t-69.5 -5.5q-45 0 -79.5 9.5t-62.5 30t-51 53.5t-44 80q-19 40 -35 68.5t-36.5 52t-49.5 45.5t-73 50q-10 5 -19 10.5t-18 12.5z"/>
<glyph glyph-name="uni0240" horiz-adv-x="950" unicode="ɀ" d="M207 84q48 -7 84.5 -20.5t69 -36t63 -54.5t66.5 -77q29 -37 59.5 -69.5t64 -56.5t70.5 -38t80 -14q41 0 80 8.5t69 20.5v-84q-29 -12 -64 -20.5t-89 -8.5q-102 0 -181.5 46.5t-152.5 139.5q-38 48 -71.5 82t-69 55.5t-74.5 32t-88 10.5h-66v35l680 905h-631v84h787v-25z "/>
<glyph glyph-name="uni0241" horiz-adv-x="1056" unicode="Ɂ" d="M544 0h-92v459q0 63 12.5 108t39 85.5t67 82.5t97.5 99q32 33 67.5 69t65 77.5t49 90t19.5 107.5q0 63 -28 112.5t-76.5 84.5t-113 53.5t-137.5 18.5q-122 0 -227 -33t-196 -90v107q88 54 196 80.5t227 26.5q92 0 174 -24t143.5 -69.5t97.5 -112t36 -151.5 q0 -65 -20 -121t-51 -104.5t-68.5 -90t-73.5 -76.5q-60 -59 -100 -101t-64 -80.5t-34 -78.5t-10 -94v-435z"/>
<glyph glyph-name="uni0242" horiz-adv-x="756" unicode="ɂ" d="M90 139v84h190v191q0 47 12.5 85.5t35 72.5t54 66t69.5 65q32 29 63 60.5t55 67.5t38.5 78.5t14.5 93.5q0 55 -18.5 98.5t-51.5 74t-79.5 46.5t-102.5 16q-94 0 -173.5 -33t-149.5 -90v107q71 54 149.5 80t174.5 26q74 0 137.5 -21t110 -61.5t73 -99t26.5 -133.5 q0 -57 -16 -106.5t-41.5 -92.5t-58.5 -80.5t-67 -70.5q-53 -50 -86.5 -84.5t-52.5 -62.5t-26.5 -54.5t-7.5 -62.5v-176h233v-84h-505z"/>
<glyph glyph-name="uni0243" horiz-adv-x="1114" unicode="Ƀ" d="M283 1343v-555h200q156 0 250 80t94 217q0 258 -305 258h-239zM283 698v-286h336v-88h-336v-234h266q169 0 258.5 81t89.5 230q0 297 -403 297h-211zM184 0v324h-183v88h183v1022h377q169 0 269 -91t100 -241q0 -125 -66.5 -216.5t-185.5 -129.5v-4q149 -14 235 -106.5 t86 -235.5q0 -181 -117 -295.5t-313 -114.5h-385z"/>
<glyph glyph-name="uni0244" horiz-adv-x="1327" unicode="Ʉ" d="M670 66q393 0 393 485v137h-799v-123q0 -499 406 -499zM1161 573q0 -598 -510 -598q-485 0 -485 576v137h-136v88h136v658h98v-658h799v658h98v-658h136v-88h-136v-115z"/>
<glyph glyph-name="uni0245" horiz-adv-x="1288" unicode="Ʌ" d="M1118 0l-440 1200q-12 34 -18.5 59t-14.5 50h-4q-6 -23 -14.5 -52t-18.5 -55l-440 -1202h-109l541 1434h94l535 -1434h-111z"/>
<glyph glyph-name="uni0246" horiz-adv-x="1024" unicode="Ɇ" d="M184 0v1434h670v-91h-571v-575h530v-90h-530v-588h604v-90h-703zM941 1528l-718 -1672h-84l716 1672h86z"/>
<glyph glyph-name="uni0247" horiz-adv-x="1034" unicode="ɇ" d="M848 592q-6 177 -85 275t-218 98q-144 0 -238.5 -96.5t-116.5 -276.5h658zM186 508q0 -211 97.5 -330t267.5 -119q172 0 336 127v-98q-159 -113 -355 -113q-198 0 -320 142t-122 401q0 224 127.5 377.5t331.5 153.5q191 0 293 -134t102 -366v-41h-758zM972 1342 l-718 -1672h-84l716 1672h86z"/>
<glyph glyph-name="uni0248" horiz-adv-x="664" unicode="Ɉ" d="M487 494q0 -519 -360 -519q-56 0 -109 15v96q59 -20 111 -20q138 0 199 104.5t61 325.5v184h-217v88h217v666h98v-666h156v-88h-156v-186z"/>
<glyph glyph-name="uni0249" horiz-adv-x="420" unicode="ɉ" d="M209 1282q-30 0 -53 22t-23 56q0 33 23.5 53.5t52.5 20.5q31 0 54.5 -20t23.5 -54q0 -32 -23 -55t-55 -23zM256 29q0 -510 -362 -510q-72 0 -146 35v96q80 -47 156 -47q260 0 260 409v438h-134v84h134v490h92v-490h134v-84h-134v-421z"/>
<glyph glyph-name="uni024A" horiz-adv-x="1468" unicode="Ɋ" d="M1284 60q0 -172 44 -251t147 -79q41 0 89 20v-96q-45 -15 -94 -15q-285 0 -285 423v226q-34 -75 -84.5 -133.5t-114 -98t-139 -60.5t-158.5 -21q-132 0 -239.5 53.5t-183 150t-116.5 230t-41 293.5q0 171 42 310.5t120.5 238.5t190 153t250.5 54q78 0 149.5 -20.5 t132 -59.5t109.5 -94.5t82 -125.5v276h99v-1374zM704 1368q-107 0 -197.5 -47.5t-156 -134t-102.5 -207t-37 -266.5q0 -147 34.5 -266.5t97.5 -204t152 -130.5t199 -46q104 0 193.5 36t155.5 111t104 190t38 274v94q0 154 -37.5 266.5t-102.5 186t-152.5 109t-188.5 35.5z "/>
<glyph glyph-name="uni024B" horiz-adv-x="1147" unicode="ɋ" d="M891 623q0 70 -23.5 132.5t-67 109t-105.5 73.5t-138 27q-80 0 -147.5 -31.5t-117.5 -91.5t-78 -146t-28 -194q0 -106 25 -188.5t70 -139t107 -86t136 -29.5q88 0 156.5 29.5t115.5 80.5t71 118.5t24 144.5v191zM891 186h-4q-24 -48 -62 -87t-86 -66.5t-104 -42.5 t-117 -15q-94 0 -172.5 35.5t-135.5 102t-88.5 163t-31.5 218.5q0 123 34.5 225.5t96.5 175.5t148 113.5t190 40.5q230 0 328 -189h4v164h92v-1024q0 -173 47.5 -255t150.5 -82q44 0 89 19v-88q-45 -15 -94 -15q-285 0 -285 421v186z"/>
<glyph glyph-name="uni024C" horiz-adv-x="1137" unicode="Ɍ" d="M283 1343v-614h247q163 0 260 86q97 85 97 236q0 138 -86.5 215t-249.5 77h-268zM34 729h150v705h398q191 0 298 -103q109 -102 109 -270q0 -155 -89 -259t-249 -134v-4q85 -34 166 -207l213 -457h-112l-191 420q-58 129 -118 174q-59 45 -148 45h-178v-639h-99v639h-150 v90z"/>
<glyph glyph-name="uni024D" horiz-adv-x="676" unicode="ɍ" d="M647 928q-46 33 -108 33q-121 0 -203 -125t-82 -355v-26h303v-84h-303v-371h-90v371h-134v84h134v569h90v-227h4q35 117 111 182t176 65q57 0 102 -18v-98z"/>
<glyph glyph-name="uni024E" horiz-adv-x="1106" unicode="Ɏ" d="M506 743q18 -36 45 -106h4q14 37 49 104l157 311h-405zM598 545v-545h-98v543l-251 509h-221v88h177l-144 294h111l142 -294h491l149 294h107l-153 -294h170v-88h-216z"/>
<glyph glyph-name="uni024F" horiz-adv-x="928" unicode="ɏ" d="M634 568h-342l140 -378q10 -27 14 -41q4 -19 9 -34h4l24 69zM414 -209q-56 -138 -124 -205t-175 -67q-45 0 -80 14v92q36 -14 84 -14q123 0 194 170l95 227l-214 560h-164v84h132l-142 372h103l138 -372h406l146 372h100l-151 -372h135v-84h-169z"/>
<glyph glyph-name="uni0250" horiz-adv-x="1012" unicode="ɐ" d="M518 514q77 11 132 28.5t90.5 45.5t52 68.5t16.5 99.5q0 46 -16 84t-45.5 66t-72 43.5t-95.5 15.5q-74 0 -137 -29t-109 -81t-72 -124t-26 -158v-100zM236 1024v-205h4q24 51 60.5 93.5t81.5 73t97.5 47t110.5 16.5q73 0 131.5 -22t99.5 -60.5t63 -91.5t22 -115 q0 -269 -355 -324l-315 -47q0 -330 248 -330q169 0 329 136v-111q-28 -22 -68.5 -41.5t-86.5 -34.5t-93.5 -24t-89.5 -9q-159 0 -245 97.5t-86 285.5v666h92z"/>
<glyph glyph-name="uni0251" horiz-adv-x="1147" unicode="ɑ" d="M891 623q0 143 -90.5 242.5t-243.5 99.5q-161 0 -266 -123.5t-105 -339.5q0 -212 94.5 -327.5t243.5 -115.5q175 0 271 108.5t96 264.5v191zM891 0v186h-4q-50 -97 -148 -154t-221 -57q-189 0 -308.5 138t-119.5 381q0 248 130.5 401.5t338.5 153.5q230 0 328 -189h4v164 h92v-1024h-92z"/>
<glyph glyph-name="uni0252" horiz-adv-x="1147" unicode="ɒ" d="M256 563v-129q0 -154 97 -264.5t255 -110.5q157 0 255 134.5t98 353.5q0 192 -90 305t-240 113q-179 0 -277 -120t-98 -282zM260 182h-4v-182h-92v1024h92v-211h4q55 113 157.5 174.5t225.5 61.5q195 0 304.5 -134.5t109.5 -365.5q0 -257 -127 -415.5t-330 -158.5 q-230 0 -340 207z"/>
<glyph glyph-name="uni0253" horiz-adv-x="1147" unicode="ɓ" d="M256 563v-129q0 -76 25.5 -144t71.5 -119.5t111 -81.5t144 -30t144 35.5t111.5 100t72 154.5t25.5 198q0 96 -23.5 173t-66.5 131.5t-104 84t-136 29.5q-90 0 -160 -33t-117.5 -88.5t-72.5 -128.5t-25 -152zM164 1045q0 106 26.5 196.5t79.5 156.5t132 103.5t184 37.5 q71 0 135.5 -7t124.5 -16v-89q-28 6 -60.5 10.5t-66.5 8.5t-68 6t-65 2q-86 0 -148 -31.5t-102.5 -86t-60 -129t-19.5 -160.5v-234h4q56 113 157 174q104 62 226 62q97 0 174 -35t130 -100t81.5 -157.5t28.5 -207.5q0 -127 -33.5 -232.5t-93.5 -181.5t-144 -118t-186 -42 q-231 0 -340 207h-4v-182h-92v1045z"/>
<glyph glyph-name="uni0254" horiz-adv-x="909" unicode="ɔ" d="M63 154q117 -91 283 -91q84 0 152.5 32.5t118 91t76.5 139t27 176.5q0 105 -29.5 191t-82.5 147.5t-128 95t-165 33.5q-122 0 -226 -59v102q52 20 107 31t110 11q121 0 216 -40t160.5 -112.5t99.5 -173.5t34 -222q0 -117 -34 -214t-95.5 -166.5t-146.5 -108t-188 -38.5 q-86 0 -157.5 18t-131.5 58v99z"/>
<glyph glyph-name="uni0255" horiz-adv-x="954" unicode="ɕ" d="M345 136q24 -20 54.5 -34t65 -23t70.5 -13.5t69 -4.5q39 0 75.5 5.5t65 18t45.5 34t17 54.5q0 56 -47 82t-125 26q-100 0 -171 -39t-119 -106zM90 494q0 121 38.5 223t106.5 176t162.5 115t206.5 41q117 0 227 -48v-104q-110 68 -241 68q-90 0 -164 -34.5t-127.5 -96 t-83 -147t-29.5 -187.5q0 -49 8 -97t21.5 -90t32 -75t40.5 -52q56 81 142 130t202 49q65 0 114.5 -15t83 -40.5t50.5 -60t17 -74.5q0 -94 -75 -147t-208 -53q-93 0 -175.5 19.5t-134.5 59.5q-14 -25 -23.5 -60.5t-15.5 -69.5h-81q7 46 23 94t36 84q-67 60 -110 158t-43 234z "/>
<glyph glyph-name="uni0256" horiz-adv-x="1147" unicode="ɖ" d="M891 623q0 70 -23.5 132.5t-67 109t-105.5 73.5t-138 27q-80 0 -147.5 -31.5t-117.5 -91.5t-78 -146t-28 -194q0 -106 25 -188.5t70 -139t107 -86t136 -29.5q88 0 156.5 29.5t115.5 80.5t71 118.5t24 144.5v191zM981 -60q0 -173 47.5 -255t150.5 -82q44 0 89 19v-88 q-45 -15 -94 -15q-143 0 -215 105q-70 102 -70 307v11l2 244h-4q-24 -48 -62 -87t-86 -66.5t-104 -42.5t-117 -15q-94 0 -172.5 35.5t-135.5 102t-88.5 163t-31.5 218.5q0 123 34.5 225.5t96.5 175.5t148 113.5t190 40.5q230 0 328 -189h4v656h92z"/>
<glyph glyph-name="uni0257" horiz-adv-x="1174" unicode="ɗ" d="M891 623q0 144 -91 242q-90 100 -243 100q-161 0 -266 -124q-105 -123 -105 -339q0 -213 94 -328t244 -115q175 0 271 108q96 109 96 265v191zM891 1115q0 423 285 423q49 0 94 -15v-88q-45 19 -89 19q-103 0 -150.5 -82t-47.5 -255v-1117h-92v186h-4q-49 -96 -148 -154 q-98 -57 -221 -57q-189 0 -309 138q-119 139 -119 381q0 249 130 401q130 154 339 154q230 0 328 -189h4v255z"/>
<glyph glyph-name="uni0258" horiz-adv-x="1034" unicode="ɘ" d="M844 592q-7 87 -35.5 156t-74 117.5t-104.5 74t-128 25.5q-72 0 -129.5 -25t-98 -73t-63 -117.5t-25.5 -157.5h658zM90 508v41q0 115 27.5 208t80.5 157.5t131 99.5t179 35q96 0 176.5 -39t138 -109t89.5 -167.5t32 -215.5q0 -129 -35.5 -230t-97 -170.5t-144.5 -106 t-178 -36.5q-106 0 -188 27t-154 78v106q72 -56 160 -91.5t185 -35.5q79 0 145 31t112.5 88.5t72.5 141t26 188.5h-758z"/>
<glyph glyph-name="uni0259" horiz-adv-x="1034" unicode="ə" d="M186 432q6 -177 85 -275t218 -98q144 0 238.5 96.5t116.5 276.5h-658zM848 516q0 211 -97.5 330t-267.5 119q-172 0 -336 -127v98q159 113 355 113q198 0 320 -142t122 -401q0 -224 -127.5 -377.5t-331.5 -153.5q-191 0 -293 134t-102 366v41h758z"/>
<glyph glyph-name="uni025A" horiz-adv-x="1254" unicode="ɚ" d="M489 59q72 0 137.5 27.5t114.5 83t78 140t29 197.5q0 99 -23 182l-639 -335q8 -63 28.5 -117t57 -93.5t90 -62t127.5 -22.5zM944 506q0 -110 -33 -206.5t-93.5 -168.5t-145 -114t-187.5 -42q-85 0 -153 24.5t-118 76t-81.5 131t-42.5 190.5l705 371q-45 94 -124 145.5 t-188 51.5q-173 0 -336 -127v98q160 113 355 113q128 0 226 -60.5t154 -175.5l172 91q20 -67 39.5 -110.5t38.5 -68.5t37.5 -35t38.5 -10q24 0 40 5.5t30 13.5v-81q-12 -8 -34.5 -15t-48.5 -7q-31 0 -57.5 8.5t-50.5 29.5t-45 57t-41 91l-89 -47q32 -102 32 -229z"/>
<glyph glyph-name="uni025B" horiz-adv-x="897" unicode="ɛ" d="M827 29q-27 -11 -65.5 -20.5t-82.5 -17t-89.5 -12t-85.5 -4.5q-112 0 -192 24t-131 64.5t-75 95t-24 115.5q0 56 22 102t59 79.5t85 55t100 28.5v4q-41 8 -82 27t-73 48t-52 68t-20 88q0 78 34 131t88.5 85t123.5 45.5t139 13.5q34 0 72.5 -5t76 -12.5t70.5 -16t57 -16.5 v-96q-29 12 -64 23.5t-72 20t-74 13.5t-68 5q-148 0 -217.5 -50.5t-69.5 -142.5q0 -62 35.5 -101t89 -61t116.5 -29.5t117 -7.5h27h32.5t32 0.5t25.5 1.5v-88q-19 0 -41 1q-19 0 -44 0.5t-54 0.5q-184 0 -279.5 -52t-95.5 -165q0 -44 19 -83t60 -68t106 -45.5t157 -16.5 q38 0 79.5 6t82 15.5t78 21t67.5 23.5v-96z"/>
<glyph glyph-name="uni025C" horiz-adv-x="897" unicode="ɜ" d="M70 29v96q30 -12 67.5 -23.5t78 -21t82 -15.5t79.5 -6q92 0 157 16.5t106 45.5t60 68t19 83q0 113 -95.5 165t-279.5 52q-29 0 -54 -0.5t-44 -0.5q-22 -1 -41 -1v88q10 -1 25.5 -1.5t32 -0.5h32.5h27q54 0 117 7.5t116.5 29.5t89 61t35.5 101q0 92 -69.5 142.5 t-217.5 50.5q-32 0 -68.5 -5t-73.5 -13.5t-72 -20t-64 -23.5v96q24 8 57 16.5t70.5 16t76 12.5t72.5 5q70 0 139 -13.5t123.5 -45.5t88.5 -85t34 -131q0 -49 -20 -88t-52.5 -68t-73 -48t-81.5 -27v-4q52 -7 100 -28.5t85 -55t59 -79.5t22 -102q0 -61 -24 -115.5t-75 -95 t-131 -64.5t-192 -24q-40 0 -85.5 4.5t-89.5 12t-82.5 17t-65.5 20.5z"/>
<glyph glyph-name="uni025D" horiz-adv-x="1133" unicode="ɝ" d="M70 29v96q30 -12 67.5 -23.5t78 -21t82 -15.5t79.5 -6q92 0 157 16.5t106 45.5t60 68t19 83q0 113 -95.5 165t-279.5 52q-29 0 -54 -0.5t-44 -0.5q-22 -1 -41 -1v88q10 -1 25.5 -1.5t32 -0.5h32.5h27q54 0 117 7.5t116.5 29.5t89 61t35.5 101q0 92 -69.5 142.5 t-217.5 50.5q-32 0 -68.5 -5t-73.5 -13.5t-72 -20t-64 -23.5v96q24 8 57 16.5t70.5 16t76 12.5t72.5 5q67 0 133.5 -12.5t120.5 -42t89.5 -78t40.5 -120.5l166 155q20 -67 39.5 -110.5t38.5 -68.5t37.5 -35t38.5 -10q24 0 41 6.5t29 12.5v-81q-12 -8 -31 -15t-52 -7 q-62 0 -106 37t-76 119l-163 -151q-51 -46 -96.5 -71t-91.5 -34v-4q52 -7 100 -28.5t85 -55t59 -79.5t22 -102q0 -61 -24 -115.5t-75 -95t-131 -64.5t-192 -24q-40 0 -85.5 4.5t-89.5 12t-82.5 17t-65.5 20.5z"/>
<glyph glyph-name="uni025E" horiz-adv-x="1099" unicode="ɞ" d="M592 -25q-123 0 -217 39t-157.5 109.5t-95.5 168t-32 214.5q0 127 36.5 228t102.5 171t158 107t203 37q73 0 142.5 -14.5t123.5 -46t86.5 -82.5t32.5 -123q0 -53 -20 -93.5t-52.5 -70.5t-73 -49t-81.5 -27v-4q52 -7 100 -28.5t85 -55t59 -79.5t22 -102 q0 -61 -24.5 -115.5t-76.5 -95t-131.5 -64.5t-189.5 -24zM592 59q88 0 150 17t101 47t57 71t18 90t-23.5 87t-67 64.5t-105.5 40t-138 13.5h-96v84h101q21 0 51 3t62 11.5t64 23t57 36.5t40.5 52.5t15.5 72.5q0 93 -75 143t-212 50q-94 0 -169 -31.5t-127.5 -90.5 t-81 -144.5t-28.5 -194.5q0 -100 28 -182t80.5 -140.5t127.5 -90.5t170 -32z"/>
<glyph glyph-name="uni025F" horiz-adv-x="420" unicode="ɟ" d="M256 29q0 -510 -362 -510q-71 0 -146 35v96q80 -47 156 -47q260 0 260 409v438h-134v84h134v490h92v-490h134v-84h-134v-421z"/>
<glyph glyph-name="uni0260" horiz-adv-x="1174" unicode="ɠ" d="M891 631q0 135 -92 235q-92 99 -238 99q-169 0 -272 -127t-103 -336q0 -211 94 -327q95 -116 250 -116q165 0 263 107t98 262v203zM891 1115q0 423 285 423q49 0 94 -15v-88q-45 19 -89 19q-103 0 -150.5 -82t-47.5 -255v-1041q0 -290 -126 -423q-126 -134 -392 -134 q-148 0 -305 78v96q162 -90 307 -90q424 0 424 448v133h-4q-122 -209 -369 -209q-189 0 -309 137q-119 137 -119 382t129 400t340 155q226 0 328 -187h4v253z"/>
<glyph glyph-name="uni0261" horiz-adv-x="1147" unicode="ɡ" d="M891 631q0 136 -91.5 235t-238.5 99q-169 0 -272 -127t-103 -336q0 -210 94.5 -326.5t249.5 -116.5q165 0 263 107t98 262v203zM983 76q0 -289 -126 -423t-392 -134q-148 0 -305 78v96q162 -90 307 -90q424 0 424 448v133h-4q-121 -209 -369 -209q-189 0 -308.5 137 t-119.5 382t129 400t340 155q226 0 328 -187h4v162h92v-948z"/>
<glyph glyph-name="uni0262" horiz-adv-x="1113" unicode="ɢ" d="M973 62q-177 -86 -361 -86q-119 0 -215 36.5t-164.5 105t-105.5 167t-37 222.5q0 103 35 200.5t101.5 173t163.5 121.5t221 46q100 0 181.5 -15t145.5 -36v-100q-71 29 -153.5 48.5t-173.5 19.5q-94 0 -172 -33.5t-134.5 -94t-87.5 -145t-31 -186.5q0 -104 33 -186.5 t90.5 -140t135 -88t166.5 -30.5q95 0 161 16.5t106 36.5v353h-250v84h345v-489z"/>
<glyph glyph-name="uni0263" horiz-adv-x="928" unicode="ɣ" d="M360 -200q0 -63 25 -103.5t70 -40.5q21 0 39 10.5t31.5 30t21.5 45.5t8 58q0 40 -15 89.5t-33 93.5q-21 51 -48 103q-28 -52 -50 -104q-9 -22 -18 -46t-16 -48t-11 -46.5t-4 -41.5zM123 1024l305 -703q11 -29 18.5 -56t12.5 -51h4q7 32 14 57.5t15 45.5l315 707h100 l-389 -862q13 -25 36 -69.5t44.5 -96.5t37.5 -104t16 -92q0 -60 -16.5 -103.5t-44.5 -71.5t-63.5 -41.5t-72.5 -13.5q-35 0 -69 13.5t-61.5 41.5t-44.5 71.5t-17 103.5q0 27 8 60t20 67.5t27.5 69t31 65t29 55t22.5 39.5l-381 868h103z"/>
<glyph glyph-name="uni0264" horiz-adv-x="936" unicode="ɤ" d="M467 621q-98 -187 -98 -364q0 -199 98 -199q97 0 97 199q0 170 -97 364zM926 919q-77 46 -134 46q-65 0 -132 -63.5t-136 -195.5q69 -115 103 -230t34 -212q0 -64 -13.5 -117t-39.5 -91t-63 -59t-83 -21q-45 0 -80.5 20.5t-59.5 58t-37 89.5t-13 115q0 100 33.5 214 t102.5 226q-36 67 -69 117t-65 83t-65.5 49.5t-69.5 16.5q-68 0 -129 -44v95q66 32 138 32q88 0 171 -64t150 -199q34 67 74 116.5t82 82t85 48.5t82 16q72 0 134 -32v-97z"/>
<glyph glyph-name="uni0265" horiz-adv-x="1096" unicode="ɥ" d="M236 1024v-593q0 -182 66 -266.5t206 -84.5q132 0 232 103t100 295v546h92v-1495h-92v676h-4q-121 -209 -352 -209q-166 0 -253 107t-87 307v614h92z"/>
<glyph glyph-name="uni0266" horiz-adv-x="1096" unicode="ɦ" d="M164 1045q0 106 26.5 196.5t79.5 156.5t132 103.5t184 37.5q71 0 135.5 -7t124.5 -16v-89q-28 6 -60.5 10.5t-66.5 8.5t-68 6t-65 2q-86 0 -148 -31.5t-102.5 -86t-60 -129t-19.5 -160.5v-207h4q122 209 352 209q167 0 253.5 -106.5t86.5 -307.5v-635h-92v614 q0 182 -66 266.5t-206 84.5q-65 0 -124.5 -26t-106 -76.5t-74 -124.5t-27.5 -171v-567h-92v1045z"/>
<glyph glyph-name="uni0267" horiz-adv-x="1096" unicode="ɧ" d="M952 0q-10 -481 -362 -481q-70 0 -146 35v96q80 -47 156 -47q256 0 260 397v614q0 182 -66 266.5t-206 84.5q-65 0 -124.5 -26t-106 -76.5t-74 -124.5t-27.5 -171v-567h-92v1045q0 106 26.5 196.5t79.5 156.5t132 103.5t184 37.5q72 0 136 -7t124 -16v-89 q-56 12 -127 19.5t-133 7.5q-86 0 -148 -31.5t-102.5 -86t-60 -129t-19.5 -160.5v-207h4q122 209 352 209q168 0 254 -106t86 -308v-635z"/>
<glyph glyph-name="uni0268" horiz-adv-x="420" unicode="ɨ" d="M209 1282q-30 0 -53 22t-23 56q0 33 23.5 53.5t52.5 20.5q31 0 54.5 -20t23.5 -54q0 -32 -23 -55t-55 -23zM164 0v450h-134v84h134v490h92v-490h134v-84h-134v-450h-92z"/>
<glyph glyph-name="uni0269" horiz-adv-x="518" unicode="ɩ" d="M457 2q-22 -8 -43.5 -11t-38.5 -3q-56 0 -96 18.5t-65.5 52t-37.5 80.5t-12 105v780h92v-782q0 -56 14 -89.5t34 -51.5t42 -23.5t39 -5.5q26 0 42 2.5t30 7.5v-80z"/>
<glyph glyph-name="uni026A" horiz-adv-x="496" unicode="ɪ" d="M434 1024v-90h-140v-844h140v-90h-372v90h140v844h-140v90h372z"/>
<glyph glyph-name="uni026B" horiz-adv-x="522" unicode="ɫ" d="M532 759q-68 -57 -156 -57q-35 0 -76 10v-712h-92v759q-46 13 -69 13q-77 0 -149 -70v89q70 59 155 59q29 0 63 -8v674h92v-722q46 -13 82 -13q78 0 150 69v-91z"/>
<glyph glyph-name="uni026C" horiz-adv-x="685" unicode="ɬ" d="M337 760q-4 41 -16.5 77t-32.5 62.5t-47 42t-60 15.5q-48 0 -73 -22t-25 -67q0 -52 44.5 -80t134.5 -28h75zM695 676h-266v-676h-92v676h-68q-140 0 -209.5 50t-69.5 141q0 85 52.5 131.5t140.5 46.5q57 0 95.5 -23.5t58.5 -61.5v556h92v-756h266v-84z"/>
<glyph glyph-name="uni026D" horiz-adv-x="420" unicode="ɭ" d="M164 1516h92v-1576q0 -173 47.5 -255t150.5 -82q44 0 89 19v-88q-45 -15 -94 -15q-285 0 -285 423v1574z"/>
<glyph glyph-name="uni026E" horiz-adv-x="1152" unicode="ɮ" d="M164 0v1516h92v-492h786v-25l-451 -583q116 -7 213 -40.5t166.5 -92.5t108 -142.5t38.5 -190.5q0 -101 -35.5 -181t-103 -135t-166 -84t-224.5 -29q-125 0 -213.5 17.5t-158.5 52.5v96q36 -21 75.5 -36t85 -25.5t99 -15.5t117.5 -5q100 0 180 24t135 68.5t84.5 109 t29.5 145.5q0 89 -34 159.5t-95 119t-146 74.5t-187 26h-121v24l447 585h-630v-940h-92z"/>
<glyph glyph-name="uni026F" horiz-adv-x="1683" unicode="ɯ" d="M235 1024v-616q0 -193 60.5 -271t191.5 -78q121 0 209 104t88 261v600h92v-623q0 -342 260 -342q125 0 208 104.5t83 270.5v590h92v-1024h-92v170h-4q-107 -195 -313 -195q-112 0 -191.5 64.5t-107.5 169.5q-48 -111 -137.5 -172.5t-194.5 -61.5q-336 0 -336 416v633h92z "/>
<glyph glyph-name="uni0270" horiz-adv-x="1683" unicode="ɰ" d="M235 1024v-616q0 -193 60.5 -271t191.5 -78q121 0 209 104t88 261v600h92v-623q0 -342 260 -342q125 0 208 104.5t83 270.5v590h92v-1495h-92v641h-4q-107 -195 -313 -195q-112 0 -191.5 64.5t-107.5 169.5q-48 -111 -137.5 -172.5t-194.5 -61.5q-336 0 -336 416v633h92z "/>
<glyph glyph-name="uni0271" horiz-adv-x="1683" unicode="ɱ" d="M1448 616q0 193 -60.5 271t-191.5 78q-121 0 -209 -104t-88 -261v-600h-92v623q0 342 -260 342q-125 0 -208 -104.5t-83 -270.5v-590h-92v1024h92v-170h4q107 195 313 195q112 0 191.5 -64.5t107.5 -169.5q48 111 137.5 172.5t194.5 61.5q336 0 336 -416v-691 q0 -423 -285 -423q-49 0 -94 15v88q45 -19 89 -19q103 0 150.5 82t47.5 255v676z"/>
<glyph glyph-name="uni0272" horiz-adv-x="1096" unicode="ɲ" d="M860 0v596q0 369 -266 369q-148 0 -243 -108.5t-95 -268.5v-646v-11q0 -204 -70 -307q-72 -105 -215 -105q-49 0 -94 15v88q45 -19 89 -19q103 0 150.5 82t47.5 255v1084h92v-186h4q112 211 350 211q166 0 254 -110.5t88 -315.5v-623h-92z"/>
<glyph glyph-name="uni0273" horiz-adv-x="1118" unicode="ɳ" d="M860 596q0 369 -266 369q-148 0 -243 -108.5t-95 -268.5v-588h-92v1024h92v-186h4q112 211 350 211q166 0 254 -110.5t88 -315.5v-683q0 -173 47.5 -255t150.5 -82q44 0 89 19v-88q-45 -15 -94 -15q-143 0 -215 105q-70 102 -70 307v11v654z"/>
<glyph glyph-name="uni0274" horiz-adv-x="1128" unicode="ɴ" d="M165 0v1024h74l610 -809q7 -8 13 -18t12 -21v848h92v-1024h-65l-615 817q-5 6 -12.5 17t-15.5 22v-856h-93z"/>
<glyph glyph-name="uni0275" horiz-adv-x="1149" unicode="ɵ" d="M582 965q-84 0 -153 -27t-120 -78.5t-82 -126t-39 -169.5h773q-11 195 -109 298t-270 103zM962 480h-776q3 -95 32 -172.5t79.5 -133t121.5 -85.5t159 -30q89 0 158.5 28.5t118.5 83t76 132.5t31 177zM575 -25q-113 0 -203 39t-152.5 109.5t-96 168t-33.5 214.5 q0 127 35.5 228t101 171t157 107t202.5 37q109 0 196.5 -37t149 -106.5t94.5 -169.5t33 -226q0 -118 -33 -216t-95.5 -169t-152.5 -110.5t-203 -39.5z"/>
<glyph glyph-name="uni0276" horiz-adv-x="1416" unicode="ɶ" d="M837 135v802q-116 28 -219 28q-97 0 -176.5 -33.5t-136.5 -93.5t-88 -143.5t-31 -183.5t29 -183t84 -142t134.5 -92t179.5 -33q43 0 99 5.5t125 22.5v46zM1350 0h-495q-45 -7 -86 -11q-36 -5 -74.5 -8t-66.5 -3q-124 0 -223.5 38t-169.5 107t-107.5 165.5t-37.5 213.5 q0 121 38 221t108 172t169 111.5t221 39.5q12 0 36 -1.5t54 -4t64 -6.5t66 -10h480v-84h-394v-389h367v-84h-367v-383h418v-84z"/>
<glyph glyph-name="uni0277" horiz-adv-x="1390" unicode="ɷ" d="M650 476h94v-90q0 -157 53 -241.5t164 -84.5q128 0 186 95.5t58 274.5q0 123 -33.5 222t-97.5 168.5t-158 106.5t-215 37q-120 0 -215.5 -39t-162.5 -109.5t-102.5 -169.5t-35.5 -218q0 -179 57.5 -273.5t182.5 -94.5q115 0 170 84t55 242v90zM700 178h-5 q-42 -102 -110.5 -152t-172.5 -50q-75 0 -134.5 30.5t-101 88t-64 140.5t-22.5 189q0 139 44 253.5t125 197t195.5 128t255.5 45.5q133 0 242 -43t186 -122t119.5 -190t42.5 -247q0 -112 -21 -199.5t-63 -147.5t-104.5 -91.5t-145.5 -31.5q-51 0 -92 11t-73 35t-57 62.5 t-44 93.5z"/>
<glyph glyph-name="uni0278" horiz-adv-x="1307" unicode="ɸ" d="M186 504q0 -94 29 -172.5t83.5 -136t133 -92.5t176.5 -42v901q-97 -8 -175 -42t-133 -92.5t-84.5 -140t-29.5 -183.5zM1121 512q0 105 -28 186.5t-81.5 139t-132 89.5t-179.5 37v-904q101 6 179.5 39.5t132 91.5t81.5 139t28 182zM608 -471v448q-121 7 -217 48.5 t-163 111.5t-102.5 164t-35.5 205q0 120 37 216.5t104.5 166t163.5 110t213 48.5v469h92v-468q119 -5 215 -44t163 -108t103 -166.5t36 -219.5q0 -113 -35.5 -207.5t-102 -164.5t-162.5 -112t-217 -49v-448h-92z"/>
<glyph glyph-name="uni0279" horiz-adv-x="676" unicode="ɹ" d="M29 96q46 -33 108 -33q121 0 203 125t82 355v481h90v-1024h-90v227h-4q-35 -117 -111 -182t-176 -65q-57 0 -102 18v98z"/>
<glyph glyph-name="uni027A" horiz-adv-x="676" unicode="ɺ" d="M29 96q46 -33 108 -33q120 0 203 125q82 124 82 355v973h90v-1516h-90v227h-4q-35 -118 -111 -182.5t-176 -64.5q-57 0 -102 18v98z"/>
<glyph glyph-name="uni027B" horiz-adv-x="712" unicode="ɻ" d="M422 227h-4q-35 -118 -111 -182.5t-176 -64.5q-57 0 -102 18v98q46 -33 108 -33q120 0 203 125q82 124 82 355v481h90v-1084q0 -173 49 -255t152 -82q44 0 89 19v-88q-45 -15 -94 -15q-286 0 -286 423v285z"/>
<glyph glyph-name="uni027C" horiz-adv-x="676" unicode="ɼ" d="M647 928q-47 33 -108 33q-120 0 -203 -125q-82 -124 -82 -355v-952h-90v1495h90v-227h4q35 118 111 182.5t176 64.5q57 0 102 -18v-98z"/>
<glyph glyph-name="uni027D" horiz-adv-x="676" unicode="ɽ" d="M164 1024h90v-227h4q35 118 111 182.5t176 64.5q57 0 102 -18v-98q-47 33 -108 33q-120 0 -203 -125q-82 -124 -82 -355v-541q0 -173 48 -255t151 -82q44 0 89 19v-88q-45 -15 -94 -15q-285 0 -285 423z"/>
<glyph glyph-name="uni027E" horiz-adv-x="552" unicode="ɾ" d="M144 0v625q0 423 285 423q49 0 94 -15v-88q-45 19 -89 19q-103 0 -150.5 -82t-47.5 -255v-627h-92z"/>
<glyph glyph-name="uni027F" horiz-adv-x="552" unicode="ɿ" d="M316 0v627q0 173 -47.5 255t-150.5 82q-44 0 -89 -19v88q45 15 94 15q285 0 285 -423v-625h-92z"/>
<glyph glyph-name="uni0280" horiz-adv-x="928" unicode="ʀ" d="M260 944v-414h227q113 0 175.5 53.5t62.5 161.5q0 199 -255 199h-210zM885 0h-106l-120 270q-23 51 -48.5 84.5t-55 54t-62.5 29t-69 8.5h-164v-446h-96v1024h327q79 0 141.5 -19.5t106 -56.5t66 -89.5t22.5 -118.5q0 -109 -62.5 -175.5t-175.5 -91.5v-4q46 -19 83.5 -54 t69.5 -103z"/>
<glyph glyph-name="uni0281" horiz-adv-x="928" unicode="ʁ" d="M470 80q255 0 255 199q0 108 -62.5 161.5t-175.5 53.5h-227v-414h210zM742 712q-32 -68 -69.5 -103t-83.5 -54v-4q113 -25 175.5 -91.5t62.5 -175.5q0 -66 -22.5 -118.5t-66 -89.5t-106 -56.5t-141.5 -19.5h-327v1024h96v-446h164q36 0 69 8.5t62.5 29t55 54t48.5 84.5 l120 270h106z"/>
<glyph glyph-name="uni0282" horiz-adv-x="795" unicode="ʂ" d="M111 -28v184q25 -22 58.5 -40t68 -30.5t68 -19.5t59.5 -7q241 0 241 197q0 34 -13 62.5t-40 54t-69.5 49t-102.5 49.5q-75 32 -125.5 64.5t-82 68t-45 76.5t-13.5 90q0 63 26 114.5t71 88t105.5 56.5t128.5 20q131 0 226 -54v-104q-115 74 -236 74q-50 0 -91.5 -14 t-71 -38.5t-46 -59.5t-16.5 -77q0 -36 7.5 -64.5t30 -53.5t64 -50t109.5 -55q81 -35 135.5 -69t84.5 -65q60 -62 60 -163q0 -60 -23.5 -111.5t-68 -89t-108.5 -59t-144 -21.5q-86 0 -155 24v-28q0 -82 13.5 -131t38 -75.5t58.5 -34.5t75 -8q21 0 50 4.5t52 14.5v-88 q-23 -8 -49 -11.5t-50 -3.5q-79 0 -132.5 25.5t-86.5 70.5t-47 106t-14 132z"/>
<glyph glyph-name="uni0283" horiz-adv-x="460" unicode="ʃ" d="M577 1419q-37 29 -112 29q-189 0 -189 -254v-1360q0 -163 -81.5 -246.5t-202.5 -83.5q-66 0 -109 19v94q37 -29 113 -29q188 0 188 254v1360q0 162 81.5 246t203.5 84q65 0 108 -19v-94z"/>
<glyph glyph-name="uni0284" horiz-adv-x="460" unicode="ʄ" d="M577 1419q-37 29 -112 29q-189 0 -189 -254v-610h175v-84h-175v-666q0 -163 -81.5 -246.5t-202.5 -83.5q-66 0 -109 19v94q37 -29 113 -29q188 0 188 254v658h-163v84h163v618q0 162 81.5 246t203.5 84q65 0 108 -19v-94z"/>
<glyph glyph-name="uni0285" horiz-adv-x="616" unicode="ʅ" d="M-117 1513q42 19 108 19q60 0 112.5 -21t90.5 -63t60 -103.5t22 -142.5v-888q0 -254 188 -254q75 0 113 29v-94q-42 -19 -109 -19q-139 0 -211.5 80t-72.5 250v888q0 254 -189 254q-74 0 -112 -29v94z"/>
<glyph glyph-name="uni0286" horiz-adv-x="580" unicode="ʆ" d="M291 -162q-35 17 -72.5 29.5t-83.5 12.5q-24 0 -48.5 -9.5t-45 -27.5t-33.5 -44.5t-13 -59.5t9.5 -56t25.5 -38t37 -22t45 -7q71 0 114.5 58.5t64.5 163.5zM-98 -263q0 54 19 96.5t52 71.5t76.5 44.5t91.5 15.5q33 0 74 -10.5t81 -30.5v1278q0 162 81 246q82 84 204 84 q66 0 108 -19v-94q-38 29 -112 29q-189 0 -189 -254l1 -1309q44 -23 88 -49.5t84 -53.5t75 -53t62 -48v-104q-93 75 -172.5 130t-143.5 90q-13 -58 -37 -107t-58 -85t-78 -56.5t-98 -20.5q-46 0 -84.5 14.5t-66 41.5t-43 66t-15.5 87z"/>
<glyph glyph-name="uni0287" horiz-adv-x="608" unicode="ʇ" d="M39 1010q72 34 135 34q227 0 227 -272v-688h184v-84h-184v-266q-22 -8 -46 -16q-24 -7 -46 -15v297h-270v84h270v676q0 106 -33.5 153.5t-113.5 47.5q-57 0 -123 -37v86z"/>
<glyph glyph-name="uni0288" horiz-adv-x="608" unicode="ʈ" d="M569 -448q-72 -34 -135 -34q-227 0 -227 272v1150h-184v84h184v266l92 31v-297h270v-84h-270v-1138q0 -106 33.5 -153.5t113.5 -47.5q57 0 123 37v-86z"/>
<glyph glyph-name="uni0289" horiz-adv-x="1096" unicode="ʉ" d="M236 502v-47q0 -104 17 -179t51.5 -123t88 -71t127.5 -23q142 0 231 105q89 106 89 280v58h-604zM840 0v186h-4q-106 -211 -330 -211q-363 0 -363 457v70h-120v84h120v438h93v-438h604v438h92v-438h141v-84h-141v-502h-92z"/>
<glyph glyph-name="uni028A" horiz-adv-x="1218" unicode="ʊ" d="M315 940h-197l-2 84h321v-80q-110 -72 -164.5 -185t-54.5 -273q0 -99 27 -178t77.5 -134.5t123 -85t162.5 -29.5q93 0 165 28.5t121.5 83.5t75 135t25.5 183q0 161 -54.5 272t-163.5 183v80h325l-3 -84h-197q92 -81 142 -187q47 -100 47 -230v-16q0 -119 -33.5 -217 t-96.5 -168t-153.5 -108t-205.5 -38q-112 0 -201 37.5t-151 106t-95 165t-33 215.5v11q0 133 48 237q50 108 145 192z"/>
<glyph glyph-name="uni028B" horiz-adv-x="1116" unicode="ʋ" d="M143 1024h93v-623q0 -341 313 -341q82 0 148.5 34t113.5 96.5t72.5 151t25.5 196.5q0 212 -47.5 319t-134.5 107q-29 0 -58 -5.5t-54 -18.5v92q23 8 50 12t67 4q69 0 119.5 -35t84 -101t49.5 -160.5t16 -212.5q0 -128 -31 -232t-90 -177.5t-144.5 -113.5t-193.5 -40 q-399 0 -399 446v602z"/>
<glyph glyph-name="uni028C" horiz-adv-x="928" unicode="ʌ" d="M907 0h-100l-315 819q-16 40 -29 103h-4q-9 -48 -31 -107l-305 -815h-103l396 1024h84z"/>
<glyph glyph-name="uni028D" horiz-adv-x="1386" unicode="ʍ" d="M1350 0h-95l-243 817q-17 57 -17 86h-8q-6 -57 -14 -86l-232 -817h-63l-260 817q-17 57 -19 86h-8q-5 -54 -14 -86l-238 -817h-102l309 1024h86l250 -774q18 -61 20 -84h5q7 54 16 86l223 772h86z"/>
<glyph glyph-name="uni028E" horiz-adv-x="928" unicode="ʎ" d="M510 1233q56 138 124 205t175 67q45 0 80 -14v-92q-36 14 -84 14q-123 0 -194 -170l-95 -227l388 -1016h-103l-309 834q-10 27 -14 41q-4 19 -9 34h-4l-24 -69l-330 -840h-100z"/>
<glyph glyph-name="uni028F" horiz-adv-x="854" unicode="ʏ" d="M834 1024l-362 -649v-375h-92v375l-360 649h106l242 -456l35 -77t23 -56h4q12 35 26 68t30 65l250 456h98z"/>
<glyph glyph-name="uni0290" horiz-adv-x="950" unicode="ʐ" d="M875 84q-17 -40 -32 -89.5t-15 -91.5q0 -53 30.5 -83.5t87.5 -30.5q29 0 55 5t55 16v-85q-27 -9 -54.5 -15t-63.5 -6q-103 0 -154.5 48t-51.5 127q0 38 6.5 68t17.5 53h-699v35l680 905h-631v84h787v-25l-686 -915h668z"/>
<glyph glyph-name="uni0291" horiz-adv-x="1048" unicode="ʑ" d="M755 84q35 0 66 5.5t54.5 19t37.5 35t14 54.5q0 56 -37.5 86t-106.5 30q-45 0 -83.5 -19t-69.5 -51t-54 -73.5t-36 -86.5h215zM207 84h241q22 66 54.5 123.5t75 100t94.5 66.5t114 24q58 0 102 -16t72.5 -43t43 -63t14.5 -76q0 -94 -67 -147t-187 -53h-246 q-8 -32 -13.5 -63.5t-9.5 -63.5h-92q6 66 21 127h-367v35l680 905h-631v84h787v-25z"/>
<glyph glyph-name="uni0292" horiz-adv-x="936" unicode="ʒ" d="M375 416q116 -7 213 -40.5t166.5 -92.5t108 -142.5t38.5 -190.5q0 -101 -35.5 -181t-103 -135t-166 -84t-224.5 -29q-125 0 -213.5 17.5t-158.5 52.5v96q36 -21 75.5 -36t85 -25.5t99 -15.5t117.5 -5q100 0 180 24t135 68.5t84.5 109t29.5 145.5q0 89 -34 159.5t-95 119 t-146 74.5t-187 26h-121v24l447 585h-631v84h787v-25z"/>
<glyph glyph-name="uni0293" horiz-adv-x="918" unicode="ʓ" d="M619 -265q-82 69 -172 107t-170 38q-41 0 -76 -8t-61 -24t-40.5 -40.5t-14.5 -57.5t18 -58t47.5 -42t68 -25.5t79.5 -8.5q51 0 98.5 10.5t88.5 27t75 38t59 43.5zM858 10q0 -92 -28 -158t-72 -111q32 -22 70.5 -51t74.5 -60v-111q-23 20 -50.5 42t-55.5 43.5t-54.5 41 t-48.5 34.5q-33 -29 -72.5 -56t-88.5 -48.5t-108.5 -34.5t-132.5 -13q-68 0 -123.5 17t-94.5 47t-60.5 71t-21.5 89q0 45 17.5 83.5t53 67.5t87.5 45.5t121 16.5q107 0 207.5 -42t211.5 -128q35 38 55 93t20 122q0 70 -27 129t-82.5 102t-139 66.5t-196.5 23.5h-92v24 l447 585h-631v84h787v-25l-451 -583q116 -7 205.5 -37.5t150 -82.5t91.5 -124t31 -162z"/>
<glyph glyph-name="uni0294" horiz-adv-x="757" unicode="ʔ" d="M351 0h-92v520q0 53 14 96.5t38.5 81.5t57.5 73.5t71 73.5q32 33 63 68.5t55 76t38.5 88t14.5 105.5q0 62 -18.5 111t-51.5 83.5t-79.5 52.5t-102.5 18q-94 0 -172 -30t-148 -87v107q71 53 148.5 76t175.5 23q74 0 137.5 -23.5t110 -68.5t73 -110.5t26.5 -149.5 q0 -63 -16 -116t-41.5 -98t-58.5 -84t-67 -75q-53 -56 -87 -96.5t-53.5 -75t-27.5 -66.5t-8 -72v-502z"/>
<glyph glyph-name="uni0295" horiz-adv-x="757" unicode="ʕ" d="M398 502q0 40 -8 72t-27.5 66.5t-54 75t-86.5 96.5q-34 36 -67 75t-58.5 84t-41.5 98t-16 116q0 84 26.5 149.5t73 110.5t110 68.5t137.5 23.5q98 0 175.5 -23t148.5 -76v-107q-70 57 -148 87t-172 30q-56 0 -102.5 -18t-79.5 -52.5t-51.5 -83.5t-18.5 -111 q0 -58 14.5 -105.5t38.5 -88t55 -76t63 -68.5q38 -38 71 -73.5t57.5 -73.5t38.5 -81.5t14 -96.5v-520h-92v502z"/>
<glyph glyph-name="uni0296" horiz-adv-x="757" unicode="ʖ" d="M359 1014q0 -40 8 -72t27.5 -66.5t53.5 -75t87 -96.5q34 -36 67 -75.5t58.5 -84.5t41.5 -97.5t16 -115.5q0 -84 -26.5 -149.5t-73 -110.5t-110 -68.5t-137.5 -23.5q-98 0 -175.5 23t-148.5 76v107q70 -57 148 -87t172 -30q56 0 102.5 18t79.5 52.5t51.5 83.5t18.5 111 q0 58 -14.5 105.5t-38.5 88t-55 76t-63 68.5q-38 37 -71 73t-57.5 74t-38.5 81.5t-14 96.5v520h92v-502z"/>
<glyph glyph-name="uni0297" horiz-adv-x="909" unicode="ʗ" d="M827 -408q-115 -71 -272 -71q-105 0 -191 52.5t-146.5 149.5t-94 233t-33.5 303q0 186 38 332.5t106 248t162.5 155.5t207.5 54q59 0 115.5 -11t111.5 -35v-103q-54 31 -114.5 48t-126.5 17q-90 0 -164.5 -51.5t-128 -144t-82.5 -220.5t-29 -281q0 -148 26.5 -270 t75.5 -209.5t118 -135.5t153 -48q78 0 144.5 21t123.5 59v-93z"/>
<glyph glyph-name="uni0298" horiz-adv-x="1266" unicode="ʘ" d="M581 666q-38 0 -64 27t-26 65q0 18 7 34.5t19 29t28.5 20t35.5 7.5t36 -7.5t29.5 -20t19.5 -29t7 -34.5t-7 -35t-19.5 -29.5t-29.5 -20t-36 -7.5zM963 768q0 141 -17.5 266.5t-60.5 219t-116.5 148t-184.5 54.5q-100 0 -175 -53.5t-124.5 -146t-74 -217.5t-24.5 -268v-32 q0 -174 29 -302t81 -212t123.5 -125t155.5 -41q85 0 156 44t122.5 129.5t80.5 212.5t29 294v29zM1057 770q0 -192 -33.5 -340t-96.5 -249.5t-154.5 -153.5t-207.5 -52q-110 0 -198 50t-149.5 147.5t-94.5 241t-33 329.5t31.5 334t94.5 250.5t158 157.5t222 55 q121 0 208.5 -54t143.5 -154.5t82.5 -242.5t26.5 -319z"/>
<glyph glyph-name="uni0299" horiz-adv-x="981" unicode="ʙ" d="M793 285q0 41 -13.5 77.5t-44 63.5t-81 43t-124.5 16h-274v-401h307q57 0 100 14.5t72 41t43.5 63.5t14.5 82zM752 764q0 35 -10.5 67t-35.5 56t-65 38.5t-100 14.5h-285v-371h260q68 0 113.5 16.5t72.5 44t38.5 62.5t11.5 72zM889 293q0 -65 -22.5 -118.5t-63.5 -92.5 t-97.5 -60.5t-123.5 -21.5h-418v1024h389q77 0 132.5 -19t91.5 -52t53.5 -78t17.5 -97q0 -47 -13.5 -87.5t-38 -73t-60 -54.5t-79.5 -31q57 -6 100.5 -26.5t72.5 -52t44 -72.5t15 -88z"/>
<glyph glyph-name="uni029A" horiz-adv-x="1099" unicode="ʚ" d="M507 -25q-110 0 -189.5 24t-131.5 64.5t-76.5 95t-24.5 115.5q0 56 22 102t59 79.5t85 55t100 28.5v4q-41 8 -82 27t-73 49t-52 70.5t-20 93.5q0 72 32.5 123t86.5 82.5t123 46t143 14.5q111 0 203 -37t158 -107t102.5 -171t36.5 -228q0 -117 -32 -214.5t-95.5 -168 t-157.5 -109.5t-217 -39zM507 59q94 0 169.5 32t128 90.5t80.5 140.5t28 182q0 109 -28.5 194.5t-81 144.5t-127.5 90.5t-169 31.5q-137 0 -212 -50t-75 -143q0 -42 15.5 -72.5t40.5 -52.5t57 -36.5t64 -23t62 -11.5t51 -3h101v-84h-96q-76 0 -138 -13.5t-105.5 -40 t-67 -64.5t-23.5 -87t17.5 -90t56.5 -71t101 -47t151 -17z"/>
<glyph glyph-name="uni029B" horiz-adv-x="1113" unicode="ʛ" d="M835 1025q0 118 48 183.5t129 65.5q28 0 53.5 -4t42.5 -12v-82q-17 6 -40.5 10t-40.5 4q-49 0 -76 -42.5t-27 -115.5q0 -18 1 -33.5t3 -30.5t4.5 -31t6.5 -35l-5 -3q-71 29 -151.5 47.5t-171.5 18.5q-94 0 -172 -33.5t-134.5 -94t-87.5 -145t-31 -186.5q0 -104 33 -186.5 t90.5 -140t135 -88t166.5 -30.5q95 0 161 16.5t106 36.5v353h-250v84h345v-489q-177 -86 -361 -86q-119 0 -215 36.5t-164.5 105t-105.5 167t-37 222.5q0 103 35 200.5t101.5 173t163.5 121.5t221 46q63 0 119 -6t105 -17z"/>
<glyph glyph-name="uni029C" horiz-adv-x="1116" unicode="ʜ" d="M860 0v489h-604v-489h-92v1024h92v-451h604v451h92v-1024h-92z"/>
<glyph glyph-name="uni029D" horiz-adv-x="494" unicode="ʝ" d="M159 -162q-35 17 -72.5 29.5t-83.5 12.5q-24 0 -48.5 -9.5t-45 -27.5t-33.5 -44.5t-13 -59.5t9.5 -56t25.5 -38t37 -22t45 -7q71 0 114.5 58.5t64.5 163.5zM164 1024h92l1 -1139q44 -23 88 -49.5t84 -53.5t75 -53t62 -48v-104q-93 75 -172.5 130t-143.5 90 q-13 -58 -37 -107t-58 -85t-78 -56.5t-98 -20.5q-46 0 -84.5 14.5t-66 41.5t-43 66t-15.5 87q0 54 19 96.5t52 71.5t76.5 44.5t91.5 15.5q33 0 74 -10.5t81 -30.5v1100zM209 1282q-30 0 -53 22t-23 56q0 33 23.5 53.5t52.5 20.5q31 0 54.5 -20t23.5 -54q0 -32 -23 -55 t-55 -23z"/>
<glyph glyph-name="uni029E" horiz-adv-x="909" unicode="ʞ" d="M159 1024l490 -506h4v506h92v-1495h-92v956h-4l-465 -485h-119l486 496l-525 528h133z"/>
<glyph glyph-name="uni029F" horiz-adv-x="775" unicode="ʟ" d="M722 0h-558v1024h92v-934h466v-90z"/>
<glyph glyph-name="uni02A0" horiz-adv-x="1174" unicode="ʠ" d="M891 623q0 70 -23.5 132.5t-67 109t-105.5 73.5t-138 27q-80 0 -147.5 -31.5t-117.5 -91.5t-78 -146t-28 -194q0 -106 25 -188.5t70 -139t107 -86t136 -29.5q88 0 156.5 29.5t115.5 80.5t71 118.5t24 144.5v191zM891 1115q0 423 285 423q49 0 94 -15v-88q-45 19 -89 19 q-103 0 -150.5 -82t-47.5 -255v-1588h-92v657h-4q-24 -48 -62 -87t-86 -66.5t-104 -42.5t-117 -15q-94 0 -172.5 35.5t-135.5 102t-88.5 163t-31.5 218.5q0 123 34.5 225.5t96.5 175.5t148 113.5t190 40.5q230 0 328 -189h4v255z"/>
<glyph glyph-name="uni02A1" horiz-adv-x="757" unicode="ʡ" d="M267 487v33q0 53 14 96.5t38.5 81.5t57.5 73.5t71 73.5q32 33 63 68.5t55 76t38.5 88t14.5 105.5q0 62 -18.5 111t-51.5 83.5t-79.5 52.5t-102.5 18q-94 0 -172 -30t-148 -87v107q71 53 148.5 76t175.5 23q74 0 137.5 -23.5t110 -68.5t73 -110.5t26.5 -149.5 q0 -63 -16 -116t-41.5 -98t-58.5 -84t-67 -75q-53 -56 -87 -96.5t-53.5 -75t-27.5 -66.5t-8 -72v-15h216v-84h-216v-403h-92v403h-182v84h182z"/>
<glyph glyph-name="uni02A2" horiz-adv-x="757" unicode="ʢ" d="M672 487v-84h-182v-403h-92v403h-216v84h216v15q0 40 -8 72t-27.5 66.5t-54 75t-86.5 96.5q-34 36 -67 75t-58.5 84t-41.5 98t-16 116q0 84 26.5 149.5t73 110.5t110 68.5t137.5 23.5q98 0 175.5 -23t148.5 -76v-107q-70 57 -148 87t-172 30q-56 0 -102.5 -18 t-79.5 -52.5t-51.5 -83.5t-18.5 -111q0 -58 14.5 -105.5t38.5 -88t55 -76t63 -68.5q38 -38 71 -73.5t57.5 -73.5t38.5 -81.5t14 -96.5v-33h182z"/>
<glyph glyph-name="uni02A3" horiz-adv-x="1854" unicode="ʣ" d="M891 623q0 143 -90.5 242.5t-243.5 99.5q-161 0 -266 -123.5t-105 -339.5q0 -212 94.5 -327.5t243.5 -115.5q175 0 271 108.5t96 264.5v191zM1111 84h661v-84h-881v186h-4q-50 -97 -148 -154t-221 -57q-189 0 -308.5 138t-119.5 381q0 248 130.5 401.5t338.5 153.5 q230 0 328 -189h4v656h92v-1452l658 876h-631v84h787v-25z"/>
<glyph glyph-name="uni02A4" horiz-adv-x="1879" unicode="ʤ" d="M891 623q0 70 -23.5 132.5t-67 109t-105.5 73.5t-138 27q-80 0 -147.5 -31.5t-117.5 -91.5t-78 -146t-28 -194q0 -106 25 -188.5t70 -139t107 -86t136 -29.5q88 0 156.5 29.5t115.5 80.5t71 118.5t24 144.5v191zM891 0v186h-4q-24 -48 -62 -87t-86 -66.5t-104 -42.5 t-117 -15q-94 0 -172.5 35.5t-135.5 102t-88.5 163t-31.5 218.5q0 123 34.5 225.5t96.5 175.5t148 113.5t190 40.5q230 0 328 -189h4v656h92v-492h786v-25l-451 -583q116 -7 213 -40.5t166.5 -92.5t108 -142.5t38.5 -190.5q0 -101 -35.5 -181t-103 -135t-166 -84t-224.5 -29 q-125 0 -213.5 17.5t-158.5 52.5v96q36 -21 75.5 -36t85 -25.5t99 -15.5t117.5 -5q100 0 180 24t135 68.5t84.5 109t29.5 145.5q0 89 -34 159.5t-95 119t-146 74.5t-187 26h-121v24l447 585h-630v-940h-92z"/>
<glyph glyph-name="uni02A5" horiz-adv-x="1935" unicode="ʥ" d="M1642 84q35 0 66 5.5t54.5 19t37.5 35t14 54.5q0 56 -37.5 86t-106.5 30q-45 0 -83.5 -19t-69.5 -51t-54 -73.5t-36 -86.5h215zM1624 940h-641v-853zM891 623q0 70 -23.5 132.5t-67 109t-105.5 73.5t-138 27q-80 0 -147.5 -31.5t-117.5 -91.5t-78 -146t-28 -194 q0 -106 25 -188.5t70 -139t107 -86t136 -29.5q88 0 156.5 29.5t115.5 80.5t71 118.5t24 144.5v191zM891 0v186h-4q-24 -48 -62 -87t-86 -66.5t-104 -42.5t-117 -15q-94 0 -172.5 35.5t-135.5 102t-88.5 163t-31.5 218.5q0 123 34.5 225.5t96.5 175.5t148 113.5t190 40.5 q230 0 328 -189h4v656h92v-492h797v-25l-686 -915h241q22 66 54.5 123.5t75 100t94.5 66.5t114 24q58 0 102 -16t72.5 -43t43 -63t14.5 -76q0 -94 -67 -147t-187 -53h-246q-8 -32 -13.5 -63.5t-9.5 -63.5h-92q6 66 21 127h-420z"/>
<glyph glyph-name="uni02A6" horiz-adv-x="1242" unicode="ʦ" d="M635 59q103 0 176.5 15t120.5 41.5t69 64t22 82.5q0 34 -13 61.5t-40 51.5t-69.5 47t-102.5 49q-75 32 -125.5 64.5t-82 68t-45 76.5t-13.5 90q0 51 16.5 93t46.5 77h-296v-548q0 -101 20.5 -165.5t62 -102t104.5 -51.5t149 -14zM863 1049q131 0 226 -54v-104 q-115 74 -236 74q-50 0 -91.5 -14t-71 -38.5t-46 -59.5t-16.5 -77q0 -36 7.5 -64.5t30 -53.5t64 -50t109.5 -55q57 -25 107.5 -51t89 -59.5t61 -76t22.5 -100.5q0 -67 -30.5 -121t-91 -91.5t-151 -58t-210.5 -20.5q-107 0 -187 20t-134 66.5t-81 123.5t-27 192v563h-184v84 h184v266q23 8 46.5 15.5t45.5 15.5v-297h421q67 25 143 25z"/>
<glyph glyph-name="uni02A7" horiz-adv-x="845" unicode="ʧ" d="M299 940v-676q0 -106 33.5 -153.5t113.5 -47.5q57 0 123 37v840h-270zM569 14q-72 -34 -135 -34q-227 0 -227 272v688h-184v84h184v266q22 8 46 16q24 7 46 15v-297h270v178q0 162 81.5 246t203.5 84q65 0 108 -19v-94q-37 29 -112 29q-189 0 -189 -254v-1360 q0 -163 -81.5 -246.5t-202.5 -83.5q-66 0 -109 19v94q37 -29 113 -29q188 0 188 254v172z"/>
<glyph glyph-name="uni02A8" horiz-adv-x="1374" unicode="ʨ" d="M686 79q-28 -23 -55.5 -41.5t-57.5 -31t-64 -19.5t-75 -7q-227 0 -227 272v688h-184v84h184v266q11 4 22.5 8t23.5 8t23.5 7.5t22.5 7.5v-297h270v-84h-270v-676q0 -106 33.5 -153.5t113.5 -47.5q45 0 93.5 18t94.5 53q-57 61 -90.5 149.5t-33.5 210.5q0 121 38.5 223 t106.5 176t162.5 115t206.5 41q117 0 227 -48v-104q-110 68 -241 68q-90 0 -164 -34.5t-127.5 -96t-83 -147t-29.5 -187.5q0 -49 7.5 -96t20.5 -87.5t30.5 -72t36.5 -50.5q40 40 80.5 72t84 54t92.5 33.5t108 11.5q60 0 106.5 -15t78.5 -40.5t49 -60t17 -74.5 q0 -43 -21 -79.5t-58.5 -63.5t-89.5 -42t-114 -15q-46 0 -94 6.5t-94 20t-87 32.5t-73 45zM759 141q24 -20 54.5 -34.5t64.5 -25t70 -15.5t69 -5q39 0 76.5 5.5t67.5 18t48 34t18 54.5q0 28 -14 48t-37 33.5t-52.5 20t-61.5 6.5q-47 0 -87.5 -9.5t-77 -27.5t-70.5 -44 t-68 -59z"/>
<glyph glyph-name="uni02A9" horiz-adv-x="1513" unicode="ʩ" d="M1369 2q0 -215 -73.5 -319.5t-221.5 -104.5q-30 0 -67 9t-66 26v96q32 -23 67 -35t66 -12q106 0 154.5 83.5t48.5 256.5v594q0 369 -266 369q-74 0 -136 -29t-107 -80t-70 -120t-25 -148v-588h-92v940h-270v-940h-92v940h-184v84h184v178q0 82 22 144t60.5 103t90.5 62 t112 21q66 0 108 -19v-94q-38 29 -112 29q-189 0 -189 -254v-170h362v-186h4q112 211 350 211q167 0 254.5 -110t87.5 -316v-621z"/>
<glyph glyph-name="uni02AA" horiz-adv-x="1125" unicode="ʪ" d="M565 776q0 -36 7.5 -64.5t30 -53.5t64 -50t109.5 -55q57 -25 107.5 -51t89 -59.5t61 -76t22.5 -100.5q0 -67 -30.5 -121t-91 -91.5t-151 -58t-210.5 -20.5q-107 0 -187 20t-134 66.5t-81 123.5t-27 192v1140h92v-1125q0 -101 20.5 -165.5t62 -102t104.5 -51.5t149 -14 q103 0 176.5 15t120.5 41.5t69 64t22 82.5q0 34 -13 61.5t-40 51.5t-69.5 47t-102.5 49q-75 32 -125.5 64.5t-82 68t-45 76.5t-13.5 90q0 70 26 122.5t71 87.5t105 52t129 17q131 0 226 -54v-104q-115 74 -236 74q-50 0 -91.5 -14t-71 -38.5t-46 -59.5t-16.5 -77z"/>
<glyph glyph-name="uni02AB" horiz-adv-x="1128" unicode="ʫ" d="M915 940h-659v-877zM385 84h661v-84h-882v1516h92v-492h815v-25z"/>
<glyph glyph-name="uni02AC" horiz-adv-x="1012" unicode="ʬ" d="M913 648l-182 -648h-83l-116 398q-4 13 -8.5 29t-8 32.5t-6 31.5t-2.5 24h-4q-1 -9 -3.5 -23t-6.5 -29.5t-8.5 -32t-8.5 -29.5l-126 -401h-76l-181 648h95l107 -416q5 -18 10 -48t7 -56h5q0 8 2.5 21t6 27t7.5 27.5t7 24.5l133 420h70l123 -422q5 -16 12.5 -43t9.5 -55h4 q1 11 8 41.5t15 62.5l107 416h91zM913 1434l-182 -648h-83l-116 398q-4 13 -8.5 29t-8 32.5t-6 31.5t-2.5 24h-4q-1 -9 -3.5 -23t-6.5 -29.5t-8.5 -32t-8.5 -29.5l-126 -401h-76l-181 648h95l107 -416q5 -18 10 -48t7 -56h5q0 8 2.5 21t6 27t7.5 27.5t7 24.5l133 420h70 l123 -422q5 -16 12.5 -43t9.5 -55h4q1 11 8 41.5t15 62.5l107 416h91z"/>
<glyph glyph-name="uni02AD" horiz-adv-x="981" unicode="ʭ" d="M865 0h-93v414h-564v-414h-92v504h749v-504zM865 930h-93v414h-564v-414h-92v504h749v-504z"/>
<glyph glyph-name="uni02AE" horiz-adv-x="1200" unicode="ʮ" d="M340 411q0 -182 66 -266.5t206 -84.5q65 0 125 26t106 76.5t73.5 125t27.5 170.5v566h92v-1495h-92v656h-4q-122 -209 -352 -209q-167 0 -253 106.5t-87 307.5l-1 320q0 254 -189 254q-74 0 -112 -29v94q42 19 108 19q60 0 112.5 -21.5t91 -63t60.5 -103t22 -142.5v-307z "/>
<glyph glyph-name="uni02AF" horiz-adv-x="1203" unicode="ʯ" d="M944 185h-4q-122 -209 -352 -209q-167 0 -253 106.5t-87 307.5l-1 320q0 254 -189 254q-74 0 -112 -29v94q42 19 108 19q60 0 112.5 -21.5t91 -63t60.5 -103t22 -142.5v-307q0 -182 66 -266.5t206 -84.5q65 0 125 26t106 76.5t73.5 125t27.5 170.5v566h92v-1084 q0 -173 49 -255t152 -82q44 0 89 19v-88q-45 -15 -94 -15q-143 0 -215.5 105t-72.5 318v243z"/>
<glyph glyph-name="uni02B0" horiz-adv-x="627" unicode="ʰ" d="M466 662v331q0 91 -32.5 132.5t-101.5 41.5q-66 0 -114 -51q-25 -26 -38.5 -62t-13.5 -85v-307h-66v813h66v-350q29 48 73.5 76.5t105.5 28.5q92 0 139.5 -58.5t47.5 -167.5v-342h-66z"/>
<glyph glyph-name="uni02B1" horiz-adv-x="627" unicode="ʱ" d="M100 1218q0 61 14 110.5t42.5 85t72 54.5t102.5 19q39 0 76 -4t70 -10v-65q-33 7 -73.5 11.5t-72.5 4.5q-45 0 -76.5 -15.5t-51 -43t-28.5 -65t-9 -81.5v-96q23 45 69.5 76t109.5 31q92 0 139.5 -58.5t47.5 -168.5v-341h-66v330q0 91 -32.5 133t-101.5 42q-32 0 -62 -13 t-53 -38t-37 -62.5t-14 -85.5v-306h-66v556z"/>
</font>
</defs>
</svg>
